<svg width="36" height="36" viewBox="0 0 36 36" fill="none" xmlns="http://www.w3.org/2000/svg">
<rect x="2" y="2" width="32" height="32" rx="16" fill="#C7C8DB"/>
<rect x="2" y="2" width="32" height="32" rx="16" stroke="#DADBE9" stroke-width="4"/>
<path d="M23.6663 15.3333V20.8C23.6663 21.9201 23.6663 22.4802 23.4484 22.908C23.2566 23.2843 22.9506 23.5903 22.5743 23.782C22.1465 24 21.5864 24 20.4663 24H15.533C14.4129 24 13.8529 24 13.425 23.782C13.0487 23.5903 12.7427 23.2843 12.551 22.908C12.333 22.4802 12.333 21.9201 12.333 20.8V15.3333M12.3997 12H23.5997C23.973 12 24.1597 12 24.3023 12.0727C24.4278 12.1366 24.5298 12.2386 24.5937 12.364C24.6663 12.5066 24.6663 12.6933 24.6663 13.0667V14.2667C24.6663 14.64 24.6663 14.8267 24.5937 14.9693C24.5298 15.0948 24.4278 15.1968 24.3023 15.2607C24.1597 15.3333 23.973 15.3333 23.5997 15.3333H12.3997C12.0263 15.3333 11.8396 15.3333 11.697 15.2607C11.5716 15.1968 11.4696 15.0948 11.4057 14.9693C11.333 14.8267 11.333 14.64 11.333 14.2667V13.0667C11.333 12.6933 11.333 12.5066 11.4057 12.364C11.4696 12.2386 11.5716 12.1366 11.697 12.0727C11.8396 12 12.0263 12 12.3997 12ZM16.3997 17.6667H19.5997C19.973 17.6667 20.1597 17.6667 20.3023 17.7393C20.4278 17.8032 20.5298 17.9052 20.5937 18.0307C20.6663 18.1733 20.6663 18.36 20.6663 18.7333V19.2667C20.6663 19.64 20.6663 19.8267 20.5937 19.9693C20.5298 20.0948 20.4278 20.1968 20.3023 20.2607C20.1597 20.3333 19.973 20.3333 19.5997 20.3333H16.3997C16.0263 20.3333 15.8396 20.3333 15.697 20.2607C15.5716 20.1968 15.4696 20.0948 15.4057 19.9693C15.333 19.8267 15.333 19.64 15.333 19.2667V18.7333C15.333 18.36 15.333 18.1733 15.4057 18.0307C15.4696 17.9052 15.5716 17.8032 15.697 17.7393C15.8396 17.6667 16.0263 17.6667 16.3997 17.6667Z" stroke="#262655" stroke-width="1.33333" stroke-linecap="round" stroke-linejoin="round"/>
</svg>
