<svg width="226" height="250" viewBox="0 0 226 250" fill="none" xmlns="http://www.w3.org/2000/svg">
<g clip-path="url(#clip0_1142_18234)">
<path d="M202.144 107.812C201.849 107.557 201.651 107.208 201.585 106.824C201.519 106.44 201.588 106.045 201.782 105.707C203.437 101.509 204.339 97.0507 204.443 92.5388C204.694 78.6255 199.068 67.2322 189.53 57.5664C179.666 47.9235 167.335 41.1867 153.891 38.0966C145.12 35.9388 136.085 35.0421 127.061 35.4333C109.323 36.3958 92.9052 41.2427 78.8842 52.5584C70.5766 59.2106 64.2253 67.4315 61.4759 77.9914C61.1579 79.3304 60.75 79.9581 59.1585 79.9769C57.7206 80.039 56.3551 80.6254 55.3199 81.6254C54.2847 82.6253 53.6514 83.9697 53.5396 85.4046C53.4081 86.1251 53.4204 86.8645 53.5757 87.5803C53.7311 88.296 54.0264 88.974 54.4448 89.5752C54.8632 90.1763 55.3963 90.6889 56.0135 91.0832C56.6306 91.4776 57.3197 91.746 58.041 91.8731C59.1678 92.1407 59.3764 92.5697 59.3404 93.6652C58.1792 108.869 57.0654 124.067 55.999 139.258C55.1087 151.433 53.0855 163.511 53.0956 175.744C53.097 182.42 51.8521 189.042 52.5743 195.734C52.7517 197.311 53.8574 198.902 53.4857 200.177C52.6997 202.905 54.1763 204.533 55.4641 206.374C55.9317 207.02 56.5532 207.598 56.9602 208.282C57.8105 209.705 58.9855 210.906 60.389 211.788C61.7925 212.67 63.3848 213.208 65.0358 213.356C66.8577 213.389 68.6604 213.735 70.3645 214.38C79.5104 219.088 88.8923 223.093 99.3485 223.955C106.113 224.527 112.563 226.421 119.424 226.153C124.917 225.905 130.501 226.506 135.888 224.888C139.149 223.797 142.494 222.976 145.89 222.433C146.604 222.396 147.304 222.212 147.944 221.892C148.584 221.572 149.151 221.123 149.609 220.573C151.724 217.625 154.455 215.204 155.311 211.456C155.897 209.102 156.718 206.812 157.762 204.621C158.603 202.75 160.067 201.235 160.772 199.212C163.542 191.831 166.038 184.299 169.467 177.126C178.628 158.239 186.205 138.682 194.044 119.257C194.677 117.682 195.295 117.26 196.988 117.61C198.208 117.943 199.503 117.863 200.672 117.382C201.841 116.901 202.817 116.047 203.45 114.953C204.027 113.78 204.212 112.452 203.977 111.166C203.742 109.88 203.099 108.704 202.144 107.812ZM77.3084 110.474C74.016 108.139 70.8503 105.852 67.4352 103.816C66.607 103.258 65.8406 102.614 65.1491 101.893C64.3875 101.178 63.8109 100.264 64.5396 99.2299C65.2683 98.1954 66.266 98.5704 67.1137 98.9959C70.4033 100.405 73.5621 102.102 76.5529 104.067C82.8484 108.514 89.9545 111.685 97.4696 113.399C104.326 115.182 110.856 117.975 117.825 119.354C130.029 121.912 142.454 123.263 154.922 123.387C159.359 123.371 163.796 123.648 168.248 123.498C169.522 123.563 170.795 123.353 171.982 122.884C172.463 122.613 173.031 122.542 173.565 122.685C174.098 122.827 174.554 123.173 174.836 123.648C175.143 124.102 175.279 124.65 175.222 125.194C175.165 125.739 174.919 126.246 174.525 126.628C173.876 127.265 173.096 127.755 172.24 128.064C171.384 128.372 170.471 128.493 169.564 128.416C162.067 128.896 154.598 128.312 147.172 128.274C136.945 128.191 127.01 126.004 116.932 124.421C112.381 123.685 108.153 121.801 103.777 120.469C97.4521 118.821 91.2231 116.823 85.119 114.485C82.3776 113.435 79.7586 112.09 77.3084 110.474ZM76.9781 90.0741C113.891 84.3503 148.308 91.0234 180.78 110.172C174.997 112.732 144.064 110.854 127.238 107.324C109.742 103.634 92.544 99.2739 76.9454 90.0664L76.9781 90.0741ZM102.978 208.964C96.5671 208.605 90.2015 207.671 83.9581 206.172C77.0187 204.23 69.6992 202.509 63.4783 197.979C62.8786 197.526 62.2712 197.105 61.7157 196.611C60.9052 195.884 60.0448 195.076 60.7509 193.846C61.4569 192.617 62.6085 192.925 63.6304 193.271C65.1682 193.77 66.6758 194.359 68.1455 195.033C75.3148 198.166 82.8477 200.389 90.5689 201.652C94.7903 202.527 99.0668 203.11 103.368 203.398C105.649 203.526 106.837 204.774 106.685 206.429C106.534 208.083 105.27 208.973 102.945 208.956L102.978 208.964ZM109.383 171.827C101.91 170.535 95.1955 165.611 88.5863 160.608C88.3492 160.34 88.055 160.128 87.7253 159.988C87.3957 159.848 87.0389 159.784 86.6811 159.8C86.3233 159.816 85.9737 159.912 85.6577 160.08C85.3418 160.249 85.0676 160.486 84.8553 160.774C82.4712 162.968 80.4122 165.464 78.2623 167.834C77.7401 168.452 77.1757 169.032 76.573 169.572C76.1619 169.93 75.6525 170.157 75.1109 170.222C74.5694 170.287 74.0208 170.188 73.5363 169.937C73.0433 169.722 72.6315 169.356 72.3604 168.892C72.0892 168.427 71.9729 167.889 72.0281 167.354C72.0731 166.477 72.2102 165.608 72.4371 164.76C73.9585 158.906 73.6181 152.723 71.463 147.071C71.2348 146.361 70.9499 145.673 70.7784 144.942C70.609 144.388 70.6243 143.794 70.822 143.25C71.0198 142.706 71.3892 142.241 71.8745 141.925C72.3203 141.605 72.8603 141.444 73.4083 141.468C73.9562 141.492 74.4803 141.699 74.8967 142.056C78.7564 145.198 83.5382 147.144 86.6598 151.215C86.7331 151.356 86.8361 151.48 86.9616 151.578C87.0872 151.677 87.2324 151.746 87.3874 151.783C87.5424 151.82 87.7035 151.823 87.8598 151.792C88.016 151.761 88.1637 151.696 88.2928 151.603C97.4584 146.745 107.844 144.673 118.172 145.64C122.667 146.035 127.198 146.059 131.333 148.335C136.954 151.395 140.478 158.131 138.79 163.492C138.069 165.946 136.662 168.143 134.735 169.825C132.808 171.506 130.44 172.602 127.911 172.984C122.051 174.197 116.196 173.427 109.383 171.827ZM182.679 126.58C181.354 130.199 179.967 133.785 178.822 137.446C173.602 154.029 167.402 170.286 160.255 186.134C157.784 191.671 155.411 197.231 152.769 202.693C151.886 204.893 150.379 206.785 148.433 208.138C146.487 209.491 144.187 210.244 141.818 210.305C136.778 210.608 131.766 211.229 126.739 211.692C125.804 211.78 124.86 211.763 124.147 211.783C122.384 211.365 121.343 210.445 121.424 208.722C121.506 206.999 122.777 206.369 124.326 206.237C130.027 205.693 135.715 205.06 141.43 204.675C142.784 204.66 144.101 204.236 145.209 203.458C146.317 202.681 147.164 201.587 147.64 200.319C156.213 181.655 164.29 162.752 171.484 143.501C173.265 138.493 175.365 133.604 177.772 128.865C178.488 127.409 179.466 126.098 180.657 124.996C180.945 124.708 181.327 124.533 181.734 124.506C182.14 124.479 182.543 124.6 182.866 124.848C183.745 125.505 182.872 126.057 182.679 126.58ZM192.344 107.675C191.418 108.374 190.27 108.714 189.112 108.629C187.955 108.545 186.868 108.042 186.053 107.216C176.998 100.494 166.904 95.2992 156.17 91.8384C135.963 84.6434 114.468 81.7777 93.0815 83.4276C86.5414 83.7834 80.0866 85.0798 73.9163 87.2769C73.4787 87.449 72.9898 87.7641 72.5791 87.4596C70.3865 85.8693 68.165 84.2549 67.4318 81.4587C67.3035 80.7493 67.4181 80.0174 67.757 79.3811C68.0959 78.7448 68.6394 78.2413 69.2997 77.952C72.1132 76.2132 75.2555 75.0743 78.5297 74.6066C89.5013 72.5719 100.542 72.9342 111.514 73.7288C114.417 73.6383 117.313 74.0405 120.081 74.9182C126.529 75.8802 133.181 76.9252 139.751 78.3132C153.511 80.9705 166.929 85.1641 179.753 90.8151C184.062 92.7185 188.12 95.1424 191.839 98.0326C192.472 98.5344 193.069 99.0796 193.626 99.6644C196.839 102.912 196.954 104.681 192.327 107.602L192.344 107.675ZM198.218 95.9422C198.022 95.8957 197.833 96.0404 197.779 95.9759C190.403 88.7557 181.132 84.8634 171.699 81.3638C155.664 75.2956 138.913 71.3175 121.862 69.5276C107.894 68.1252 93.8441 66.6341 79.7814 68.9007C75.8868 69.452 72.0766 70.4885 68.4395 71.986C70.6141 67.8144 73.4651 64.0322 76.8767 60.7932C87.1844 50.8036 99.7346 45.2452 113.649 42.5122C125.319 40.2184 137.332 40.3134 148.964 42.7915C164.456 46.0567 178.243 52.5052 188.676 64.8675C192.173 68.7772 194.846 73.3514 196.535 78.3171C198.225 83.2827 198.897 88.538 198.51 93.769C198.402 94.2262 198.424 94.7145 198.364 95.1833C198.305 95.6522 198.244 95.6895 198.186 95.9345L198.218 95.9422Z" fill="#13D4C6"/>
</g>
<defs>
<clipPath id="clip0_1142_18234">
<rect width="180" height="214" fill="white" transform="translate(50.1602 0.0996094) rotate(13.36)"/>
</clipPath>
</defs>
</svg>
