<svg width="459" height="348" viewBox="0 0 459 348" fill="none" xmlns="http://www.w3.org/2000/svg">
<g clip-path="url(#clip0_1168_10043)">
<path d="M448.06 148.94C442.81 154.44 436.79 159.09 430.89 163.82C422.191 170.696 413.128 177.098 403.74 183C394.57 188.87 385.16 194.35 375.49 199.32C363.06 205.71 350.42 211.68 337.49 217.02C326.79 221.43 315.92 225.36 304.97 229.02C295.24 232.27 285.37 235.17 275.4 237.63C264.27 240.38 253.12 243 241.84 245.05C230.38 247.13 218.84 248.77 207.3 250.05C197.04 251.17 186.78 251.97 176.47 252.12H149.38C138.113 251.915 126.869 251.024 115.71 249.45C106.296 248.271 96.9499 246.602 87.7099 244.45C72.1299 240.67 56.9899 235.58 42.7099 228.21C35.7615 224.785 29.1607 220.696 22.9999 216C22.4199 215.54 21.7699 214.71 20.8899 215.12C20.0099 215.53 20.3099 216.55 20.2799 217.32C20.1899 218.678 20.1899 220.041 20.2799 221.4C20.8899 228.03 21.7999 234.52 28.1899 238.49C29.6399 239.39 28.7699 240.65 27.9999 241.04C25.9399 242.11 24.9099 244.04 23.7199 245.76C21.1099 249.48 20.0299 253.57 21.7199 258.18C23.8919 264.046 27.5023 269.272 32.2199 273.38C33.8499 274.81 34.2199 276.01 33.2199 278.04C31.3899 282.04 30.0999 286.26 31.2199 290.67C32.8799 297.04 37.7099 300.07 43.6999 301.58C45.6999 302.08 46.8099 302.99 47.0299 305.17C48.0299 315.55 53.5099 322.88 62.7199 327.57C71.6735 332.05 81.0538 335.621 90.7199 338.23C104.42 342.03 118.45 343.93 132.49 345.71C138.98 346.53 145.57 346.59 152.12 346.99C156.18 347.94 160.28 347.24 164.36 347.38C169.453 347.12 174.557 347.12 179.65 347.38C183.36 347.26 187.1 347.9 190.79 347.01L211.31 345.74C212.31 345.74 213.31 346.11 214.24 345.38C217.73 344.98 221.24 344.51 224.72 344.18C237.63 343 250.33 341 263 338.6C281.435 335.156 299.661 330.672 317.59 325.17C334.83 319.985 351.699 313.637 368.08 306.17C384.08 298.75 399.37 290.22 413.53 279.63C418.08 276.22 421.3 271.63 425.72 268.14C429.56 265.14 432.81 261.5 433.16 256.14C433.231 255.498 433.448 254.882 433.795 254.337C434.142 253.793 434.609 253.335 435.16 253C436.572 252.023 437.787 250.788 438.74 249.36C442.99 243.89 443.99 235.05 439.25 230.21C437.76 228.68 438.25 226.93 439.39 225.3C441.416 222.473 443.168 219.46 444.62 216.3C446.05 213.19 445.95 210.3 443.47 207.87C441.54 206 442.04 204.42 443.47 202.73C445.404 200.698 446.943 198.324 448.01 195.73C449.64 191.12 449.57 187.56 445.31 184.73C443.86 183.73 444.2 182.67 444.81 181.73C449.38 174.93 448.4 168.17 444.88 161.37C443.22 158.16 443.62 156.51 446.56 154.48C448.176 153.474 449.516 152.083 450.46 150.43C450.93 149.52 452.09 148.27 451.18 147.6C450 146.81 448.9 148.05 448.06 148.94ZM46.2199 258.4C43.9399 256.72 41.8899 254.79 42.0599 251.55C42.0979 250.557 42.5039 249.614 43.199 248.904C43.894 248.194 44.8283 247.769 45.8199 247.71C46.9099 247.71 48.0599 247.96 47.5299 249.37C46.7899 251.37 48.1699 252.02 49.3699 252.73C54.053 255.469 59.2995 257.104 64.7099 257.51C66.5999 257.68 68.4899 257.85 70.3799 258.06C70.9657 258.065 71.5348 258.255 72.0055 258.603C72.4763 258.952 72.8244 259.441 72.9999 260C73.2899 261.2 72.4099 262 71.5599 262.72C69.7099 264.22 67.4499 264.42 65.3599 264.61C58.3999 264 51.8499 262.55 46.2199 258.4ZM100.76 291.1C98.5199 294.47 94.9199 294.74 91.4099 295.1C89.5199 295.29 87.5999 295.1 84.8399 295.1C79.6977 295.445 74.5407 294.696 69.7099 292.9C67.7381 292.199 65.9645 291.033 64.5399 289.5C64.0389 288.917 63.669 288.233 63.455 287.494C63.2411 286.756 63.1882 285.98 63.2999 285.22C63.3369 284.812 63.4789 284.421 63.712 284.084C63.9451 283.748 64.2613 283.478 64.6299 283.3C65.5199 282.78 66.1999 283.3 66.7599 283.94C69.7599 287.29 73.9099 288.19 78.0399 288.47C84.8799 288.95 91.7799 289.47 98.5499 287.47C99.0228 287.283 99.5458 287.267 100.029 287.424C100.513 287.581 100.927 287.901 101.2 288.33C101.89 289.44 101.31 290.27 100.76 291.1ZM127.53 321.71C124.755 323.419 121.559 324.323 118.3 324.32C114.617 324.089 110.993 323.283 107.56 321.93C106.72 321.602 105.931 321.154 105.22 320.6C104.868 320.385 104.601 320.057 104.461 319.67C104.321 319.283 104.317 318.859 104.45 318.47C104.81 317.54 105.56 317.47 106.45 317.47C108.92 317.42 111.24 318.24 113.63 318.63C117.442 319.39 121.367 319.39 125.18 318.63C125.62 318.534 126.069 318.487 126.52 318.49C127.43 318.49 128.43 318.49 128.74 319.58C129.05 320.67 128.33 321.24 127.53 321.71ZM145.93 288.58C140.65 288.8 136.32 286.76 132.41 283.65C131.726 283.058 131.139 282.363 130.67 281.59C130.14 280.79 129.5 279.91 130.4 278.91C130.76 278.498 131.26 278.234 131.803 278.17C132.346 278.105 132.893 278.244 133.34 278.56C134.77 279.3 136.15 280.17 137.63 280.82C141.946 282.745 146.767 283.229 151.38 282.2C151.732 282.121 152.09 282.068 152.45 282.04C153.85 281.94 155.39 281.94 155.87 283.52C156.3 284.94 155.06 285.8 154.04 286.52C151.59 288.38 148.74 288.66 145.93 288.58ZM201.86 317.66C199.5 322.34 194.98 323.51 190.47 324.49C186.61 325.379 182.644 325.716 178.69 325.49C170.51 325.91 162.94 323.65 155.49 320.77C154.37 320.34 154.29 319.57 154.26 318.65C154.228 318.193 154.354 317.74 154.616 317.365C154.878 316.99 155.261 316.717 155.7 316.59C156.834 316.268 158.039 316.292 159.16 316.66C169.64 319.27 180.16 320.04 190.79 317.47C193.402 316.785 195.887 315.684 198.15 314.21C199.3 313.5 200.61 312.96 201.66 313.9C202.71 314.84 202.52 316.34 201.86 317.66ZM242.64 286.66C238.56 290.07 233.64 291.57 228.53 292.34C225.84 292.74 223.09 292.68 220.37 292.82C213.753 292.873 207.173 291.826 200.9 289.72C198.568 288.974 196.433 287.717 194.65 286.04C193.57 284.97 193.12 283.68 193.91 282.36C194.7 281.04 196.05 281.55 197.29 281.97C208.668 286.057 221.006 286.663 232.73 283.71C235.01 283.13 237.03 281.89 239.19 280.99C240.98 280.25 243.24 278.99 244.62 281.11C246.12 283.37 244.35 285.23 242.64 286.67V286.66ZM287.79 294.58C287.104 295.656 286.158 296.543 285.04 297.16C278.05 300.892 270.395 303.216 262.51 304C260.87 303.49 258.7 304.68 258.35 303C258.03 301.5 260.35 301.16 261.52 300.65C269.28 297.33 277.11 294.16 284.93 290.98C285.93 290.57 287.03 290.31 287.93 291.36C288.83 292.41 288.45 293.55 287.79 294.59V294.58ZM328.64 253C328.368 253.003 328.096 252.976 327.83 252.92C326.36 252.44 324.19 252.7 324.01 250.59C323.81 248.31 326.01 248.31 327.47 248.02C334.59 246.62 341.4 244.39 347.47 240.42C349.47 239.14 351.23 237.58 353.07 236.12C353.756 235.398 354.628 234.879 355.59 234.62C356.95 234.44 358.4 234.38 359.2 235.82C360 237.26 359.49 238.35 358.48 239.49C353.83 244.69 347.98 247.99 341.54 250.34C337.36 251.731 333.03 252.624 328.64 253ZM371.37 277.54C369.321 279.983 366.818 282.007 364 283.5C358.981 286.495 353.606 288.847 348 290.5C347.495 290.635 346.98 290.728 346.46 290.78C344.89 290.78 343.7 291.01 343.35 289.78C343 288.55 344.03 287.78 344.99 287.29C348.82 285.29 352.69 283.41 356.55 281.49C359.775 279.868 362.851 277.964 365.74 275.8C367.19 274.73 368.62 273.61 369.17 271.74C369.245 271.286 369.484 270.876 369.842 270.586C370.199 270.297 370.65 270.149 371.11 270.17C372.11 270.27 372.6 271.17 372.83 272.07C373.046 273.038 373.026 274.044 372.772 275.003C372.518 275.962 372.037 276.845 371.37 277.58V277.54ZM405.37 208.8C406.69 207.835 408.206 207.173 409.81 206.86C414.332 205.694 418.229 202.828 420.69 198.86C421.272 197.945 421.913 197.07 422.61 196.24C423.2 195.6 423.95 194.83 424.94 195.65C425.314 195.904 425.584 196.284 425.701 196.721C425.819 197.158 425.776 197.622 425.58 198.03C423.27 204.39 419.38 209.25 412.8 211.45C410.896 212.256 408.865 212.72 406.8 212.82C405.74 212.82 404.48 213.13 404.02 211.75C403.56 210.37 404.44 209.59 405.37 208.84V208.8ZM427.52 229.07C425.1 235.5 422.52 241.87 417.29 246.62C415.21 248.5 412.87 250.1 409.7 249.89C408.679 250.021 407.642 249.877 406.695 249.475C405.747 249.073 404.924 248.425 404.31 247.6C403.08 246 403.64 244.4 405.65 244.45C411.2 244.56 414.41 241.18 417.23 237.14C419.04 234.55 420.71 231.87 422.51 229.28C423.091 228.476 423.762 227.741 424.51 227.09C424.807 226.742 425.214 226.507 425.664 226.423C426.113 226.34 426.578 226.413 426.98 226.63C427.367 226.898 427.638 227.303 427.739 227.763C427.839 228.224 427.761 228.705 427.52 229.11V229.07Z" fill="#EDEEF7" fill-opacity="0.08"/>
<path d="M457.36 78.1397C455.882 69.7047 452.458 61.7305 447.36 54.8497C445.22 51.8497 443.11 51.0897 439.91 52.0797C437.74 52.7497 437.26 54.1397 438.77 55.8397C442.331 60.0016 445.201 64.7081 447.27 69.7797C448.44 72.5097 450 75.3597 448.99 79.0697C444.732 74.0118 440.048 69.328 434.99 65.0697C430.11 60.8697 424.86 59.1797 418.6 60.5297C418.54 61.3297 419.09 61.5297 419.53 61.7997C423.39 64.3697 427.26 66.9197 431.09 69.5497C432.17 70.2897 433.7 71.0097 433.46 72.5497C432.94 75.9597 432.18 79.3497 429.84 82.0797C428.67 83.4597 427.55 83.6297 425.71 82.7197C419.96 79.8797 414.5 76.2797 408.05 75.0997C404.16 74.3897 400.1 74.2697 396.41 73.0297C394.21 72.2897 393.49 72.8197 392.84 74.4297C392.01 76.4297 393.05 77.3397 395.03 77.6397C399.45 78.2897 403.86 78.9797 408.25 79.7497C412.96 80.5797 416.7 83.5097 421.5 85.3997C418.586 87.0239 415.383 88.0634 412.07 88.4597C408.65 89.0297 405.58 89.9697 403.25 92.8597C401.697 94.573 399.933 96.0818 398 97.3497C394.58 99.8897 390.76 102.35 389.61 106.8C388.32 111.71 386.69 116.66 388.12 121.89C388.53 123.37 388.59 124.95 387.29 126.1C377.97 134.33 370.92 144.28 365.17 155.2C364.216 157.089 362.676 158.619 360.78 159.56C351.66 164.35 342.18 168.33 332.68 172.22C317.68 178.38 302.37 183.93 286.8 188.65C274.8 192.28 262.71 195.46 250.52 198.29C241.05 200.49 231.47 202.08 221.87 203.49C217.783 204.254 213.637 204.656 209.48 204.69C208.77 204.69 207.9 204.91 207.53 204.11C207.23 203.49 207.76 202.9 208.14 202.45C211.587 198.383 215.06 194.333 218.56 190.3C219.025 189.814 219.584 189.427 220.203 189.163C220.821 188.898 221.487 188.761 222.16 188.76C224.42 188.54 226.68 189.04 228.94 188.5C235.3 186.99 241.18 183.99 247.55 182.58C249.77 182.09 250.1 180.51 250.18 178.77C250.228 175.797 249.813 172.835 248.95 169.99C244.85 155.04 236.428 141.633 224.74 131.45C221.54 128.59 218.02 125.94 213.74 124.9C211.21 124.28 208.49 122.9 205.94 124.69C200.43 128.55 196.1 133.69 191.83 138.78C186.48 145.13 181.67 151.92 178.53 159.78C175.53 167.16 171.48 174 167.93 181.1C166.93 183.01 166.36 185.21 167.18 187.1C168.27 189.61 166.84 190.02 165.18 190.52C164.398 190.746 163.604 190.923 162.8 191.05C156.35 192.15 149.8 192.82 143.48 194.45C138.462 195.812 133.222 196.153 128.07 195.45C126.59 195.24 125.85 194.84 125.98 193.35C126.103 190.378 126.403 187.416 126.88 184.48C128.49 176.82 132.17 169.97 135.76 163.11C136.436 161.848 137.565 160.891 138.92 160.43C151.308 155.533 162.747 148.511 172.72 139.68C182.084 131.533 190.025 121.885 196.22 111.13C201.36 102 206.33 92.7397 207.77 82.1297C207.843 81.5061 208.129 80.9269 208.58 80.4897C211.86 77.2197 215.36 74.2797 219.78 72.6797C227.78 69.7997 236.1 68.7597 244.47 67.8397C248.3 67.4297 252.19 67.1597 255.68 65.1897C256.55 64.6997 257.61 63.7297 256.54 63.3997C254.25 62.6797 252.93 60.7997 250.99 59.6997C244.92 56.2797 238.19 55.2597 231.57 53.7797C230.8 53.6097 230.04 53.7797 229.66 52.6797C228.237 48.2326 227.292 43.6468 226.84 38.9997C226.44 35.1669 225.557 31.4002 224.21 27.7897C223.47 25.9397 222.79 25.7897 221.59 27.5597C220.479 29.3649 219.728 31.3686 219.38 33.4597C218.3 38.3697 217 43.1297 214 47.2997C212.5 49.3697 210.42 50.8597 209 52.8897C203.67 60.3797 196.24 63.4397 187.32 63.5197H184.17C178.296 63.2993 172.414 63.688 166.62 64.6797C154.457 66.5946 142.633 70.2487 131.51 75.5297C122.49 79.6832 113.854 84.6223 105.7 90.2897C97.5467 96.0099 89.8563 102.363 82.6999 109.29C81.1499 110.79 80.9499 111.64 83.1299 112.84C91.3299 117.34 97.2799 123.99 101.65 132.27C104.842 138.186 106.971 144.617 107.94 151.27C108.58 155.86 109.19 160.58 108.36 165.27C107.93 167.73 108.14 167.98 110.7 167.7C116.892 166.899 123.012 165.608 129 163.84C129.76 163.64 130.77 163.23 131.33 163.84C131.89 164.45 131.33 165.4 130.92 166.06C125.44 174.049 122.255 183.387 121.71 193.06C121.74 193.374 121.693 193.691 121.57 193.983C121.448 194.274 121.256 194.531 121.01 194.73C116.39 197.89 111.81 200.95 105.7 199.88C102.87 199.38 100.09 198.74 97.3399 198.01C90.7899 196.28 84.2699 194.41 77.7699 192.5C76.1899 192.03 75.1099 191.4 75.7099 189.01C77.5299 181.76 82.0399 176.01 85.8099 169.85C86.2099 169.18 86.9099 169.11 87.7099 169.12C90.8799 169.12 94.0599 169.17 97.2299 169.01C100.4 168.85 100.96 168.25 100.92 165.01C100.774 154.896 97.97 144.998 92.7899 136.31C88.9599 129.78 84.0799 124.2 76.8499 121.16C73.2099 119.63 72.8499 119.71 70.3499 122.67C63.5329 130.454 57.8132 139.135 53.3499 148.47C49.4999 156.76 43.7999 164.16 41.5399 173.22C41.0699 175.14 39.9299 175.45 38.1199 174.32C31.1607 169.974 24.69 164.892 18.8199 159.16C16.6799 157.08 14.1699 154.97 15.6899 151.26C16.5824 148.819 17.7606 146.493 19.1999 144.33C26.2307 135.001 34.3705 126.562 43.4399 119.2C58.5299 106.58 75.2099 96.3297 92.7399 87.4797C115.912 75.9068 140.063 66.4064 164.91 59.0897C175.85 55.8164 186.89 52.9564 198.03 50.5097C202.03 49.6397 203.76 47.0697 206.03 43.7997C204.743 43.7901 203.457 43.867 202.18 44.0297C189.84 46.6097 177.62 49.7297 165.53 53.2697C154.28 56.5697 143.17 60.3297 132.17 64.4397C120.81 68.6797 109.71 73.4997 98.7099 78.5297C89.5229 82.8805 80.5706 87.7105 71.8899 92.9997C65.6432 96.713 59.5632 100.713 53.6499 105C47.3333 109.551 41.2553 114.424 35.4399 119.6C34.0899 120.81 32.4399 120.02 31.4399 121.29C27.8999 125.8 24.2599 130.29 20.8899 134.88C17.6299 139.35 13.9899 143.55 11.3499 148.46C11.0699 148.98 10.6699 149.63 9.8999 149.46C9.1299 149.29 9.1599 148.39 9.0799 147.92C8.6899 145.44 8.0199 142.98 8.2499 140.42C8.2499 139.42 8.2499 138.42 8.2499 137.35C8.24577 137.386 8.24577 137.423 8.2499 137.46V137.35C8.2499 129.48 10.5999 122.17 13.9999 115.21C20.9999 100.91 31.7899 89.7097 43.8499 79.6397C53.1793 71.8675 63.2242 64.9968 73.8499 59.1197C95.9299 46.8997 118.59 35.9997 143.22 29.3397C160.48 24.7097 177.7 20.0097 195.28 16.7397C205.17 14.9097 215.11 13.3497 225.1 12.1497C232.28 11.2897 239.45 10.4197 246.67 9.92969C254.52 9.38969 262.35 8.45969 270.23 8.92969C270.964 8.70226 271.736 8.62739 272.5 8.70969L270.23 8.92969C271.59 8.83969 273.01 9.40969 274.3 8.53969H294C294.91 9.29969 296 8.86969 297 8.91969L295.28 8.69969C295.862 8.64233 296.451 8.71754 297 8.91969C304.67 8.42969 312.28 9.34969 319.89 10.0197C330.23 10.9097 340.51 12.2597 350.72 14.1697C359.249 15.6845 367.68 17.7048 375.97 20.2197C377.012 20.5308 378.135 20.4292 379.105 19.9359C380.074 19.4427 380.817 18.5955 381.18 17.5697C381.78 15.5697 380.8 14.0297 378.18 13.2997C374.05 12.1597 369.9 11.0597 365.74 10.0497C348.42 5.86969 330.74 3.79969 313.07 2.30969C311.23 1.42969 309.3 2.04969 307.42 1.93969C302.8 2.27969 298.24 1.28969 293.62 1.33969C285.46 1.42969 277.31 1.33969 269.15 1.39969C268.15 1.39969 267.15 1.01969 266.22 1.77969L260.97 1.93969C258.9 2.02969 256.79 1.43969 254.77 2.31969C252.7 2.53969 250.64 2.87969 248.57 2.95969C238.97 3.32969 229.47 4.59969 219.97 5.85969C209.517 7.25302 199.127 9.01302 188.8 11.1397C174.9 13.9797 161.18 17.4797 147.55 21.3997C141.35 23.1797 135.78 26.4497 129.55 28.0997C122.55 29.9397 115.86 32.7197 109.08 35.2597C102.851 37.551 96.7435 40.1577 90.7799 43.0697C81.2999 47.7597 71.7799 52.3797 62.7799 58.0697C52.0099 64.8797 41.5299 72.0697 32.2799 80.8297C24.2799 88.4697 16.6999 96.4797 11.0499 106.17C4.8699 116.61 0.769898 127.51 1.1399 139.83C1.2399 143.28 2.4199 146.9 1.7099 150.07C-0.000102043 157.73 0.999898 165.4 0.539898 173C-0.179966 175.298 -0.179966 177.761 0.539898 180.06C0.759898 181.75 1.0799 183.44 1.1599 185.14C1.2599 187.14 1.7799 188.6 4.0899 188.86C4.6699 188.93 5.6999 189.03 5.6499 190.04C5.4099 194.37 8.3399 197.29 10.5599 200.36C13.2099 204 16.0699 207.52 20.6699 209.22C23.7671 210.496 26.7093 212.119 29.4399 214.06C37.6961 219.378 46.4835 223.821 55.6599 227.32C64.6402 230.865 73.8433 233.818 83.2099 236.16C95.925 239.318 108.823 241.689 121.83 243.26C129.21 244.18 136.62 244.62 144.03 245.03C147.51 246.03 151.03 245.27 154.56 245.42H168.87C172.21 245.3 175.58 245.97 178.87 245.03C181.56 244.653 184.273 244.459 186.99 244.45C194.72 244.9 202.27 243.31 209.87 242.51C223.347 241.069 236.741 238.939 250 236.13C264.853 233.003 279.55 229.24 294.09 224.84C318.676 217.413 342.585 207.909 365.56 196.43C381.377 188.58 396.604 179.593 411.12 169.54C424.369 160.448 436.878 150.324 448.53 139.26C451.29 136.6 453.42 134 452.53 129.93C452.29 128.79 452.95 127.83 453.22 126.8C454.1 123.47 454.65 120.17 453.76 116.73C453.3 114.92 452.67 114.98 451.17 115.85C448.06 117.64 445.84 120.38 443.17 122.62C436.34 128.36 429.89 134.57 421.87 138.87C417.95 140.96 414.92 144.64 411.29 147.32C406.29 151.06 401.03 154.61 395.81 158.12C389.26 162.53 383.07 167.55 376.06 171.2C369.28 174.72 362.27 177.83 355.23 180.81C347.23 184.21 339.06 187.48 330.83 190.43C315.767 195.824 300.409 200.355 284.83 204C268.606 207.846 252.194 210.85 235.66 213C225.52 214.286 215.357 215.156 205.17 215.61C204.05 215.7 202.85 215.2 201.8 216.01C199.814 215.941 197.825 216.018 195.85 216.24C190.47 217.18 185.09 216.82 179.7 216.71H170.45C168.258 216.975 166.042 216.975 163.85 216.71H156.85C156.22 216.71 155.59 216.81 154.97 216.78C144.45 216.15 133.97 215.16 123.51 213.91C116.83 213.12 110.21 211.91 103.51 211C94.3399 209.74 85.5999 206.41 76.7799 203.57C61.6099 198.65 46.9999 192.6 34.0599 183C29.1499 179.32 24.3099 175.56 20.7799 170.42L21.4099 169.78C24.5599 172.16 27.8099 174.41 30.8299 176.94C34.8299 180.35 39.8899 181.94 44.3499 184.63C49.6088 187.804 55.22 190.355 61.0699 192.23C64.656 193.203 68.1906 194.358 71.6599 195.69C80.9199 199.69 90.8399 201.54 100.25 205.05C107.19 207.64 114.73 208.05 122.01 209.31C126.64 210.12 131.4 210.44 136.08 211.09C142.28 211.95 148.47 211.27 154.67 211.23C160.87 211.19 167.15 212.9 173.49 212.34C175.56 212.16 177.65 212.28 179.73 212.26C180.73 212.2 181.8 212.65 182.73 211.88C185.96 211.49 189.2 211.88 192.45 211.45C200.92 210.4 209.39 209.21 217.97 209.54C219.67 209.44 221.42 210.01 223.07 209.16C226.27 208.71 229.49 208.38 232.67 207.78C244.1 205.63 255.49 203.33 266.77 200.4C286.936 195.127 306.782 188.7 326.21 181.15C338.7 176.33 350.98 171 362.96 164.97C369.4 161.72 376.28 159.31 382.56 155.79C392.42 150.27 402.25 144.65 411.2 137.65C416.28 133.65 422.02 130.5 426.94 126.34C434.87 119.64 443.25 113.43 450.49 105.94C452.78 103.57 456.13 101.94 456.84 98.4097C458.217 91.7377 458.394 84.8735 457.36 78.1397ZM102.09 107.53C101.693 107.916 101.25 108.252 100.77 108.53C99.7699 108.99 98.7699 109.68 97.7699 108.72C96.7699 107.76 96.9699 106.56 97.4799 105.48C98.6667 103.128 100.235 100.989 102.12 99.1497C109.71 91.3497 119.06 86.2997 128.9 81.9897C141.562 76.4862 154.909 72.7155 168.58 70.7797C172.418 70.107 176.317 69.8456 180.21 69.9997C181.76 69.9997 183.85 69.8797 185.92 69.9997C187.056 70.085 188.124 70.575 188.929 71.3805C189.735 72.186 190.225 73.2537 190.31 74.3897C190.392 75.4493 190.109 76.5051 189.506 77.3806C188.904 78.2561 188.019 78.8983 187 79.1997C185.805 79.6367 184.542 79.8536 183.27 79.8397C160.27 80.2797 138.82 86.5397 118.45 96.9397C112.611 99.8358 107.123 103.389 102.09 107.53ZM129.71 136.87C128.36 136.78 127 136.74 125.65 136.58C125.041 136.536 124.449 136.358 123.917 136.059C123.385 135.759 122.926 135.345 122.573 134.847C122.22 134.349 121.982 133.779 121.876 133.177C121.77 132.576 121.799 131.959 121.96 131.37C122.31 129.972 122.587 128.556 122.79 127.13C123.05 124.36 121.9 122.99 119.17 122.92C118.411 122.906 117.664 122.735 116.975 122.416C116.286 122.098 115.671 121.639 115.17 121.07C113.43 119.22 113.32 117.72 115.55 116.77C123.91 113.21 128.84 105.77 135.25 99.9797C139.93 95.7697 143.25 96.1597 145.91 101.98C148.19 106.89 149.91 111.98 150.04 117.51C150.19 129.35 141.54 137.58 129.71 136.87ZM69.9099 134.16C73.2399 134.22 75.9099 137.38 75.9099 141.24C75.9568 141.985 75.8465 142.732 75.5863 143.432C75.3261 144.131 74.9218 144.769 74.3995 145.303C73.8771 145.836 73.2485 146.254 72.5544 146.529C71.8602 146.804 71.116 146.931 70.3699 146.9C66.8499 146.9 64.2499 143.96 64.2999 140.03C64.3199 136.5 66.6199 134.1 69.9099 134.16ZM69.2699 189.46C61.3071 186.553 53.5723 183.057 46.1299 179C45.7978 178.87 45.4955 178.674 45.2413 178.424C44.987 178.173 44.7861 177.874 44.6505 177.545C44.515 177.215 44.4478 176.861 44.4528 176.504C44.4579 176.148 44.5351 175.796 44.6799 175.47C45.8624 170.928 47.627 166.559 49.9299 162.47C50.083 162.092 50.3309 161.76 50.6497 161.506C50.9685 161.252 51.3474 161.084 51.7499 161.02C52.3499 161.23 52.9499 161.42 53.5399 161.66C61.7499 165.11 70.3799 166.9 79.1599 168.05C80.3199 168.2 81.8099 168.05 82.3399 169.05C82.9499 170.21 81.6499 171.13 80.9899 172.05C77.5299 177.1 73.5399 181.85 72.0699 188.05C71.6899 189.73 70.8399 190.05 69.2699 189.46ZM205.44 140.87C207.632 140.856 209.74 141.709 211.306 143.243C212.872 144.777 213.768 146.868 213.8 149.06C213.8 154.15 208.89 159.21 203.99 159.06C199.4 158.95 196.84 155.46 196.9 149.41C196.881 148.283 197.089 147.164 197.511 146.119C197.934 145.075 198.562 144.126 199.359 143.329C200.156 142.532 201.105 141.904 202.15 141.481C203.194 141.059 204.313 140.851 205.44 140.87ZM159.19 199.93C158.94 200.51 158.66 201.07 158.41 201.65C156.18 206.78 155.95 206.81 150.34 206.18C141 205.13 131.62 204.47 122.34 203.02C121.44 202.88 120.34 202.91 120.08 201.96C119.79 200.72 121.08 200.18 121.92 199.96C123.34 199.688 124.785 199.567 126.23 199.6C128.8 199.31 131.23 200.04 133.76 200.44C136.085 200.778 138.457 200.59 140.7 199.89C146.1 198.32 151.7 198.2 157.21 197.07C160.07 196.48 160.38 197.13 159.19 199.93ZM197.88 205.37C188.95 206.54 179.96 206.37 171 206.66C168.63 206.66 166.27 206.72 163.91 206.66C162.08 206.6 160.91 206.02 161.97 203.8C162.92 201.8 163.59 199.61 164.48 197.55C164.68 196.995 165.014 196.497 165.452 196.101C165.889 195.706 166.418 195.423 166.99 195.28C168.228 195.002 169.398 194.478 170.43 193.74C174.59 190.49 179.19 190.06 184.34 190.36C192.493 190.941 200.681 190.807 208.81 189.96C209.7 189.86 211.05 189.36 211.45 190.57C211.73 191.43 210.66 192.11 210.02 192.72C206.55 196.06 203.02 199.38 200.77 203.72C200.469 204.219 200.046 204.632 199.54 204.921C199.034 205.21 198.462 205.364 197.88 205.37ZM433 113.71C414.49 130.15 393.58 142.99 371.69 154.32C370.74 154.81 369.44 156.1 368.61 155.07C367.78 154.04 369.33 153.07 369.91 152.07C373.96 144.965 379.345 138.71 385.77 133.65C395.42 126.26 405.48 119.5 417.04 115.13C423.335 112.778 429.81 110.936 436.4 109.62C435.6 111.74 434.2 112.65 433 113.71ZM450 95.1497C449.384 97.3753 448.021 99.321 446.14 100.66C438.48 106.95 429.08 107.88 420.14 110.42C414.48 112.03 408.63 112.97 403.21 115.62C400.339 116.835 397.601 118.343 395.04 120.12C394.38 120.63 393.59 121.12 392.8 120.54C392.24 120.16 392.25 119.45 392.56 118.41C392.756 115.385 393.16 112.378 393.77 109.41C394.72 105.83 397.77 103.67 400.7 101.75C402.409 100.765 403.948 99.5124 405.26 98.0397C406.9 96.0397 409.41 95.2297 411.84 94.5397C415.28 93.5397 418.84 92.8997 422.24 91.7797C429.75 89.2997 434.06 83.9297 435.61 76.2597C435.71 75.7497 435.52 75.0997 436.2 74.8797C437.14 74.5597 437.75 75.1697 438.32 75.7597C442.233 79.6942 445.584 84.1495 448.28 88.9997C449.34 90.8897 450.79 92.4597 450 95.1497Z" fill="#EDEEF7" fill-opacity="0.08"/>
<path d="M366.08 54.3598C361.27 55.6798 356.3 55.8998 351.45 56.2398C338.31 57.1298 325.74 60.2398 313.16 63.8698C307.85 65.3998 303 69.0898 297 68.0498C296.638 68.0562 296.287 68.1789 296 68.3998C290.61 71.8298 284.27 73.2298 278.82 76.5198C278.632 76.652 278.404 76.7153 278.174 76.6989C277.945 76.6825 277.728 76.5875 277.56 76.4298C277.44 75.9198 277.75 75.6198 278.03 75.2498C283.45 67.9498 289.08 60.7998 294.19 53.2498C300.31 44.2498 309.06 40.5198 319.37 39.3898H324.71C328.91 39.6098 333.15 39.6098 337.32 40.1098C346.45 41.1998 355.57 42.4098 364.65 43.8898C365.779 44.1214 366.949 44.047 368.039 43.6742C369.129 43.3014 370.1 42.6439 370.85 41.7698C371.46 41.1598 372.58 40.7098 372.32 39.6698C372.06 38.6298 370.67 38.6698 369.82 38.4698C356.783 36.0856 343.633 34.3734 330.42 33.3398C328.58 32.4298 326.65 33.0698 324.76 32.9598L320.61 32.7998C319.32 31.9298 317.9 32.5098 316.54 32.4098H293.06C291.54 32.4898 289.97 31.9198 288.5 32.7698L284.27 32.9398C282.05 33.0498 279.78 32.4498 277.6 33.3198C275.36 33.4998 273.11 33.7898 270.88 33.9198C259.88 34.5398 248.99 36.1498 238.06 37.4098C235.81 37.6698 235.14 38.1498 235.43 39.4098C235.79 41.0798 235.04 43.8098 238.43 43.2098C239.32 43.0598 240.25 43.1598 241.14 42.9998C247.14 41.8798 253.28 41.4798 259.38 40.9998C260.38 40.9998 261.43 41.3898 262.32 40.6198C276.15 39.4498 289.97 38.2598 304.17 39.0598C303.614 40.018 302.718 40.732 301.66 41.0598C299.23 42.3198 296.53 43.5198 295.18 45.9198C294.345 47.4747 293.025 48.7142 291.42 49.4498C290.512 49.8221 289.647 50.2915 288.84 50.8498C282.361 56.1965 274.96 60.3142 267 62.9998C266.013 63.3005 265.119 63.8476 264.402 64.5893C263.684 65.3311 263.168 66.2432 262.9 67.2398C269.09 66.1951 275.069 64.1482 280.6 61.1798C281.34 60.7898 282.2 59.6798 282.92 60.4798C283.64 61.2798 282.67 62.3798 282.17 63.0898C279.22 67.2898 276.29 71.5198 272.56 75.0898C270.46 77.0898 268.15 78.8798 266.99 81.8398C266.34 83.4898 264.62 84.7798 262.89 85.6998C258.69 87.9298 254.39 90.0098 250.28 92.4298C239.105 99.1518 228.28 106.441 217.85 114.27C217.558 114.48 217.312 114.747 217.124 115.055C216.937 115.362 216.813 115.704 216.76 116.06C216.69 116.85 217.76 117.06 218.33 117.22C224.94 119.22 229.94 123.76 234.66 128.37C239.728 133.318 244.125 138.909 247.74 145C253.45 154.6 257.84 164.67 258.55 176C258.7 178.48 259.67 178.53 261.66 177.77C274.805 172.813 287.589 166.949 299.92 160.22C325.19 146.36 348.71 130.22 368.35 108.83C374.81 101.83 379.17 93.9798 380.65 84.5098C381.93 76.2898 384.65 68.7098 391.18 62.9898C395.03 59.6098 398.81 56.1798 404.03 54.9898C410.31 53.5198 416.49 51.4598 423.09 52.0698C424.15 52.1698 425.09 51.9298 425.3 50.6198C425.51 49.3098 424.42 49.1298 423.63 48.8698C422.2 48.3898 420.68 48.1498 419.23 47.6998C412.15 45.4798 406.83 41.1498 404.36 34.0698C403.198 30.2732 402.687 26.307 402.85 22.3398C402.762 15.953 401.886 9.60153 400.24 3.42978C399.78 1.56978 398.91 -0.0402216 396.71 0.0697784C394.51 0.179778 394.61 2.20978 394.29 3.68978C392.44 12.1598 390.84 20.6898 388.78 29.0898C385.74 41.4298 379.13 50.7898 366.08 54.3598ZM317.48 32.6898C317.417 32.685 317.353 32.685 317.29 32.6898C317.195 32.6794 317.101 32.6593 317.01 32.6298L317.48 32.6898ZM292.34 32.7098H292.11L292.63 32.6398L292.34 32.7098ZM298.69 144.71C293.15 147.8 285.48 145.78 282.61 141.21C282.024 140.243 281.644 139.166 281.494 138.046C281.344 136.925 281.428 135.786 281.74 134.7C282.032 133.753 282.24 132.783 282.36 131.8C282.41 130.38 281.91 129.36 280.14 129.47C278.37 129.58 276.52 129.47 274.71 129.47C274.069 129.523 273.429 129.353 272.898 128.989C272.368 128.624 271.98 128.088 271.8 127.47C271.637 126.889 271.699 126.268 271.973 125.73C272.247 125.193 272.714 124.779 273.28 124.57C280.58 120.91 285.93 115.08 291.34 109.15C297.87 101.98 306.34 103.95 309.34 113.09C310.58 116.84 311.7 120.67 311.58 124.74C311.21 134 306.24 140.34 298.58 144.64L298.69 144.71ZM351.42 72.2498C347.91 73.0598 344.36 73.6598 340.85 74.4798C313.41 80.8698 286.74 89.5498 261.61 102.38C255.36 105.57 249.31 109.67 245.32 115.93C244.444 117.203 243.413 118.362 242.25 119.38C241.35 120.22 240.35 121.09 238.88 120.5C237.25 119.85 237.29 118.5 237.32 116.97C237.251 115.746 237.604 114.535 238.32 113.54C242.01 107.02 247.67 102.6 253.9 98.7398C269.54 89.0398 286.56 82.4898 303.9 76.5998C314.905 72.9247 326.122 69.9192 337.49 67.5998C341.19 66.8098 344.96 66.3398 348.71 65.7898C349.519 65.6746 350.342 65.7256 351.13 65.9398C352.67 66.3598 354 67.0198 354.01 69.0098C354.043 69.7814 353.783 70.5369 353.282 71.1248C352.782 71.7128 352.077 72.0896 351.31 72.1798L351.42 72.2498Z" fill="#EDEEF7" fill-opacity="0.08"/>
<path d="M30.47 110.19C31.84 110.63 32.98 109.77 34.06 108.84C42.82 101.33 51.55 93.77 60.78 86.84C73.64 77.16 87.85 69.6 101.78 61.71C115.54 53.93 130.34 48.41 144.92 42.44C145.8 42.08 147.59 42.19 147.01 40.65C146.57 39.5 145.17 40.21 144.11 40.36C141.94 40.8331 139.808 41.4647 137.73 42.25C125.961 45.6402 114.489 49.988 103.43 55.25C96.14 58.69 89.16 62.84 82 66.7C75.49 70.22 69 73.87 62.89 78C51.58 85.63 41.61 95 31.15 103.73C30.2 104.51 28.76 105.73 29 107.54C28.899 108.084 28.9905 108.646 29.2587 109.129C29.527 109.613 29.9553 109.988 30.47 110.19Z" fill="#EDEEF7" fill-opacity="0.08"/>
<path d="M278.79 16.6299C277.48 16.7199 276.12 16.1899 274.88 17.0099C258.62 18.0699 249.36 20.8299 245.41 25.0999C249.395 24.1142 253.445 23.4125 257.53 22.9999C265.95 21.9999 274.37 21.2299 282.84 20.9999C293.016 20.7982 303.195 21.1119 313.34 21.9399C322.18 22.5699 330.99 23.4499 339.75 24.7899C350 26.3299 360 28.6199 369.37 33.2499C370.483 33.8544 371.745 34.1317 373.01 34.0499C374.01 33.9599 374.74 33.7999 375.18 32.7899C375.395 32.3397 375.449 31.8287 375.33 31.3437C375.212 30.8588 374.929 30.4299 374.53 30.1299C373.658 29.3461 372.725 28.6338 371.74 27.9999C367.61 25.3399 362.79 24.4999 358.21 23.1499C345.26 19.3099 331.85 18.0899 318.45 16.9699C316.81 16.1399 315.07 16.6899 313.38 16.5999C301.863 15.8149 290.305 15.8249 278.79 16.6299Z" fill="#EDEEF7" fill-opacity="0.08"/>
<path d="M208.9 26.9196C207.817 26.9795 206.742 27.1436 205.69 27.4096C201.69 28.4996 197.55 29.2796 193.49 30.2896C187.73 31.7296 182.01 33.3796 176.25 34.8096C173.32 35.5296 171.41 37.6296 168.8 38.6296C168.07 38.9096 167.08 39.1996 167.54 40.2596C167.91 41.1196 168.48 41.9496 169.78 41.3196C170.545 41.0859 171.333 40.9318 172.13 40.8596C184.789 37.932 197.264 34.2589 209.49 29.8596C210.49 29.4696 211.81 29.3196 211.55 27.8596C211.25 26.2196 209.75 27.2596 208.9 26.9196Z" fill="#EDEEF7" fill-opacity="0.08"/>
<path d="M414.83 34.6098C419.83 40.0798 426.78 39.7798 433.29 41.0098C432.39 39.0098 430.64 38.0098 429.11 36.8498C424.337 33.3356 419.306 30.1866 414.06 27.4298C413.06 26.9198 411.67 26.1698 411.94 28.1998C412.205 30.5873 413.216 32.8303 414.83 34.6098Z" fill="#EDEEF7" fill-opacity="0.08"/>
<path d="M133.7 128.09C137.36 127.47 141.38 121.88 141.2 116.38C140.82 114.78 140.27 112.15 139.59 109.55C139.15 107.84 138.18 107.95 137.05 108.99C134.39 111.44 131.74 113.9 129.05 116.28C128.05 117.19 127.88 118.02 128.77 119.04C129.614 119.988 130.259 121.096 130.667 122.299C131.074 123.501 131.235 124.774 131.14 126.04C131.05 127.74 131.91 128.39 133.7 128.09Z" fill="#EDEEF7" fill-opacity="0.08"/>
<path d="M297.13 115.54C294.45 118.36 292.13 121.54 288.95 123.85C287.95 124.6 288.04 125.51 288.53 126.49C289.645 128.775 290.029 131.348 289.63 133.86C289.22 136.99 291.57 138.79 294.47 137.25C298.8 134.95 303.22 130.74 303.2 123.57C303.15 121.99 302.2 119.33 301.52 116.65C300.66 113.47 299.39 113.16 297.13 115.54Z" fill="#EDEEF7" fill-opacity="0.08"/>
</g>
<defs>
<clipPath id="clip0_1168_10043">
<rect width="458.02" height="347.5" fill="white"/>
</clipPath>
</defs>
</svg>
