<svg width="459" height="348" viewBox="0 0 459 348" fill="none" xmlns="http://www.w3.org/2000/svg">
<path d="M1.43326 248.345C3.44298 248.901 3.95899 250.325 3.8911 252.278C3.78246 255.721 3.8911 259.165 3.80962 262.609C3.98615 265.904 3.06277 269.253 4.33921 272.494C4.96385 280.52 5.43912 288.547 5.28975 296.601C5.25201 298.683 5.5313 300.759 6.11808 302.757C6.90568 305.469 8.48086 306.377 11.414 306.621C18.9776 307.245 26.5412 307.123 34.1048 307.38C34.906 308.18 35.938 307.977 36.9021 307.977C50.8253 307.977 64.7394 307.977 78.6445 307.977C79.6086 307.977 80.6407 308.18 81.4418 307.38L117.372 307.177C119.219 307.055 121.147 307.814 122.899 306.662C124.257 306.662 125.615 306.513 126.973 306.513C152.438 306.458 177.904 306.418 203.369 306.391C209.752 306.391 216.147 306.391 222.53 306.391C225.11 306.214 227.758 307.109 230.27 305.848C237.657 305.753 245.03 305.645 252.417 305.577C276.778 305.333 301.135 305.107 325.487 304.899C326.845 304.899 328.203 305.414 329.466 304.384C331.679 304.384 333.892 304.248 336.106 304.248C342.434 304.248 343.208 303.299 341.999 297.049C341.97 296.928 341.947 296.806 341.931 296.682C340.981 289.713 340.003 282.744 339.134 275.748C338.808 273.212 339.949 271.3 342.556 271.056C345.163 270.812 346.331 272.48 346.63 274.812C347.635 282.798 349.115 290.717 349.495 298.771C349.726 303.543 350.378 304.194 355.117 304.194C359.435 304.194 363.753 304.194 368.071 304.194C371.629 304.194 373.938 302.73 374.562 299.164C374.747 297.833 375.324 296.587 376.219 295.584C381.325 289.781 386.362 283.91 391.509 278.148C407.315 260.386 422.646 242.217 437.678 223.818C441.467 219.167 444.305 213.893 447.971 209.188C450.483 205.974 448.922 202.029 449.56 198.476C450.796 195.968 449.913 193.324 450.076 190.761C449.981 192.28 449.886 193.785 449.777 195.29C449.625 193.774 449.726 192.244 450.076 190.761C449.574 185.718 450.551 180.742 450.674 175.725C451.081 159.264 451.393 142.804 451.611 126.344C451.719 119.212 451.678 112.066 451.611 104.935C451.611 102.467 452.059 100.514 454.326 98.9687C455.312 98.3109 455.999 97.2929 456.241 96.134C456.482 94.975 456.258 93.7678 455.616 92.7723C454.696 91.0341 454.326 89.0575 454.557 87.1048C454.869 82.8473 455.223 78.5763 455.548 74.3189C456.567 73.0715 455.983 71.6071 456.037 70.2512C456.866 63.0922 456.418 55.8383 457.545 48.6928C458.984 39.6627 457.232 40.0017 449.098 40.0017C421.94 40.0017 394.782 40.3406 367.623 40.5304C366.265 40.5304 364.812 40.0017 363.549 41.0592L334.055 41.1948L305.376 41.2626C302.81 41.4389 300.162 40.5576 297.65 41.7778L287.547 42.0083C286.866 42.2644 286.142 42.3842 285.415 42.3609C286.121 42.2795 286.773 42.1575 287.547 42.0083L254.156 41.927C253.734 41.8518 253.302 41.8673 252.888 41.9726C252.473 42.0778 252.086 42.2703 251.752 42.5371L212.78 42.7134C211.205 42.7948 209.534 42.1168 208.068 43.2286L166.149 43.4456C161.613 43.6083 157.037 42.6998 152.57 43.9744C145.685 44.1506 138.855 45.1811 131.956 44.8964C128.638 44.7398 125.311 44.8759 122.016 45.3031C120.481 45.5661 118.902 45.4019 117.454 44.8286C114.534 43.6354 112.701 44.6523 111.805 47.7437C111.343 49.5133 111.133 51.3391 111.18 53.1672C111.18 66.9429 111.085 80.7186 111.099 94.4943C111.099 99.2263 111.207 103.321 107.025 107.348C100.398 113.816 95.0618 121.544 89.2091 128.703C82.7454 136.581 76.146 144.404 69.8181 152.349C60.0954 164.647 50.5899 177.108 40.908 189.433C36.033 195.643 30.805 201.636 26.0931 207.913C21.3811 214.191 16.1531 220.469 11.4411 226.896C8.15496 231.492 3.47014 235.6 3.80962 242.108C3.86126 242.414 3.84313 242.728 3.75659 243.025C3.67005 243.323 3.51732 243.598 3.3098 243.828C3.10227 244.059 2.84529 244.24 2.558 244.358C2.27071 244.475 1.96052 244.527 1.65053 244.508C0.441982 244.59 0.292611 245.661 0.048186 246.637C-0.196239 247.613 0.523457 248.088 1.43326 248.345ZM304.371 264.331C296.74 264.331 289.122 265.091 281.477 265.199C259.75 265.506 238.064 266.035 216.419 266.785C200.531 267.328 184.657 267.612 168.77 268.141C159.033 268.48 149.297 268.141 139.561 269.497C130.205 269.497 120.835 269.429 111.465 269.497C90.7617 269.705 70.0489 269.963 49.3271 270.27C47.1194 270.184 44.9241 269.898 42.7683 269.416C41.3289 269.172 40.1883 268.304 40.3648 266.704C40.413 266.018 40.7203 265.376 41.2245 264.908C41.7286 264.44 42.3921 264.18 43.0806 264.182C50.6442 262.962 58.2757 262.935 65.8937 262.677C87.4438 261.945 108.967 260.738 130.517 260.277C142.602 260.006 154.661 259.125 166.746 259.206C190.537 259.355 214.273 257.755 238.078 257.443C252.481 257.272 266.902 257.046 281.341 256.765C287.737 256.63 294.146 256.318 300.542 256.115C301.778 256.115 303.013 256.115 304.249 256.115C306.965 256.115 309.355 256.969 309.423 260.074C309.491 263.179 306.979 264.318 304.371 264.331ZM436.429 149.326C434.433 152.824 432.477 156.376 430.291 159.766C413.996 184.999 397.117 209.852 379.926 234.488C379.142 235.885 378.022 237.064 376.667 237.919C376.092 238.273 375.432 238.467 374.756 238.48C374.08 238.493 373.413 238.324 372.825 237.992C372.236 237.659 371.748 237.175 371.411 236.59C371.074 236.004 370.901 235.34 370.909 234.665C370.733 232.509 372.091 230.922 373.177 229.363C383.244 214.991 393.36 200.655 403.527 186.355C411.606 175.06 419.822 163.902 428.091 152.743C429.687 150.726 431.386 148.793 433.184 146.953C433.495 146.48 433.979 146.149 434.533 146.029C435.087 145.91 435.665 146.013 436.144 146.316C436.571 146.684 436.84 147.203 436.893 147.764C436.946 148.325 436.78 148.884 436.429 149.326ZM332.372 58.4822C332.956 56.6654 333.58 54.9434 335.97 55.0112C338.36 55.079 338.509 57.1806 338.849 58.6992C339.307 61.2337 339.629 63.7909 339.813 66.3599C339.895 67.2005 339.691 68.2039 340.573 68.6784C343.154 70.1021 345.557 68.353 348.042 68.109C349.848 67.9327 350.038 66.509 350.283 64.882C350.69 62.2516 350.5 59.4585 351.641 56.9908C352.292 55.6349 352.998 54.279 354.791 54.3604C356.583 54.4417 357.276 55.7162 357.588 57.2891C357.954 58.7087 358.168 60.1631 358.226 61.6279C358.226 64.2176 358.417 66.3599 361.214 67.7429C361.666 67.9025 362.062 68.1894 362.355 68.5689C362.648 68.9484 362.824 69.4044 362.863 69.8818C362.901 70.3591 362.801 70.8375 362.573 71.2591C362.346 71.6808 362.001 72.0277 361.58 72.2579C359.082 74.0612 358.865 76.3256 358.987 79.0373C359.253 81.1099 359.039 83.2159 358.362 85.193C357.615 86.9827 356.475 88.2301 354.601 88.1759C353.678 88.1292 352.801 87.76 352.123 87.1329C351.446 86.5058 351.01 85.6607 350.894 84.7455C350.365 82.9877 350.122 81.1567 350.174 79.322C350.337 77.4509 349.441 76.773 347.567 76.6781C341.633 76.3391 340.573 77.2476 340.56 83.2812C340.56 85.654 340.736 88.2301 337.545 88.7047C334.354 89.1793 333.254 87.0641 332.372 84.5422C331.77 82.4185 331.523 80.2107 331.638 78.0068C331.638 75.7832 331.638 73.5731 331.638 71.3631C331.937 67.0378 331.027 62.699 332.372 58.4958V58.4822ZM293.196 64.4074C293.997 59.9737 302.104 53.696 306.653 53.818C307.394 53.7266 308.143 53.8941 308.774 54.292C309.406 54.6899 309.879 55.2938 310.115 56.001C310.577 57.6145 309.436 58.3738 308.146 59.0788C305.526 60.516 302.185 62.4414 302.497 65.2752C302.81 68.109 306.897 67.6886 309.382 68.3394C312.849 69.0558 316.227 70.1469 319.458 71.5936C322.54 73.1664 324.971 75.2544 325.256 79.0373C325.395 80.8382 324.974 82.6381 324.051 84.1912C323.127 85.7443 321.746 86.9749 320.096 87.7149C316.555 89.6897 312.627 90.8747 308.584 91.1883C304.54 91.502 300.476 90.9368 296.672 89.5318C294.051 88.5827 292.598 86.82 293.128 83.9049C293.657 80.9898 296.088 81.1931 298.301 81.1931C302.375 81.044 306.612 81.8711 311.107 79.6881C308.255 77.7899 305.471 77.6679 302.959 76.8137C299.989 76.0203 297.264 74.5012 295.029 72.3935C292.843 69.9665 292.693 67.2005 293.196 64.4074ZM251.969 56.7332C260.235 54.3622 268.845 53.4086 277.43 53.9129C278.244 53.9714 279.012 54.3081 279.606 54.8663C280.199 55.4245 280.582 56.17 280.689 56.9772C280.929 57.7422 280.937 58.5608 280.712 59.3304C280.488 60.0999 280.04 60.786 279.426 61.3025C277.729 62.6583 275.353 63.8379 273.696 63.0515C269.622 61.1533 265.657 63.2278 261.692 62.7126C259.818 62.4685 258.351 63.2007 258.664 65.3158C258.922 67.1056 258.84 69.4919 261.828 69.3835C265.142 69.0945 268.474 69.0492 271.795 69.2479C272.652 69.285 273.49 69.5138 274.247 69.9174C275.004 70.3211 275.66 70.8892 276.167 71.58C276.628 72.0832 276.893 72.734 276.915 73.415C276.937 74.0961 276.716 74.7628 276.29 75.2951C276.001 75.8485 275.53 76.2856 274.956 76.5326C274.382 76.7796 273.74 76.8214 273.139 76.651C269.758 75.4985 266.35 76.3934 262.873 76.0408C260.32 75.7832 259.832 77.0171 259.818 79.3085C259.818 86.3862 259.709 86.3184 266.608 84.9625C269.717 84.3523 272.759 83.2676 276.004 83.3219C277.878 83.3219 279.915 83.1727 280.54 85.4777C281.165 87.7827 279.684 89.1928 277.824 90.2097C273.207 92.8266 268.047 93.4774 262.887 93.735C250.666 94.3316 250.163 93.6536 250.163 80.8542C249.674 76.5967 250.951 71.7563 250.951 66.8344C250.951 64.882 251.182 63.1464 249.878 61.2889C248.574 59.4313 249.729 57.2484 251.969 56.6654V56.7332ZM204.279 58.1975C210.891 54.7614 218.515 53.7995 225.775 55.4858C234.126 57.6009 235.756 66.4005 229.224 72.746C226.087 75.7968 226.087 75.7832 230.297 77.4238C233.334 78.4349 236.166 79.9775 238.662 81.9796C240.929 83.9863 241.839 86.6167 240.142 89.2199C238.444 91.8232 235.81 91.3215 233.488 90.1962C227.37 87.3644 221.007 85.0952 214.477 83.4168C211.476 82.5626 209.996 83.2812 210.268 86.6573C210.435 88.6209 210.412 90.5961 210.2 92.5554C209.887 95.1587 208.475 96.8671 205.596 96.7857C202.718 96.7044 201.387 95.0909 201.292 92.352C201.292 90.508 201.292 88.664 201.292 86.0065C201.618 80.922 201.957 75.051 202.419 69.1665C202.65 67.7081 202.466 66.2143 201.889 64.8549C200.3 61.6957 201.455 59.472 204.279 58.1297V58.1975ZM187.4 53.9265C187.956 53.8196 188.527 53.8257 189.081 53.9443C189.634 54.063 190.157 54.2918 190.62 54.617C191.083 54.9423 191.475 55.3574 191.773 55.8375C192.072 56.3175 192.27 56.8527 192.357 57.4111C192.818 60.2313 190.768 61.8448 188.446 62.4549C184.372 63.499 180.298 64.1227 176.225 64.8142C175.25 64.9105 174.301 65.1864 173.427 65.6277C172.341 66.2514 172.409 67.2412 172.531 68.2174C172.653 69.1937 173.631 69.3835 174.514 69.3835H180.801V69.2886C183.014 69.2886 185.255 69.1259 187.455 69.2886C190.17 69.5597 192.275 71.119 192.153 73.9799C192.044 76.5967 190.17 78.0475 187.4 78.1153C183.707 78.1153 180 78.3458 176.32 78.1153C173.454 77.9662 172.246 79.1865 171.906 81.8169C171.842 83.409 171.637 84.9924 171.295 86.5489C170.494 89.1521 168.878 90.6843 166.244 90.3318C165.649 90.2845 165.07 90.1185 164.541 89.8437C164.012 89.5688 163.544 89.1906 163.164 88.7316C162.784 88.2726 162.5 87.742 162.329 87.1714C162.159 86.6008 162.105 86.0018 162.17 85.4099C162.564 80.0678 162.496 74.6443 163.8 69.397C164.037 68.6546 164.068 67.862 163.891 67.1031C163.715 66.3442 163.336 65.647 162.795 65.0853C160.595 62.3736 161.111 60.1093 164.533 58.8076C171.934 56.0688 179.714 55.0248 187.4 53.9265ZM9.18698 240.088C14.7952 237.241 17.5246 231.858 21.1095 227.316C48.7839 192.28 76.7842 157.461 103.427 121.68C106.812 117.16 110.08 112.559 113.231 107.877C114.136 106.417 115.422 105.23 116.95 104.442C118.478 103.654 120.191 103.295 121.908 103.402C150.777 103.402 179.633 103.552 208.489 103.118C230.08 102.779 251.671 102.941 273.234 102.345C300.61 101.572 327.986 102.209 355.348 101.558C382.941 100.894 410.547 100.203 438.181 100.311C440.272 100.311 442.377 100.311 444.468 100.311C445.69 100.311 446.926 100.989 446.803 102.169C446.654 103.687 445.065 103.524 444.156 103.05C441.44 101.586 440.34 103.389 439.023 105.07C423.855 124.324 409.841 144.404 395.732 164.322C379.166 187.792 362.816 211.425 346.48 235.058C345.754 236.237 344.715 237.192 343.478 237.817C342.241 238.441 340.855 238.711 339.474 238.597C309.993 238.597 280.526 238.258 257.51 238.759C233.665 239.776 216.27 239.505 198.888 239.736C162.021 240.21 125.153 240.549 88.3129 241.647C74.0004 242.068 59.7151 241.81 45.4298 242.271C34.7159 242.61 24.0019 243.139 13.2879 243.627C12.1919 243.775 11.0771 243.692 10.0153 243.383C8.56234 242.746 7.218 241.078 9.18698 240.088Z" fill="#EDEEF7" fill-opacity="0.08"/>
<path d="M64.6848 220.712C73.4162 220.604 82.1612 221.268 90.8655 219.587C94.9392 218.814 99.2981 218.231 101.892 223.031C102.734 224.59 104.73 224.726 106.386 225.241C119.382 229.241 132.744 229.241 146.173 229.051C174.405 228.644 202.649 228.888 230.894 228.292C248.737 227.912 266.539 228.292 283.513 221.512C291.43 218.326 299.958 216.74 307.467 212.428C310.278 210.814 311.758 208.889 310.414 205.54C309.626 203.574 310.115 202.272 312.573 202.069C315.873 201.784 319.145 201.093 322.445 200.903C329.832 200.496 333.77 195.479 332.208 188.171C331.037 183.135 328.713 178.438 325.419 174.45C323.382 171.86 323.735 171.019 326.94 170.558C332.628 169.73 338.241 168.447 343.724 166.721C348.602 165.382 353.089 162.9 356.814 159.481C362.028 154.478 362.639 148.932 358.457 143.034C356.207 139.935 353.381 137.297 350.133 135.265C338.916 128.011 326.193 124.987 313.293 122.52C311.391 122.154 309.871 122.221 309.572 124.648C309.426 125.451 309.007 126.179 308.386 126.71C307.765 127.241 306.981 127.543 306.163 127.564C301.832 128.309 298.939 131.035 296.251 134.153C292.014 139.048 289.461 144.865 287.058 150.803C285.93 153.515 284.043 155.766 280.58 154.871C277.959 154.193 276.697 150.912 277.864 147.387C279.303 142.56 281.484 137.986 284.328 133.828C288.035 128.689 292.924 124.825 298.613 120.662C290.113 118.601 282.183 118.818 274.388 118.181C260.035 117.042 245.641 116.473 231.247 115.876C220.031 115.401 208.896 116.947 197.734 117.693C192.574 118.032 187.4 118.289 182.308 119.049C170.657 120.744 159.386 124.147 148.047 127.184C146.019 127.664 144.133 128.613 142.541 129.956C140.948 131.298 139.695 132.996 138.881 134.912C137.143 138.817 135.487 142.763 133.749 146.668C132.241 150.098 129.756 151.603 127.176 150.342C124.392 148.986 124.202 146.532 124.963 143.726C125.604 140.856 126.764 138.127 128.385 135.672C132.459 130.14 131.196 125.665 127.231 120.757C123.265 115.849 120.984 115.537 117.196 120.96C116.775 121.557 116.408 122.208 116.014 122.832C112.375 128.513 108.668 134.153 105.151 139.889C99.9092 148.295 94.2874 156.457 90.363 165.65C89.6298 167.453 88.6792 169.338 90.9877 170.396C93.2961 171.453 95.7947 174.558 98.7957 171.263C101.023 168.796 103.358 166.423 105.585 163.915C106.767 162.559 108.043 161.881 109.768 162.735C114.276 164.959 119.151 166.681 122.749 170.301C125.886 173.446 128.765 173.243 132.676 171.724C140.823 168.552 148.346 163.793 157.349 162.613C170.249 160.945 183.014 158.342 196.145 158.654C206.75 158.898 217.369 158.654 227.975 158.735C231.91 158.728 235.841 159.013 239.734 159.589C250.978 161.379 262.235 163.169 273.397 165.42C288.728 168.511 304.181 171.223 317.76 179.968C320.938 182.029 323.07 184.199 322.893 188.103C322.788 188.958 322.857 189.825 323.097 190.653C324.455 194.137 322.336 194.788 319.661 194.883C316.097 195.07 312.552 195.523 309.056 196.239C307.504 196.6 305.893 196.615 304.334 196.285C302.776 195.955 301.31 195.286 300.039 194.327C294.283 190.288 287.876 187.266 281.096 185.392C276.004 183.86 274.999 184.036 272.718 188.931C270.437 193.825 268.644 199.113 266.662 204.252C265.765 206.625 264.543 208.726 261.678 208.075C258.813 207.425 258.568 204.903 258.962 202.435C259.895 196.759 261.826 191.292 264.665 186.287C266.607 182.788 266.39 182.138 262.384 181.649C247.909 179.914 233.596 177.107 218.931 176.226C205.243 175.372 191.596 175.087 177.922 175.019C170.072 175.08 162.238 175.724 154.484 176.945C144.707 178.3 135.962 183.005 126.823 186.436C122.452 187.921 118.524 190.476 115.398 193.868C112.271 197.26 110.046 201.38 108.926 205.852C108.355 207.872 107.446 209.269 105.164 209.038C102.883 208.808 102.258 207.072 102.204 205.065C102.15 203.598 102.319 202.13 102.707 200.713C103.561 197.777 104.877 194.994 106.604 192.469C107.962 190.327 108.505 189.012 105.246 187.968C102.984 187.074 100.911 185.763 99.1352 184.104C94.7763 180.389 89.5483 178.178 84.6462 175.399C82.1748 174.043 80.5724 174.599 79.7169 177.419C78.6985 180.931 77.4628 184.388 76.5258 187.914C73.7421 198.3 68.6771 207.628 63.3133 216.834C62.2677 218.638 60.9912 220.753 64.6848 220.712ZM242.572 141.272C239.744 142.687 236.765 143.778 233.691 144.526C227.92 145.881 219.352 137.746 219.854 131.848C220.001 130.179 220.737 128.616 221.931 127.439C223.125 126.262 224.699 125.547 226.372 125.421C231.5 124.925 236.675 125.455 241.594 126.981C243.197 127.496 244.786 128.255 245.098 130.302C245.41 132.35 244.256 132.933 242.844 133.57C239.666 133.57 236.475 133.57 233.338 133.57C232.469 133.57 231.098 133.068 230.976 134.533C230.894 135.618 231.872 136.228 232.877 136.445C234.094 136.637 235.34 136.467 236.462 135.956C238.701 134.942 241.183 134.584 243.618 134.926C245.994 137.868 245.79 139.726 242.613 141.272H242.572ZM321.834 146.166C320.012 147.216 317.915 147.689 315.818 147.522C312.057 147.02 309.422 144.2 309.545 140.987C309.667 137.773 313.062 134.207 316.701 133.665C317.438 133.618 318.177 133.618 318.914 133.665C322.757 133.665 325.962 135.699 326.478 138.736C327.035 142.41 324.821 144.621 321.834 146.166ZM282.631 199.344C285.632 199.344 289.013 202.747 288.945 205.689C288.945 208.889 286.433 210.909 282.699 210.841C278.964 210.774 276.778 208.672 276.86 205.282C276.909 203.764 277.519 202.318 278.572 201.222C279.624 200.126 281.046 199.457 282.563 199.344H282.631ZM193.185 195.466C194.991 188.334 200.056 185.446 206.764 188.51C209.179 189.708 211.511 191.067 213.744 192.578C214.539 192.951 215.163 193.613 215.486 194.43C215.809 195.246 215.807 196.155 215.482 196.971C214.653 199.086 212.657 198.774 211.028 198.517C209.116 198.113 207.234 197.583 205.392 196.93C202.676 196.157 201.658 197.039 202.093 199.642C202.907 204.591 205.99 206.801 210.878 206.028C211.857 205.926 212.841 205.885 213.825 205.906C214.505 205.824 215.193 205.983 215.768 206.354C216.344 206.726 216.771 207.287 216.975 207.94C217.221 208.649 217.208 209.422 216.937 210.122C216.666 210.822 216.155 211.404 215.495 211.763C212.147 213.882 208.269 215.014 204.306 215.031C201.59 215.329 199.282 213.757 197.611 210.787C194.787 206.042 191.555 201.608 193.117 195.466H193.185Z" fill="#EDEEF7" fill-opacity="0.08"/>
<path d="M371.412 138.723C372.15 138.763 372.889 138.763 373.626 138.723C382.941 138.031 391.156 135.035 396.52 126.777C399.236 122.479 398.109 118.289 393.804 116.337C388.975 114.312 383.662 113.725 378.506 114.647C373.35 115.568 368.571 117.959 364.745 121.53C361.635 124.54 360.182 128.309 361.812 132.594C363.441 136.879 367.203 138.207 371.412 138.723Z" fill="#EDEEF7" fill-opacity="0.08"/>
<path d="M358.404 171.928C357.182 171.806 355.96 171.643 355.376 171.562C352.923 171.417 350.477 171.94 348.299 173.074C346.12 174.208 344.291 175.911 343.005 178.002C339.325 183.629 341.837 190.11 348.301 191.968C353.325 193.418 360.712 189.92 364.284 184.415C368.425 178.016 365.927 172.714 358.404 171.928Z" fill="#EDEEF7" fill-opacity="0.08"/>
<path d="M335.958 210.435C334.491 210.435 333.025 210.259 331.558 210.11C328.163 209.757 324.225 213.242 324.117 216.36C324.008 219.479 325.855 220.78 329.942 220.78C333.093 221.024 335.673 219.601 338.09 217.974C338.871 217.46 339.461 216.703 339.768 215.821C340.075 214.938 340.082 213.979 339.787 213.093C339.366 211.045 337.832 210.476 335.958 210.435Z" fill="#EDEEF7" fill-opacity="0.08"/>
<path d="M375.011 150.126C372.295 150.492 372.376 152.838 372.295 154.993C372.295 158.478 373.653 160.268 376.504 160.227C379.356 160.186 380.972 158.871 381.189 156.051C381.407 153.895 377.224 149.828 375.011 150.126Z" fill="#EDEEF7" fill-opacity="0.08"/>
<path d="M51.2299 218.15C53.389 218.15 56.2814 214.205 56.4307 210.991C56.4986 209.527 56.2678 208.28 54.3939 208.28C52.1669 208.198 48.9622 212.171 48.9622 215.167C48.8943 217.052 49.6547 218.123 51.2299 218.15Z" fill="#EDEEF7" fill-opacity="0.08"/>
<path d="M138.122 121.652C139.873 121.422 140.05 120.079 139.914 117.897C139.561 116.161 138.868 113.761 135.84 113.449C134.129 113.273 133.124 114.439 133.26 116.161C133.396 117.883 136.655 121.842 138.122 121.652Z" fill="#EDEEF7" fill-opacity="0.08"/>
<path d="M292.314 180.904C294.663 180.904 296.293 180.145 296.388 177.921C296.435 177.522 296.39 177.118 296.257 176.739C296.123 176.36 295.905 176.016 295.617 175.735C295.33 175.453 294.982 175.241 294.601 175.115C294.219 174.989 293.813 174.951 293.414 175.006C291.187 175.087 289.177 176.05 289.137 178.531C289.137 180.443 290.834 181.012 292.314 180.904Z" fill="#EDEEF7" fill-opacity="0.08"/>
<path d="M35.6927 228.143C36.4074 228.223 37.1248 228.017 37.6874 227.57C38.25 227.122 38.6119 226.47 38.6937 225.757C38.7424 225.444 38.719 225.123 38.6252 224.82C38.5315 224.517 38.3698 224.24 38.1526 224.008C37.9353 223.777 37.6681 223.598 37.3713 223.485C37.0745 223.372 36.7559 223.329 36.4395 223.357C34.973 223.357 33.425 223.75 33.2756 225.635C33.22 225.969 33.2432 226.31 33.3435 226.633C33.4438 226.957 33.6183 227.252 33.8531 227.495C34.0879 227.739 34.3766 227.925 34.696 228.037C35.0154 228.15 35.3567 228.186 35.6927 228.143Z" fill="#EDEEF7" fill-opacity="0.08"/>
<path d="M214.274 69.4245C215.632 68.8685 217.057 68.5567 218.347 67.9466C219.637 67.3364 222.34 66.9025 222.014 65.0043C221.62 62.862 219.108 63.4993 216.894 63.2959C215.903 63.4315 214.464 63.7433 213.011 63.8111C209.82 63.9467 209.969 66.1432 210.295 68.2177C210.838 70.8617 212.59 70.116 214.274 69.4245Z" fill="#EDEEF7" fill-opacity="0.08"/>
</svg>
