<svg width="199" height="80" viewBox="0 0 199 80" fill="none" xmlns="http://www.w3.org/2000/svg">
<g clip-path="url(#clip0_1173_10106)">
<path d="M162.404 24.7932C162.201 24.0597 161.248 24.4851 160.625 24.3592C160.586 24.357 160.547 24.357 160.508 24.3592C156.25 23.7751 151.959 23.4677 147.662 23.439C145.693 23.439 145.589 23.3522 145.104 21.3642C144.541 19.0638 144.273 16.7069 143.831 14.3847C143.122 10.6649 142.191 7.00581 142.511 3.15578C142.555 2.45022 142.451 1.74326 142.204 1.08101C142.131 0.79182 141.97 0.532537 141.744 0.338946C141.517 0.145356 141.236 0.0270026 140.94 0.000221861C140.265 -0.0518643 139.594 0.000221866 139.209 0.699045C138.933 1.16885 138.521 1.54293 138.027 1.77115C134.652 3.54568 131.155 5.07459 127.562 6.34605C121.979 8.28248 116.221 9.66646 110.37 10.4782C104.492 11.3463 98.6834 12.6007 92.81 13.5687C89.9014 14.0505 86.9625 14.3717 84.1189 15.1747C82.0543 15.7563 80.007 16.416 77.9771 17.1279C75.6182 17.9482 73.216 18.621 70.935 19.6844C68.2764 20.9355 65.7454 22.443 63.3779 24.1856C60.8444 25.9963 58.4552 28.0019 56.2319 30.1842C55.072 31.3474 54.0678 32.8839 52.5919 33.4656C47.8741 35.3233 43.0697 36.9727 38.2524 38.557C35.465 39.4685 33.2749 40.7707 32.9892 44.013C32.8474 44.2199 32.7715 44.4651 32.7715 44.7162C32.7715 44.9673 32.8474 45.2124 32.9892 45.4194C33.4567 47.2554 33.5562 49.1696 36.1056 49.7034C38.8367 50.2807 41.3687 51.7261 44.2513 51.7912H45.8788C48.9908 51.661 52.0984 51.7131 55.2105 51.865C55.4168 52.0072 55.6613 52.0834 55.9116 52.0834C56.162 52.0834 56.4065 52.0072 56.6128 51.865C58.2576 51.7999 59.9239 51.6046 61.547 51.865C65.1957 52.5031 68.8747 52.8547 72.5581 53.1672C73.8998 53.3211 75.23 53.5632 76.5401 53.892C79.0851 54.4563 81.5998 55.1942 84.1621 55.6282C86.4345 56.0362 88.7717 55.7411 91.0873 55.867C93.1779 56.301 95.2857 55.9842 97.3849 56.0363C98.2506 56.058 99.1812 56.2793 100.038 55.867C102.163 55.8322 104.284 55.8105 106.405 55.7628C107.067 55.7628 107.764 55.7628 108.279 55.2419C109.651 53.9007 111.041 52.5725 112.352 51.1705C116.144 47.0991 120.364 43.5963 125.402 41.1656C127.085 40.3583 128.773 40.0849 130.548 40.8445C130.959 41.0181 131.414 41.2308 131.379 41.6822C131.349 41.8918 131.265 42.0898 131.134 42.256C131.003 42.4222 130.831 42.5507 130.635 42.6284C130.109 42.8467 129.571 43.0351 129.024 43.1927C123.934 44.9766 119.805 48.2667 115.845 51.7695C112.352 54.86 109.621 58.6536 106.721 62.2866C106.15 62.9984 105.951 63.7667 106.435 64.561C106.645 64.8931 106.949 65.1538 107.31 65.3088C107.67 65.4638 108.068 65.5057 108.452 65.4291C111.049 65.0472 113.711 64.7477 116.174 63.745C119.282 62.4776 122.362 61.1378 125.415 59.7257C127.276 58.8576 129.258 58.1023 130.609 56.4182C133.225 53.0325 135.132 49.1509 136.214 45.007C136.311 44.589 136.512 44.2024 136.798 43.8828C136.953 43.6982 137.16 43.5656 137.392 43.5028C137.624 43.4399 137.87 43.4498 138.096 43.5312C138.328 43.5944 138.531 43.7372 138.668 43.9347C138.806 44.1322 138.87 44.3719 138.85 44.612C138.837 45.4685 138.751 46.3223 138.594 47.1642C138.105 49.0399 137.412 50.8563 136.53 52.5812C136.097 53.4493 136.344 53.7488 137.3 53.6316C138.187 53.5231 139.062 53.2887 139.949 53.1976C142.948 52.9675 145.9 52.4076 148.874 52.0039C149.209 51.9928 149.532 51.8691 149.789 51.6528C150.046 51.4364 150.224 51.1398 150.293 50.8103C151.044 47.1114 152.075 43.4751 153.375 39.9329C155.137 34.8893 157.569 30.2362 161.235 26.2951C161.681 25.8176 162.568 25.3792 162.404 24.7932ZM128.895 48.818C128.666 49.3582 128.35 49.8569 127.96 50.2937C124.653 53.6533 121.281 56.9478 117.728 60.0252C117.328 60.4075 116.814 60.6471 116.265 60.7066C115.226 60.7066 114.672 59.8385 115.083 58.8315C115.388 58.1903 115.832 57.6253 116.382 57.1778C119.654 54.2436 122.939 51.3196 126.237 48.4056C126.672 48.0757 127.136 47.7851 127.622 47.5375C128.012 47.3031 128.419 47.1686 128.808 47.5375C129.198 47.9065 129.124 48.3535 128.895 48.818ZM116.096 32.1938C115.979 32.7928 115.438 32.8232 114.962 32.7364C110.919 32.0202 106.825 32.1244 102.756 32.0549C97.8415 31.9668 92.9261 32.1944 88.0402 32.7364C84.7767 33.1053 81.5046 33.4048 78.2541 33.8692C75.6355 34.2382 73.0299 34.7373 70.4416 35.306C65.0215 36.4145 59.6837 37.8952 54.466 39.7376C50.9038 41.0398 47.4153 42.5242 44.2037 44.5773C43.074 45.2978 42.1565 45.2848 41.6717 44.5773C41.1869 43.8698 41.5505 42.8411 42.6239 42.1162C46.212 39.7593 50.1291 38.1012 54.15 36.6602C58.0032 35.2809 61.9343 34.1316 65.9229 33.2182C69.8183 32.3153 73.7787 31.5514 77.7607 30.9828C82.4958 30.3057 87.2395 29.8022 92.0179 29.5331C94.0565 29.4159 96.0908 29.3551 98.5103 29.277C102.713 29.2963 106.909 29.6315 111.062 30.2796C112.478 30.4967 113.867 30.896 115.261 31.2519C115.68 31.3778 116.217 31.5775 116.096 32.1938ZM130.712 22.9572C125.198 23.1742 118.875 23.3261 112.56 23.7038C106.924 24.0394 101.298 24.5111 95.6796 25.1188C89.2262 25.8219 82.8031 26.7725 76.3886 27.8273C71.4154 28.6476 66.5029 29.6633 61.6033 30.7875C61.2484 30.87 60.7376 31.1955 60.5342 30.7658C60.3308 30.3361 60.8415 30.1104 61.1185 29.863C66.0181 25.5224 71.4717 22.1976 77.7909 20.3355C80.9982 19.3893 84.1448 18.2174 87.4559 17.6748C89.962 17.2668 92.4724 16.8631 94.9957 16.5897C98.4237 16.2164 101.752 15.3136 105.158 14.8535C107.829 14.4802 110.478 13.9854 113.14 13.5513C117.559 12.8348 121.918 11.7858 126.181 10.4131C130.31 9.08492 134.223 7.23152 138.092 5.28263C138.655 5.00049 139.269 4.68798 139.269 5.74706C139.269 9.07624 140.239 12.2578 140.75 15.5045C141.087 17.6748 141.468 19.845 141.949 21.9632C142.204 23.0961 141.654 23.2089 140.836 23.1482C137.733 22.9008 134.608 23.0049 130.712 22.9572ZM139.884 34.2425C139.495 34.9153 139.269 35.6879 138.65 36.2175C138.239 36.569 137.841 36.8251 137.278 36.5126C136.716 36.2001 136.504 35.7661 136.443 34.9414C137.378 32.4325 138.473 29.8065 141.252 28.4306C141.664 28.2341 142.123 28.16 142.575 28.2169C143.028 28.2738 143.455 28.4594 143.805 28.7518C144.61 29.3377 144.494 30.5878 143.537 30.7701C141.498 31.1434 140.763 32.7364 139.884 34.2556V34.2425ZM148.952 32.9404C147.337 33.904 146.705 35.5881 145.796 37.0725C145.693 37.2375 145.593 37.4068 145.476 37.5587C145.325 37.7924 145.099 37.9676 144.836 38.0552C144.572 38.1427 144.286 38.1376 144.026 38.0405C143.451 37.8365 143.381 37.3156 143.442 36.7383C143.428 36.3557 143.529 35.9777 143.732 35.6532C144.584 34.2969 145.548 33.0148 146.614 31.8205C146.788 31.6091 147.003 31.4349 147.245 31.3081C147.488 31.1814 147.753 31.1047 148.025 31.0826C148.281 31.0575 148.538 31.1129 148.761 31.2413C148.984 31.3697 149.161 31.5646 149.268 31.7988C149.37 31.9943 149.395 32.2216 149.336 32.4345C149.277 32.6474 149.14 32.8299 148.952 32.9447V32.9404Z" fill="#2F306A" fill-opacity="0.15"/>
<path d="M30.5401 39.3336C29.6293 39.0145 28.6962 38.7635 27.7484 38.5827C24.5584 38.0271 21.7234 36.8942 19.5896 34.2899C17.4583 31.5725 15.1445 29.0042 12.6644 26.6029C9.42255 23.5905 5.83876 20.9602 2.85226 17.6527C2.66887 17.4236 2.42917 17.2463 2.15673 17.1382C1.88429 17.0301 1.58849 16.995 1.29842 17.0364C0.302924 17.0364 -0.147214 17.7699 -5.31562e-05 18.9332C0.129794 19.8794 0.662169 20.6694 0.95649 21.5375C1.91303 24.3067 2.68779 27.115 4.51431 29.4546C5.83876 31.143 6.67844 33.1136 7.54409 35.0365C8.81227 37.8621 10.5176 40.3015 13.0366 42.1028C15.3696 43.7913 18.0964 44.6377 20.7453 45.6403C21.4161 45.8964 22.0437 46.1916 22.1822 46.9946C22.3207 47.7976 21.7884 48.2967 21.217 48.657C19.4857 49.7204 17.6722 50.6276 16.0231 51.7648C14.6424 52.7067 12.9414 53.4272 12.5605 55.3718C11.9329 58.5143 10.7427 61.4485 9.53076 64.4044C8.03318 67.9679 7.15887 71.7833 5.11594 75.1254C4.63689 75.8926 4.22836 76.7018 3.89537 77.5431C3.72384 77.9455 3.71013 78.3979 3.85699 78.81C4.00385 79.2221 4.30045 79.5633 4.68744 79.7655C5.43623 80.2342 6.13741 79.9347 6.72605 79.466C7.27682 79.0191 7.77361 78.5093 8.20631 77.9468C11.9416 73.1288 15.296 68.0374 19.2693 63.3887C22.7319 59.3303 25.9608 55.0853 30.4795 52.1034C31.1417 51.6693 31.2023 51.2353 30.7478 50.5798C29.739 49.137 29.2214 47.4062 29.2719 45.6447C29.322 43.9189 29.8511 42.2414 30.7998 40.8007C31.1634 40.2364 31.449 39.6418 30.5401 39.3336Z" fill="#2F306A" fill-opacity="0.15"/>
<path d="M197.416 33.4915C192.655 31.2475 187.569 29.8411 182.509 28.4392C178.683 27.3757 174.848 26.3253 170.927 25.6308C169.451 25.3704 168.122 25.3617 167.062 26.6769C166.412 27.417 165.716 28.1157 164.98 28.769C162.538 31.1753 160.484 33.9472 158.89 36.9856C157.624 39.426 156.629 41.9979 155.921 44.6553C155.458 46.2439 155.194 47.8977 154.891 49.291C154.921 50.8926 155.09 51.0272 156.436 50.7147C157.639 50.4412 158.847 50.1504 160.063 49.9334C169.546 48.2362 178.493 44.7248 187.543 41.6083C191.036 40.4016 194.2 38.4397 197.55 36.8945C198.268 36.5603 199.043 36.1132 199 35.2277C198.957 34.3423 198.186 33.8561 197.416 33.4915ZM171.498 37.207C170.061 37.207 169.17 36.1826 169.183 34.5593C169.183 32.6581 170.221 31.4471 171.779 31.4645C173.606 31.4862 174.645 32.389 174.662 33.9646C174.655 34.8103 174.321 35.6203 173.731 36.2248C173.141 36.8292 172.341 37.1812 171.498 37.207Z" fill="#2F306A" fill-opacity="0.15"/>
<path d="M77.5499 56.7789C75.5665 56.2563 73.5371 55.9277 71.4904 55.7979C69.7071 55.6938 67.9153 55.4941 66.145 55.2771C63.4009 54.9429 60.6827 54.409 57.9213 54.4437H55.359L52.6149 54.3743C51.2216 54.0706 49.7795 54.0706 48.3862 54.3743C48.3126 55.1816 49.0181 55.3205 49.4942 55.633C51.4939 56.9352 53.5108 58.2373 55.0906 60.0864C57.2245 62.5908 59.3799 65.0736 62.6002 66.2499C64.5089 66.9487 66.3441 67.0008 67.9802 65.6249C71.209 62.9077 74.3254 60.056 77.7274 57.5428C77.8832 57.4256 78.0866 57.3475 78.0693 57.1088C78.0477 56.7832 77.7707 56.8353 77.5499 56.7789Z" fill="#2F306A" fill-opacity="0.15"/>
</g>
<defs>
<clipPath id="clip0_1173_10106">
<rect width="199" height="80" fill="white"/>
</clipPath>
</defs>
</svg>
