<svg width="133" height="123" viewBox="0 0 133 123" fill="none" xmlns="http://www.w3.org/2000/svg">
<g clip-path="url(#clip0_1173_10069)">
<path d="M53.0077 81.8229C54.2311 81.4025 55.3479 80.7249 56.2813 79.8368C56.9937 79.1832 57.562 78.3764 57.2372 77.3139C56.9678 76.4376 55.916 75.8535 54.746 75.8535C53.3029 75.8535 52.2142 76.6531 51.1808 77.5111C50.5792 78.0112 50.1178 78.0916 49.6639 77.3468C49.3576 76.8393 48.9811 76.3756 48.6268 75.8863C48.0437 75.1087 48.1433 74.791 49.0771 74.4515C50.1289 74.0864 51.2214 73.7687 52.0702 72.9911C53.2808 71.8702 53.1221 70.7128 51.6827 69.8804C50.1769 69.0041 48.4423 69.5153 46.7704 70.7603C45.3568 71.8045 45.4159 71.8848 44.4969 70.3952C44.3952 70.2262 44.3028 70.0519 44.2201 69.8731C43.3239 68.0694 41.9694 66.527 40.2895 65.3969C38.3814 64.0278 36.2814 62.9361 34.4692 61.4501C33.5465 60.6907 32.5242 60.3073 31.4244 60.552C29.6528 60.9426 27.8407 61.2822 26.1762 62.0124C24.2791 62.8594 22.419 63.7783 20.5958 64.7689C19.4886 65.3713 18.3814 66.0139 17.5214 66.9778C15.9492 68.7705 14.4951 70.6288 13.923 73.0349C13.7283 73.6953 13.4979 74.3449 13.2328 74.9809C12.5574 76.8539 11.6975 78.6757 11.679 80.7203C11.7086 81.1511 11.5167 81.6075 11.823 82.0055C11.9079 83.2468 11.9964 84.4882 12.0813 85.7259C12.1035 86.1494 11.9226 86.5912 12.2253 86.9819C12.3102 87.7997 12.3914 88.6212 12.4799 89.439C13.0225 94.4446 15.3476 98.6579 18.5512 102.422C20.3102 104.471 22.5333 106.079 25.0394 107.117C26.6351 107.821 28.3535 108.211 30.0994 108.267C33.1248 108.329 36.1381 107.87 39.0051 106.913C44.3677 105.146 48.4902 102.123 50.3393 96.606C50.4899 96.2769 50.6133 95.9362 50.7084 95.5874C51.1476 92.9148 51.6864 90.2532 52.0149 87.5551C52.1773 86.2151 52.6128 84.846 52.1256 83.4586C51.8266 82.6481 52.1736 82.1004 53.0077 81.8229ZM22.1016 84.532C22.0536 86.2407 21.131 87.5149 19.6288 88.3473C19.2857 88.5677 18.8714 88.6524 18.4681 88.5848C18.0648 88.5172 17.7019 88.3021 17.4513 87.9822C17.3148 87.8434 17.2089 87.678 17.1405 87.4964C17.0722 87.3149 17.0428 87.1213 17.0543 86.9279C17.0657 86.7345 17.1178 86.5456 17.2071 86.3733C17.2964 86.2009 17.4211 86.0488 17.5731 85.9267C18.4146 85.1271 18.5179 84.1998 18.5253 83.1373C18.5512 80.2603 18.5807 77.3577 19.4591 74.5902C20.8136 70.3295 23.7255 67.5437 28.0806 66.2731C30.9557 65.4298 33.7864 65.3786 36.5692 66.5397C37.1801 66.813 37.7202 67.22 38.1489 67.7299C38.3666 67.9745 38.6508 68.2009 38.4663 68.5879C38.2817 68.9749 37.8647 68.953 37.5214 69.0808C36.4939 68.7878 35.4344 68.6187 34.3659 68.577C30.9889 68.4163 27.9477 69.3072 25.3679 71.4795C23.6111 72.9399 22.7623 74.9553 22.5076 77.1971C22.2566 79.6323 22.1754 82.0822 22.1016 84.532ZM49.472 87.9275C48.8778 90.5088 49.472 93.2982 48.0547 95.7407C46.811 97.8583 45.3605 99.7569 43.0649 100.852C42.3612 101.156 41.6142 101.351 40.8505 101.429C39.377 101.714 37.8844 101.893 36.3847 101.962C34.1481 101.962 32.1514 101.173 30.2064 100.206C29.5532 99.881 28.9221 99.5049 28.2614 99.1909C27.3498 98.7565 26.4456 98.4607 25.3864 98.8551C24.6482 99.1289 23.792 99.0157 23.4192 98.1577C23.0464 97.2997 23.4192 96.6097 24.1574 96.1241C24.7502 95.7428 25.424 95.5022 26.1264 95.4211C26.8287 95.3401 27.5405 95.4207 28.2061 95.6567C29.2508 96.002 30.2535 96.4612 31.1955 97.0259C33.6794 98.406 36.2481 98.8149 39.1454 98.5557C42.9246 98.2161 45.641 95.0069 46.0618 91.1623C46.1658 89.8821 46.4273 88.6193 46.8405 87.4017C47.0129 86.8712 47.2819 86.3763 47.634 85.9413C47.776 85.7743 47.9685 85.6568 48.1832 85.6062C48.3978 85.5556 48.6232 85.5745 48.8261 85.6602C49.0159 85.7158 49.1825 85.8303 49.3015 85.9867C49.4204 86.1432 49.4854 86.3334 49.4867 86.5291C49.5356 86.994 49.5356 87.4626 49.4867 87.9275H49.472Z" fill="#2F306A" fill-opacity="0.15"/>
<path d="M96.5533 51.3622C98.3986 52.1874 99.7347 53.4726 100.207 55.4916C100.207 55.8567 100.207 56.2218 100.207 56.6161C100.223 56.8128 100.211 57.0107 100.17 57.2039C99.7089 58.3942 99.277 59.5844 97.9927 60.2416C97.6236 60.4314 97.0109 60.8586 97.2545 61.4026C97.4981 61.9466 98.1551 61.7458 98.6201 61.6217C100.096 61.2347 101.595 60.8915 103.001 60.1321C105.717 58.6972 107.614 56.7402 108.102 53.6551C108.404 52.1189 108.84 50.6115 109.404 49.1497C109.659 48.3407 109.86 47.5163 110.006 46.6816C110.058 46.4187 110.154 46.039 109.851 45.8674C109.548 45.6958 109.39 46.0427 109.172 46.1741C108.303 46.7612 107.271 47.065 106.219 47.0431C103.924 46.9335 102.159 45.8346 100.82 44.1222C100.178 43.3007 99.4247 42.4172 99.6203 41.2014C99.8971 40.8874 99.7495 40.5186 99.7679 40.1681C100.137 37.5869 101.473 36.6851 104.001 37.3276C105.032 37.6464 105.983 38.1778 106.791 38.8866C107.087 39.113 107.319 39.6168 107.792 39.2517C108.264 38.8866 107.899 38.4996 107.766 38.1564C106.422 34.7756 104.891 31.5006 102.761 28.5067C100.299 25.0492 97.5055 21.9348 93.9882 19.5105C93.4307 19.0969 92.7818 18.8203 92.0949 18.7037C88.5251 18.2457 84.9811 17.6083 81.4767 16.7942C78.6804 16.0495 75.7953 15.681 72.8995 15.6989C71.1944 15.739 69.493 15.8595 67.7879 15.9398C64.9534 16.0713 62.2333 16.8891 59.4542 17.3601C58.7382 17.4842 58.6533 17.8895 59.2143 18.4006C60.1961 19.2915 60.901 20.4087 61.7203 21.42C63.3516 23.4354 65.2154 25.2354 66.8873 27.2142C67.9682 28.4211 68.9309 29.7267 69.7624 31.1136C70.972 33.2364 71.9518 35.4796 72.6854 37.8059C72.8083 38.1635 73.0083 38.4904 73.2714 38.764C73.5346 39.0376 73.8548 39.2514 74.2097 39.3905C74.7804 39.6231 75.2865 39.9874 75.686 40.4529C76.9777 42.0119 77.8377 43.8265 78.8932 45.5279C80.0004 47.3096 80.9489 49.1789 82.3182 50.7963C83.9864 52.746 86.378 53.6259 88.6146 54.7285C89.6701 55.247 89.7033 55.1885 90.161 54.1188C90.8474 52.505 91.748 51.0775 93.7299 50.8328C94.7026 50.7429 95.6813 50.9264 96.5533 51.3622ZM89.0944 47.054C88.8987 47.9266 88.2012 48.2333 86.9242 48.1493C85.0195 47.7521 83.2759 46.8071 81.9122 45.433C79.3287 42.7348 77.4834 39.5584 76.092 36.141C75.2317 33.8873 74.0404 31.7713 72.5563 29.8613C70.6518 27.5246 69.3195 24.7498 66.9242 22.7855C66.4221 22.4035 65.9473 21.9875 65.5033 21.5405C65.1896 21.201 64.6766 20.8103 65.1342 20.2663C65.5328 19.8099 66.0348 20.0034 66.4924 20.2663C67.9872 21.1535 69.5483 22.0188 70.6703 23.3259C73.2538 26.349 76.0587 29.226 77.9484 32.7821C79.1516 35.053 80.0078 37.4919 81.425 39.6716C83.049 42.1689 84.8021 44.418 87.8727 45.2833C88.7216 45.5169 89.3084 46.1084 89.0944 47.054ZM90.6703 24.9141C90.4112 24.7919 90.1796 24.6194 89.9893 24.4067C89.7991 24.1941 89.6541 23.9457 89.5631 23.6764C89.3933 23.0703 89.5631 22.6103 90.3307 22.6651C90.9434 22.7198 91.438 23.0521 92.01 23.2675C94.5147 24.1703 96.575 25.9875 97.7675 28.3461C98.2879 29.3757 98.9264 30.3432 99.4985 31.3472C99.6143 31.5834 99.7129 31.8274 99.7937 32.0774C100.052 32.731 100 33.3407 99.3914 33.7569C98.6976 34.2279 98.0259 33.965 97.4797 33.4685C96.7549 32.7791 96.1885 31.9436 95.8188 31.0186C94.7411 28.4373 93.1578 26.3161 90.6703 24.9141Z" fill="#2F306A" fill-opacity="0.15"/>
<path d="M82.9516 5.54582C78.7213 2.40317 73.6649 0.533438 68.388 0.160535C67.8455 -0.127897 67.2808 0.0656083 66.7088 0.040051C65.0996 0.310228 63.4683 0.35039 61.8555 0.605963C56.05 1.52237 50.178 2.04447 44.4427 3.40996C41.0066 4.2278 37.5927 5.15151 34.0459 5.41439C33.3078 5.46915 32.6693 5.89997 32.6139 6.68495C32.5776 7.02641 32.6588 7.36999 32.8443 7.66017C33.0298 7.95035 33.3088 8.17017 33.6362 8.28411C33.854 8.36808 34.057 8.48126 34.2784 8.55428C37.3749 9.57292 39.8625 11.5445 42.1064 13.7643C44.3504 15.9842 45.6569 18.6896 46.9044 21.4753C47.4725 22.8167 48.1322 24.1182 48.8789 25.371C50.5951 28.1129 52.8981 30.3364 55.2897 32.4942C56.5491 33.5819 57.9953 34.4376 59.5598 35.0207C62.2098 36.0649 65.0332 36.4811 67.827 36.9777C68.1149 37.0288 68.4323 37.12 68.6575 36.8207C68.8826 36.5213 68.6132 36.3241 68.5283 36.0904C67.3552 33.1301 65.5817 30.4387 63.317 28.1823C60.4567 25.2615 58.0688 21.9755 55.5148 18.7991C55.1457 18.3573 54.7471 17.9156 54.7102 17.2693C54.6364 16.0316 55.2712 15.1225 56.8878 14.7757C61.2797 13.83 65.6274 12.7201 70.1743 12.4755C74.0796 12.2678 77.9948 12.6158 81.8001 13.5087C83.6676 13.9359 85.5166 14.4544 87.4432 14.5822C87.923 14.615 88.34 14.6953 88.1813 13.987C87.5022 10.5332 85.8414 7.69264 82.9516 5.54582Z" fill="#2F306A" fill-opacity="0.15"/>
<path d="M84.7221 66.8875C84.5723 66.6644 84.3452 66.5034 84.0836 66.4347C83.9428 66.3246 83.7685 66.2646 83.589 66.2646C83.4095 66.2646 83.2353 66.3246 83.0945 66.4347C82.5206 66.5486 81.9834 66.7993 81.5296 67.165C79.6141 68.5451 78.3076 70.4874 76.8203 72.2472C75.0782 74.3064 73.8123 76.6832 73.4728 79.396C73.2127 81.3997 72.5728 83.337 71.5868 85.1062C70.6715 86.782 69.4757 88.027 67.4791 88.4688C67.1655 88.5695 66.8269 88.5634 66.5172 88.4516C66.2075 88.3397 65.9445 88.1286 65.7703 87.8518C65.3274 87.2713 65.4971 86.6725 65.94 86.1431C66.498 85.5307 67.1794 85.0406 67.9404 84.7046C69.3576 83.9744 69.9518 82.576 70.0404 81.2397C70.0656 79.9748 70.2365 78.7168 70.5497 77.4901C71.0554 75.796 69.9186 74.5912 68.1618 74.8906C65.8662 75.2849 63.9618 76.4934 62.2235 77.9173C60.4851 79.3412 59.4185 81.2908 58.5623 83.3683C58.0308 84.6571 58.1415 85.7378 59.0421 86.7674C59.3707 87.1279 59.6341 87.5416 59.8208 87.9905C60.8247 90.4915 60.3597 93.0837 60.2822 95.6358C60.26 96.3843 60.3301 96.9575 60.8247 97.4942C62.6488 99.5028 65.2039 100.713 67.9293 100.86C71.0775 101.079 74.2035 100.86 77.0897 99.4986C81.0978 97.611 83.7662 94.4346 85.881 90.6558C87.8149 87.2019 88.0954 83.3792 88.7708 79.626C89.0291 78.787 89.0291 77.891 88.7708 77.052C88.3464 73.2951 86.5564 70.0785 84.7221 66.8875Z" fill="#2F306A" fill-opacity="0.15"/>
<path d="M53.2656 58.0992C53.7467 57.8142 54.312 57.7009 54.8673 57.7779C56.8382 58.0372 58.5138 59.0777 60.289 59.8079C61.7653 60.4067 62.9611 61.513 64.2676 62.4148C66.113 63.6999 68.3938 63.7182 70.575 63.8971C70.8777 63.8971 71.1803 63.8971 71.4793 63.8971C74.1439 63.9774 75.7494 62.8821 76.0299 60.0671C76.2108 58.2781 75.9044 56.5183 75.4763 54.7585C74.9559 52.619 73.8671 50.7862 72.7156 48.9607C71.8373 47.566 70.3757 46.8613 69.0803 45.9668C65.5953 43.5355 61.4691 42.1626 57.2073 42.0164C54.5911 41.9614 51.9992 42.522 49.645 43.652C47.1316 44.7875 44.4337 45.7222 42.688 48.0881C41.6472 49.4937 40.5141 50.8154 40.1746 52.6263C40.0233 53.4368 40.1746 53.9188 40.8648 54.3387C42.902 55.5398 45.0463 56.5913 46.5079 58.5739C47.5708 60.016 48.6854 61.3998 49.1246 63.1888C49.2353 63.6379 49.2464 64.16 49.6782 64.4886C51.4165 65.8102 53.2434 66.9348 55.3988 67.5007C56.7385 67.8658 58.0635 68.0374 59.4143 67.6613C61.0235 67.2159 61.9018 65.4707 60.5031 64.0796C58.7315 62.3162 56.7312 61.0274 54.1144 60.8923C53.7628 60.8926 53.4199 60.7835 53.1344 60.5804C52.8489 60.3772 52.6353 60.0904 52.5237 59.7604C52.2801 59.0302 52.6492 58.4497 53.2656 58.0992Z" fill="#2F306A" fill-opacity="0.15"/>
<path d="M128.098 77.2048C127.541 75.0141 127.138 72.8052 126.153 70.7424C124.658 67.6135 123.156 64.4955 121.418 61.4907C120.148 59.3 118.067 57.9564 116.169 56.4084C114.915 55.3825 113.675 54.3638 112.084 53.8527C111.493 53.6592 111.191 53.7651 111.08 54.3675C110.822 55.814 110.266 57.1924 109.445 58.4165C108.906 59.2197 109.102 59.7199 109.781 60.3369C111.741 62.0446 113.57 63.8934 115.254 65.8683C116.396 67.2994 117.722 68.5761 119.2 69.6653C120.301 70.4068 121.285 71.3063 122.119 72.3343C123.699 74.4007 125.751 76.051 127.345 78.1066C127.482 78.2818 127.648 78.4717 127.935 78.3731C128.223 78.2745 128.109 77.9897 128.164 77.7451C128.152 77.5639 128.13 77.3835 128.098 77.2048Z" fill="#2F306A" fill-opacity="0.15"/>
<path d="M113.705 78.1321C110.601 76.7228 107.955 74.6125 105.379 72.4584C104.252 71.5661 103.357 70.4195 102.77 69.1147C102.183 67.8099 101.921 66.3849 102.006 64.9591C102.065 63.6448 102.057 63.6484 100.743 63.8638C100.511 63.8899 100.276 63.9034 100.042 63.904C97.6469 64.0099 97.6026 64.0026 97.2594 66.2808C96.9752 68.1721 97.0638 70.0049 98.4625 71.5602C99.4339 72.6164 100.349 73.7217 101.205 74.8717C103.187 77.5991 105.958 79.1727 109.096 80.1657C111.882 81.0457 114.82 81.1369 117.699 81.513C119.354 81.7585 120.992 82.1073 122.604 82.5572L122.703 82.2833C121.441 81.6006 120.157 80.9434 118.916 80.2205C117.259 79.2749 115.388 78.9134 113.705 78.1321Z" fill="#2F306A" fill-opacity="0.15"/>
<path d="M122.428 76.7735C120.952 75.1963 119.663 73.4693 117.918 72.1513C116.277 70.9588 114.799 69.5624 113.518 67.9964C111.751 65.762 109.802 63.6845 107.942 61.5304C107.676 61.2237 107.348 60.9681 107.001 61.147C106.082 61.6217 105.196 62.162 104.325 62.717C103.956 62.9397 103.989 63.3924 104.055 63.7247C104.609 66.5323 105.591 69.11 108.115 70.8041C110.02 72.071 111.684 73.6701 113.78 74.6778C115.172 75.346 116.615 75.8608 118.036 76.4413C120.176 77.3175 122.177 78.526 124.255 79.5483C124.561 79.698 124.768 80.2493 125.31 79.8586C124.506 78.6976 123.387 77.8031 122.428 76.7735Z" fill="#2F306A" fill-opacity="0.15"/>
<path d="M26.7934 123C27.2664 122.892 27.7075 122.677 28.0815 122.372C29.5198 121.31 31.063 120.395 32.6875 119.641C34.4959 118.874 35.474 117.497 35.9021 115.69C36.1344 114.702 36.3009 113.699 36.4003 112.689C36.6181 110.571 36.607 110.637 34.555 110.933C33.5105 111.083 33.1599 111.524 32.9532 112.525C32.669 113.919 32.7797 115.606 31.2333 116.428C30.2811 116.932 29.3498 117.466 28.4395 118.03C27.2843 118.761 26.1254 119.469 25.5312 120.78C25.0329 121.842 25.6234 123 26.7934 123Z" fill="#2F306A" fill-opacity="0.15"/>
<path d="M48.083 110.685C46.9397 110.08 45.9483 109.23 45.1821 108.195C44.9459 107.859 44.6802 107.509 44.2115 107.852C43.4733 108.399 42.2185 108.279 41.9085 109.447C41.8826 109.55 41.9823 109.692 42.045 109.812C42.6768 110.94 43.5391 111.925 44.5769 112.704C45.6841 113.547 47.1382 114.011 47.6475 115.53C48.072 116.79 48.6071 118.016 49.0832 119.261C49.5187 120.393 50.637 120.747 51.4896 119.973C51.9398 119.518 52.2241 118.927 52.2978 118.294C52.0985 116.654 51.4379 115.227 50.8732 113.77C50.3495 112.443 49.3586 111.347 48.083 110.685Z" fill="#2F306A" fill-opacity="0.15"/>
<path d="M15.0153 66.0581C15.1461 65.908 15.2866 65.7665 15.4361 65.6346C16.3329 64.7364 16.2812 64.5685 15.2626 63.7141C13.6276 62.3486 11.6826 62.1369 9.35745 62.0894C7.48625 61.9434 5.69626 62.8671 4.08341 64.1486C2.85071 65.1271 2.25651 66.5145 1.99816 68.0406C1.93167 68.2646 1.94614 68.5045 2.0391 68.719C2.13205 68.9336 2.29767 69.1094 2.50748 69.2162C2.92453 69.4097 3.24562 69.1213 3.55564 68.8256C4.29378 68.0954 5.03193 67.3652 5.75162 66.635C7.71877 64.7072 11.3504 64.7729 13.3914 66.1749C14.1406 66.697 14.5171 66.7189 15.0153 66.0581Z" fill="#2F306A" fill-opacity="0.15"/>
<path d="M43.7113 65.0247C43.9807 65.2729 44.335 65.4555 44.6008 65.1671C45.195 64.5172 45.7744 63.8308 45.8741 62.8997C45.8852 62.5682 45.798 62.2408 45.6231 61.9578C44.5381 59.9188 42.9078 58.2138 40.9101 57.0289C39.9357 56.4593 39.1607 56.452 38.3266 56.9887C37.7188 57.3458 37.2113 57.8479 36.8503 58.4491C36.1859 59.7416 35.9571 60.0519 36.8798 60.5412C39.3194 61.8154 41.674 63.1845 43.7113 65.0247Z" fill="#2F306A" fill-opacity="0.15"/>
<path d="M52.9703 102.901C50.874 101.923 50.8519 101.974 49.394 103.712C49.3091 103.81 49.1984 103.898 49.1246 104.004C48.822 104.449 48.7777 104.818 49.3571 105.099C50.4422 105.654 51.4793 106.293 52.5828 106.808C53.186 107.08 53.7236 107.477 54.1595 107.971C54.5955 108.465 54.9198 109.046 55.1109 109.674C55.2986 110.189 55.5731 110.669 55.9229 111.094C56.3695 111.678 57.0006 112.054 57.7313 111.788C58.5175 111.499 58.8164 110.776 58.9382 109.907C58.6549 108.792 58.2733 107.704 57.7978 106.654C56.8197 104.632 54.8563 103.788 52.9703 102.901Z" fill="#2F306A" fill-opacity="0.15"/>
<path d="M16.3831 111.301C15.9106 111.239 15.3902 111.126 14.9621 111.495C14.534 111.864 14.224 112.196 14.3384 112.762C14.3926 113.094 14.5345 113.406 14.7497 113.666C14.9648 113.926 15.2456 114.126 15.5637 114.244C16.7337 114.741 17.9848 114.817 19.2064 114.974C21.8453 115.292 24.3107 115.19 25.9715 112.561C26.9902 110.944 27.0787 110.852 25.2334 110.254C25.0452 110.195 24.8643 110.144 24.6687 110.067C24.2258 109.889 23.9564 109.87 23.6427 110.396C23.4784 110.72 23.2435 111.003 22.955 111.226C22.6665 111.449 22.3316 111.606 21.9745 111.685H20.2435C18.949 111.65 17.6587 111.522 16.3831 111.301Z" fill="#2F306A" fill-opacity="0.15"/>
<path d="M26.9414 58.3325C26.9414 59.0116 27.1075 59.4534 27.8456 59.3183C29.4289 59.3183 29.691 59.0846 29.9862 57.6607C30.2446 56.3463 30.4291 55.021 30.8203 53.7285C31.5954 51.1728 30.1855 48.8471 27.5208 48.1607C27.219 48.0549 26.8888 48.0601 26.5906 48.1754C26.2924 48.2907 26.0461 48.5084 25.8969 48.7887C25.55 49.3509 25.7197 49.9205 26.1479 50.4024C26.3692 50.6944 26.6314 50.9538 26.9266 51.1728C27.9563 51.7935 27.8899 52.6551 27.6242 53.6446C27.1681 55.1662 26.9381 56.7454 26.9414 58.3325Z" fill="#2F306A" fill-opacity="0.15"/>
<path d="M6.37895 73.9297C3.6958 75.5069 1.85413 77.8619 0.532855 80.6074C0.386885 80.9485 0.377344 81.3316 0.506165 81.6794C0.634985 82.0271 0.892543 82.3134 1.22671 82.4804C1.83568 82.8236 2.40774 82.5242 2.82848 81.9255C3.51556 80.884 4.26359 79.8831 5.06874 78.928C5.97297 77.9057 6.64468 76.4818 8.228 76.5913C9.54558 76.5657 10.1878 75.9597 10.3502 74.8023C10.3908 74.5138 10.2948 74.3094 10.0918 74.2364C8.88864 73.8055 7.62272 73.1995 6.37895 73.9297Z" fill="#2F306A" fill-opacity="0.15"/>
<path d="M53.89 96.4856C55.3663 97.1136 57.5253 95.686 57.5364 94.1161C57.5364 93.7254 57.6102 93.3348 57.6435 92.9477C57.8317 90.8082 57.8649 88.6797 56.4292 86.8396C56.2793 86.6425 56.0786 86.489 55.848 86.3952C55.6175 86.3014 55.3657 86.2707 55.119 86.3065C54.5432 86.3576 54.5728 86.8761 54.5359 87.2996V88.6395C54.2185 90.7863 53.89 92.9331 53.5837 95.08C53.5135 95.5765 53.2404 96.2081 53.89 96.4856Z" fill="#2F306A" fill-opacity="0.15"/>
<path d="M17.3777 58.2016C18.9389 58.6835 19.0423 58.8259 19.1013 60.4579C19.1641 62.1885 19.4224 62.2835 21.05 61.7431C22.6776 61.2028 22.6407 60.6186 22.3971 59.1874C22.3713 59.0267 22.3491 58.8661 22.3159 58.7054C21.8583 56.5148 20.3562 55.1384 18.4517 55.1749C18.2184 55.1565 17.9839 55.1565 17.7505 55.1749C17.1009 55.2844 16.0011 56.3286 16.1045 56.8252C16.1637 57.1501 16.3147 57.4518 16.54 57.6954C16.7654 57.939 17.0558 58.1145 17.3777 58.2016Z" fill="#2F306A" fill-opacity="0.15"/>
<path d="M97.3568 55.9596C97.0948 54.8424 95.3269 53.5244 94.1274 53.5572C93.3893 53.5572 92.9538 54.1122 92.7471 55.2696C92.7065 55.5069 92.3042 55.7771 92.7692 56.018C93.1641 56.2188 93.3081 55.8684 93.5074 55.6821C93.9982 55.1929 94.5408 54.8899 95.1719 55.3536C95.803 55.8172 95.8805 56.4306 95.4007 57.1024C95.2605 57.2996 94.991 57.5661 95.4007 57.8326C95.6923 58.0261 95.9433 58.1977 96.3049 58.0407C96.9508 57.7486 97.5155 56.6351 97.3568 55.9596Z" fill="#2F306A" fill-opacity="0.15"/>
<path d="M132.419 70.6699C132.44 70.2402 132.415 69.8095 132.345 69.3848C131.419 65.8542 130.747 62.2506 129.157 58.9136C128.245 56.9968 127.201 55.1968 125.495 53.8496C124.616 53.1427 123.813 52.3474 123.1 51.4764C122.107 50.2825 121.233 48.9791 119.963 48.0225C118.239 46.7264 116.217 46.1495 114.183 45.5727C113.076 45.266 113.006 45.3061 112.888 46.4124C112.755 47.7049 112.692 49.0156 112.15 50.235C111.825 50.9653 112.15 51.5129 112.855 51.6334C115.032 51.9985 116.667 53.3238 118.391 54.5542C120.605 56.1424 122.724 57.8402 124.093 60.2243C125.926 63.4284 127.589 66.7249 129.075 70.1004C129.858 71.869 130.387 73.7368 130.648 75.65C130.806 76.8146 131.072 77.9647 131.29 79.1184C132.253 76.7489 132.102 74.2699 132.423 71.8529C132.545 71.6794 132.611 71.473 132.611 71.2614C132.611 71.0498 132.545 70.8434 132.423 70.6699H132.419Z" fill="#2F306A" fill-opacity="0.15"/>
<path d="M104.72 43.7251C104.809 43.7622 104.9 43.7939 104.993 43.8201H105.045L105.218 43.8712C106.325 44.1487 107.012 43.9661 107.433 43.2834C107.489 43.2029 107.528 43.112 107.549 43.0161C107.569 42.9202 107.569 42.8213 107.55 42.7252C107.531 42.6292 107.492 42.5379 107.436 42.4569C107.381 42.3759 107.309 42.3068 107.226 42.2538C106.857 41.9836 106.576 42.2538 106.462 42.5751C106.204 43.2505 105.543 43.2067 105.034 43.4294C104.642 43.3698 104.28 43.1871 104.002 42.9083C103.723 42.6295 103.543 42.2694 103.487 41.8814C103.653 41.6163 103.895 41.4055 104.181 41.2753C104.476 41.1146 105.008 41.1219 104.978 40.6619C104.949 40.2019 104.436 40.1544 104.092 39.9901C103.801 39.8417 103.492 39.7277 103.173 39.6506C103.047 39.6056 102.908 39.6023 102.779 39.6411C102.65 39.6799 102.538 39.7588 102.457 39.866C102.198 40.1875 102.053 40.5846 102.045 40.9959C102.037 41.4071 102.167 41.8094 102.413 42.1406C102.878 42.9803 104.048 43.4915 104.72 43.7251Z" fill="#2F306A" fill-opacity="0.15"/>
</g>
<defs>
<clipPath id="clip0_1173_10069">
<rect width="133" height="123" fill="white"/>
</clipPath>
</defs>
</svg>
