<svg width="275" height="237" viewBox="0 0 275 237" fill="none" xmlns="http://www.w3.org/2000/svg">
<path d="M249.453 113.649C249.493 111.964 249.102 110.297 248.316 108.807C247.53 107.317 246.376 106.054 244.965 105.139C242.672 103.53 240.849 101.336 239.685 98.7842C235.967 91.3623 232.766 83.6908 230.106 75.8247C228.937 72.0423 227.693 71.0777 223.752 71.1723C220.548 71.4564 217.332 71.57 214.116 71.5127C208.19 71.2226 202.25 71.406 196.353 72.0612C195.09 72.1557 194.807 72.6853 194.939 73.8578C196.196 84.0326 197.397 94.2137 198.54 104.401C198.88 107.314 199.144 110.245 199.332 113.176C199.461 114.078 199.238 114.995 198.712 115.738C198.186 116.48 197.395 116.992 196.504 117.167C195.636 117.282 194.758 117.054 194.054 116.532C193.351 116.01 192.877 115.234 192.733 114.368C192.494 113.51 192.305 112.638 192.167 111.758C189.999 98.3303 189.244 84.6567 186.736 71.1912C185.096 62.4538 184.247 53.5839 183.191 44.7141C182.399 38.0002 182.098 37.7544 175.422 38.0948C144.913 39.6708 114.403 41.2342 83.8933 42.785C69.9018 43.5037 55.9103 44.298 41.9188 45.168C37.4687 45.4327 36.0356 47.0592 36.2619 51.617C36.7333 55.5366 36.7333 59.4987 36.2619 63.4183C35.4487 67.9436 35.3216 72.5662 35.8848 77.1297C36.2119 79.5427 36.3694 81.9757 36.3562 84.4109C35.8408 99.3137 35.3631 114.223 34.9231 129.138H35.0174C34.6779 141.267 34.3385 153.384 33.9991 165.488C33.9065 166.059 33.9542 166.644 34.1383 167.193C34.3223 167.741 34.637 168.236 35.055 168.635C35.4731 169.034 35.9819 169.324 36.5372 169.481C37.0926 169.638 37.6777 169.656 38.2418 169.535C41.6925 169.043 45.1621 168.476 48.6317 168.117C49.2206 168.08 49.7889 167.886 50.2767 167.553C50.7645 167.22 51.1538 166.761 51.4036 166.225C54.7133 160.178 58.7539 154.562 63.434 149.507C67.9716 144.299 73.6785 140.247 80.0843 137.687C82.6741 136.673 85.4408 136.192 88.2197 136.272C90.9987 136.351 93.7333 136.991 96.261 138.152C98.7888 139.313 101.058 140.971 102.934 143.029C104.81 145.087 106.254 147.502 107.181 150.131C108.211 152.883 109.006 155.717 109.557 158.604C109.877 160.117 110.519 160.381 111.914 160.211C124.397 158.597 136.88 157.034 149.363 155.521C149.856 155.489 150.331 155.317 150.731 155.026C151.132 154.735 151.442 154.336 151.626 153.876C153.194 150.651 155.05 147.575 157.169 144.684C163.204 136.438 170.369 129.554 179.986 125.772C190.149 121.668 200.2 123.37 206.837 130.292C210.742 134.442 213.362 139.638 214.38 145.252C214.606 146.386 214.738 147.408 216.266 146.935C226.335 143.909 236.857 142.736 246.907 139.521C250.113 138.5 250.792 137.516 250.886 134.112C251.169 127.115 249.585 120.42 249.453 113.649ZM164.109 84.1461C159.772 91.8056 153.398 97.5171 146.44 102.642C137.814 109.204 127.322 112.829 116.496 112.987C102.203 112.987 91.4736 109.583 82.3093 101.64C79.858 99.5218 79.7449 99.6163 77.1804 101.64C74.0048 104.431 71.013 107.425 68.2236 110.604C67.5172 111.509 66.6472 112.273 65.6591 112.855C63.566 113.819 61.3975 113.006 61.2278 110.775C60.285 99.3326 56.7211 88.2879 56.5514 76.7325C56.5068 75.906 56.532 75.0772 56.6269 74.255C57.0794 71.5127 58.8519 70.6806 61.4918 71.5316C68.1673 73.6622 74.4117 76.9666 79.9334 81.2904C81.5174 82.5386 82.2905 82.0279 83.3464 80.7041C85.9282 77.1758 88.8596 73.9189 92.0958 70.9832C97.7528 66.3686 104.409 65.3095 111.254 64.2504C123.662 62.3592 135.013 65.3662 146.063 70.813C150.985 73.2337 156.227 75.0115 161.356 77.0162C165.221 78.4913 166.126 80.5528 164.109 84.1461ZM221.526 104.193C218.208 105.063 214.87 105.857 211.495 106.463C208.12 107.068 206.422 105.498 206.177 102.226C206.045 100.448 205.989 98.6518 205.895 96.8551C205.831 94.251 205.97 91.6459 206.309 89.0633C206.345 88.2722 206.648 87.5169 207.169 86.9221C207.69 86.3272 208.398 85.9284 209.176 85.7915C212.325 85.0917 215.398 84.1839 218.604 83.4653C219.18 83.2314 219.805 83.144 220.423 83.211C221.041 83.2779 221.633 83.4971 222.147 83.849C222.66 84.201 223.078 84.6747 223.365 85.2281C223.652 85.7814 223.797 86.3973 223.789 87.0208C224.28 91.2193 224.581 95.4367 224.808 99.6542C224.916 100.171 224.915 100.705 224.806 101.221C224.696 101.738 224.479 102.226 224.17 102.653C223.861 103.081 223.466 103.439 223.011 103.704C222.556 103.969 222.05 104.136 221.526 104.193Z" fill="#13D4C6"/>
<path d="M201.16 133.904C195.88 129.422 189.846 129.554 183.774 131.748C175.609 134.85 168.743 140.654 164.314 148.202C159.204 156.239 155.942 164.712 156.942 174.565C157.866 183.775 163.918 189.827 173.12 189.922C177.755 189.649 182.231 188.127 186.075 185.515C196.308 178.761 204.155 168.939 208.495 157.45C208.705 157 208.808 156.508 208.797 156.012C208.552 153.232 208.42 150.433 207.948 147.691C207.043 142.452 205.365 137.478 201.16 133.904ZM190.845 154.707C188.851 160.789 185.144 166.162 180.173 170.178C179.284 170.981 178.171 171.491 176.984 171.64C175.797 171.789 174.594 171.569 173.535 171.01C172.594 170.483 171.823 169.698 171.312 168.746C170.801 167.795 170.571 166.717 170.65 165.639C170.693 164.061 171.113 162.518 171.876 161.137C174.327 155.997 178.323 151.757 183.303 149.015C184.162 148.42 185.182 148.102 186.226 148.102C187.27 148.102 188.289 148.42 189.148 149.015C190.034 149.634 190.684 150.536 190.992 151.573C191.3 152.611 191.248 153.722 190.845 154.726V154.707Z" fill="#13D4C6"/>
<path d="M85.347 142.906C81.1438 143.895 77.2221 145.836 73.8823 148.58C66.0192 154.537 60.5319 162.461 55.4407 170.745C54.1402 172.44 53.5576 174.58 53.819 176.702C53.8115 180.336 54.4501 183.941 55.7047 187.35C58.6651 195.255 65.1329 199.586 73.0338 199C77.11 198.624 81.0297 197.24 84.4419 194.972C93.5684 189.166 99.7156 180.863 104.241 171.199C104.473 170.754 104.602 170.263 104.618 169.762C104.43 161.894 103.148 154.291 98.226 147.861C96.8212 145.836 94.8424 144.281 92.546 143.398C90.2497 142.514 87.7416 142.343 85.347 142.906ZM88.1755 165.828C86.97 171.19 83.9685 175.976 79.6712 179.388C78.4406 180.362 77.0115 181.053 75.4851 181.412C74.489 181.674 73.4416 181.669 72.4481 181.397C71.4546 181.124 70.5502 180.594 69.8258 179.86C69.1014 179.126 68.5825 178.213 68.3214 177.214C68.0603 176.215 68.0662 175.164 68.3385 174.168C68.6627 172.912 69.1643 171.708 69.8282 170.594C71.6319 167.333 73.7006 164.227 76.0131 161.308C76.8891 160.171 77.9097 159.153 79.049 158.282C82.8202 155.483 85.9127 156.145 88.1943 160.173C89.8537 162.102 89.0052 163.956 88.1755 165.828Z" fill="#13D4C6"/>
<path d="M143.592 178.083C133.356 179.555 123.209 181.588 113.195 184.173C112.004 184.376 110.866 184.815 109.846 185.464C108.826 186.114 107.945 186.961 107.256 187.955C106.891 188.351 106.65 188.843 106.559 189.374C106.469 189.904 106.534 190.449 106.746 190.944C107.237 191.984 108.179 192.248 109.669 192.211C109.952 192.211 110.669 192.078 111.366 191.927C118.909 190.187 126.451 188.39 134.107 186.669C137.878 185.837 141.537 185.251 145.214 184.381C147.759 183.776 148.834 181.639 147.721 179.729C147.295 179.051 146.666 178.527 145.924 178.231C145.182 177.935 144.365 177.884 143.592 178.083Z" fill="#13D4C6"/>
</svg>
