<svg width="129" height="123" viewBox="0 0 129 123" fill="none" xmlns="http://www.w3.org/2000/svg">
<g clip-path="url(#clip0_1173_10093)">
<path d="M1.46053 14.7101C3.86849 15.6726 6.2494 16.7123 8.65351 17.6863C10.7639 18.5366 12.6848 19.7618 14.7372 20.7088C19.0081 22.68 22.394 25.7334 25.5788 29.0612C25.7686 29.2663 25.908 29.5128 25.9858 29.7812C26.0636 30.0496 26.0778 30.3324 26.0272 30.6072C25.8701 32.1318 25.8987 33.6697 26.1122 35.1874C26.607 38.2794 28.0873 40.927 29.8343 43.4587C31.225 45.5827 33.3682 47.1017 35.833 47.7102C37.8313 48.205 39.8063 48.8041 41.7891 49.3684C42.7747 49.6466 43.6328 50.3153 44.6725 50.4042C47.3472 50.6361 49.6624 51.3743 51.336 53.7514C52.9516 56.0472 53.9372 58.3276 52.7351 61.095C52.1438 62.4517 51.5756 63.8586 50.0953 64.5311C49.0981 64.9794 48.0468 64.8635 47.0032 64.7398C46.6901 64.4615 46.3075 64.62 45.9557 64.5813C45.4958 64.6509 45.26 64.1678 44.7962 64.1523C43.026 64.0905 41.6693 62.9735 40.1581 62.2198C39.9448 62.1244 39.7759 61.9516 39.6855 61.7362C39.595 61.5209 39.5899 61.2792 39.6711 61.0602C39.8187 60.7347 40.0406 60.4484 40.3189 60.2241C40.5972 59.9998 40.9242 59.8438 41.2737 59.7687C41.6231 59.6935 41.9853 59.7013 42.3313 59.7913C42.6772 59.8814 42.9972 60.0512 43.2656 60.2872C44.8117 61.6671 46.6167 62.0265 48.4874 61.1414C49.5851 60.6235 50.5011 59.7809 50.3658 58.3083C50.1455 55.8424 48.8198 54.2422 46.5587 53.361C45.7428 53.0923 44.8622 53.0923 44.0464 53.361C42.8327 53.5156 41.6113 53.6084 40.4132 53.8364C37.9202 54.3157 35.5856 55.2046 33.885 57.1874C33.4366 57.7092 32.7641 58.289 32.911 59.147C33.2704 61.2187 33.2395 63.3445 33.7381 65.393C34.2096 67.3256 34.8319 69.204 36.4437 70.5374C37.3906 71.3105 38.3762 72.0526 39.3657 72.7985C41.0946 74.0862 43.0903 74.9698 45.2059 75.3843C47.9617 75.9254 50.7987 76.2191 53.6125 76.5438C54.1189 76.6056 54.8648 77.0385 55.0813 76.5129C55.2397 76.1264 54.4474 75.7398 54.0261 75.3881C53.0673 74.6826 52.2514 73.8011 51.622 72.7908C51.4424 72.5073 51.3645 72.1712 51.4011 71.8376C51.4376 71.5041 51.5863 71.1928 51.823 70.9549C52.2829 70.4331 52.7699 70.6302 53.3304 70.8621C55.8118 71.8941 58.011 73.4788 60.5233 74.4605C62.8424 75.3688 65.0958 76.4974 67.6545 76.6211C68.6155 76.8878 69.631 76.8878 70.592 76.6211C73.4985 76.9226 76.0031 75.7901 78.5039 74.4953C81.0046 73.2005 82.883 71.6583 83.3855 68.717C83.7163 66.8005 83.4251 64.8285 82.5545 63.0894C82.253 62.4517 81.8936 62.3435 81.2558 62.8421C79.273 64.4113 77.0506 65.478 74.4725 65.652C74.086 65.652 73.6995 65.5012 73.3401 65.7988H66.1819C65.6253 65.4549 65.0223 65.6868 64.4348 65.6481C63.3449 65.7795 62.2704 65.5322 61.2191 65.3698C60.3649 65.2384 59.4025 64.8751 59.0546 63.9436C58.556 62.6179 59.2942 61.0602 61.107 61.0177C62.7999 60.9752 64.5006 61.1607 66.1973 61.2496C66.6186 61.5588 67.0902 61.3695 67.5385 61.3926L71.0442 61.4584C72.2171 61.7365 73.4388 61.7365 74.6117 61.4584C75.8625 61.4699 77.1034 61.2362 78.2642 60.7704C79.2846 60.3104 80.4171 59.978 81.0007 58.8765C81.1161 58.7285 81.1787 58.5462 81.1787 58.3586C81.1787 58.1709 81.1161 57.9886 81.0007 57.8406C80.877 55.8733 79.9224 54.3234 78.6623 52.8663C76.6293 50.524 74.4107 48.5026 71.3766 47.4977C70.3021 47.1382 69.9813 47.2155 69.6721 48.2707C69.5276 48.8066 69.2852 49.3111 68.957 49.7587C67.2293 51.985 65.2079 53.8673 62.5139 54.8452C61.4046 55.2317 60.3455 55.8308 59.1474 55.9738H57.6864C57.2974 55.9496 56.9309 55.7828 56.6571 55.5055C56.3833 55.2281 56.2214 54.8595 56.2021 54.4703C56.1519 53.9817 56.2635 53.4902 56.5198 53.0712C56.776 52.6522 57.1628 52.329 57.6206 52.1512C58.6604 51.6951 59.731 51.297 60.7978 50.9067C63.2851 50.0534 65.4104 48.3832 66.8274 46.1681C67.5347 45.0549 67.4032 44.6723 66.4834 43.7137C65.3169 42.4915 63.9173 41.5156 62.3671 40.8437C60.8169 40.1719 59.1477 39.8178 57.4583 39.8023C55.6804 39.7482 54.6484 38.9906 53.655 37.719C52.4066 36.1189 50.9495 34.7699 48.87 34.2404C47.3957 33.8959 46.016 33.2288 44.8304 32.2871C43.6447 31.3454 42.6826 30.1526 42.0133 28.7945C41.5147 27.8089 40.9891 26.862 40.8963 25.7256V24.0173C41.02 22.0847 41.7543 20.3454 42.6549 18.6835C43.6637 16.8243 45.2909 15.4638 46.7519 13.9796C47.5598 13.1525 47.525 12.9786 46.3886 12.4761C46.2406 12.3608 46.0583 12.2982 45.8707 12.2982C45.6831 12.2982 45.5008 12.3608 45.3528 12.4761C44.5334 12.4761 43.8531 12.9593 43.0955 13.1757C40.4363 13.9487 37.7578 14.6328 35.4581 16.2987C34.6309 16.8939 33.8618 17.3693 34.5652 18.5289C34.6464 18.6878 34.663 18.872 34.6116 19.0429C34.086 20.6856 34.4763 22.2818 34.859 23.8704C35.4349 26.2783 36.0533 28.6631 37.2438 30.8778C37.8815 32.0644 38.9096 32.9456 39.5164 34.1322C39.7638 34.6231 39.903 35.1294 39.4546 35.5739C39.3593 35.6743 39.2445 35.7543 39.1172 35.809C38.99 35.8637 38.8529 35.8919 38.7144 35.8919C38.5759 35.8919 38.4389 35.8637 38.3116 35.809C38.1844 35.7543 38.0696 35.6743 37.9743 35.5739C37.1898 34.979 36.4959 34.2733 35.9142 33.479C34.0535 30.7143 32.8771 27.5466 32.4819 24.2376C32.3351 23.1824 32.3428 22.0036 31.8558 21.1185C30.4489 18.5752 29.2816 15.9006 27.6042 13.4926C24.829 9.49615 22.0036 5.52671 17.6051 3.05692C15.7692 2.0288 14.0067 0.826763 11.8616 0.471175C11.6138 0.398609 11.3485 0.415356 11.1118 0.518493C10.8751 0.621631 10.6822 0.804606 10.5667 1.03548C10.4868 1.14992 10.4301 1.27901 10.4001 1.41535C10.37 1.55169 10.3671 1.69262 10.3915 1.83009C10.4159 1.96756 10.4671 2.09887 10.5423 2.21653C10.6175 2.33419 10.7151 2.43588 10.8296 2.51581C11.3869 3.01382 12.0299 3.40668 12.7273 3.67533C14.1656 4.14323 15.4764 4.93686 16.5577 5.99438C19.2632 8.78884 22.3553 11.1775 24.8793 14.1111C26.9316 16.5035 29.0188 18.869 30.0701 22.019C30.9514 24.6473 31.7244 27.3258 32.7254 29.9077C33.6647 32.3427 34.658 34.7815 36.5364 36.7257C37.3095 37.5451 38.0168 38.465 38.728 39.3578C38.9947 39.6941 39.1145 40.1927 38.728 40.4323C38.5837 40.5698 38.4005 40.6595 38.2034 40.6893C38.0063 40.719 37.8049 40.6873 37.6264 40.5985C32.8839 38.0282 31.0132 33.5679 29.7184 28.6902C29.2546 26.9315 29.0343 25.0995 28.2922 23.4259C26.8968 20.272 24.8136 17.5742 22.4674 15.0967C19.2401 11.6877 15.4329 8.94731 11.6451 6.20696C9.09065 4.29127 5.91546 3.39313 2.73602 3.68693C2.1949 3.73717 1.71949 3.84539 1.57648 4.45994C1.49511 4.75073 1.52053 5.06104 1.64814 5.3347C1.77576 5.60836 1.99714 5.8273 2.2722 5.95187C2.75956 6.14619 3.2643 6.29373 3.7796 6.39249C5.32564 6.81764 6.89488 7.06888 8.34816 7.84189C9.80145 8.61491 11.1079 9.701 12.4877 10.6248C14.3468 11.8732 16.3026 12.9786 18.1733 14.2116C20.2604 15.5837 22.0384 17.3036 23.8086 19.0738C24.9487 20.2645 25.9953 21.5412 26.9394 22.8925C27.295 23.3873 27.3259 23.9206 26.8814 24.2878C26.6704 24.4442 26.4094 24.5176 26.1479 24.4941C25.8863 24.4706 25.6425 24.3518 25.4629 24.1603C24.7516 23.5935 24.074 22.9857 23.4337 22.3398C19.7028 18.3648 15.2733 15.1092 10.3658 12.7351C9.04061 12.0462 7.59888 11.6097 6.11413 11.448C4.72674 11.1774 3.30013 11.1774 1.91275 11.448C0.950332 11.5524 0.146389 11.9157 0.02657 12.9941C-0.0700579 13.9681 0.625663 14.3778 1.46053 14.7101ZM50.3001 38.0978C52.3564 38.1248 54.2078 39.5163 54.1266 41.0739C54.0106 43.2809 52.5612 44.2046 50.648 44.4056C48.9087 44.3631 47.2699 42.9369 47.351 41.5338C47.4593 39.8023 48.9357 38.0785 50.3001 38.0978ZM42.2993 41.6189C42.9487 41.3908 43.7487 41.8778 44.0309 42.7591C44.6957 44.8153 46.2495 45.9207 48.1588 46.5932C49.0517 46.9102 49.9561 47.3663 50.9881 46.9102C51.0987 46.8752 51.2152 46.8627 51.3307 46.8734C51.4463 46.8841 51.5585 46.9178 51.6608 46.9726C51.7631 47.0273 51.8534 47.102 51.9264 47.1922C51.9993 47.2823 52.0536 47.3862 52.0858 47.4977C52.3061 48.0542 51.908 48.3093 51.4983 48.5606C50.8277 48.9361 50.0524 49.0814 49.2913 48.9741C46.1026 49.2215 42.2182 46.4464 41.5263 43.6558C41.3137 42.79 41.6229 41.8585 42.2993 41.6189Z" fill="#2F306A" fill-opacity="0.15"/>
<path d="M73.4407 86.3339C69.0268 86.7204 64.6205 87.134 60.2298 87.7408C55.5358 88.3544 50.9096 89.4064 46.412 90.8831C46.0255 91.0184 45.5114 91.0918 45.4534 91.5208C45.3954 91.9499 45.952 92.0658 46.2264 92.2939C47.2005 93.0359 48.3252 93.6041 49.0789 94.6129C50.3505 96.2981 51.5294 97.9833 51.9198 100.19C52.3681 102.73 52.7198 105.253 52.1478 107.77C51.5739 110.445 50.584 113.015 49.2142 115.384C48.7233 116.219 48.8277 116.381 49.7978 116.389C51.3052 116.389 52.8126 116.389 54.3239 116.389C57.5358 116.478 60.7168 116.122 63.9132 115.821C68.5723 115.38 73.1007 114.035 77.244 111.859C80.3554 110.247 83.262 108.284 86.1995 106.382C90.0646 103.878 93.2919 100.843 95.2902 96.5764C96.3377 94.3385 96.728 91.8958 97.7793 89.6772C98.0002 89.2453 98.1552 88.7828 98.2393 88.3051C98.6451 85.6768 98.8036 83.0061 99.6655 80.4551C99.851 79.8985 99.4491 79.5623 98.9466 79.3458C97.3001 78.6308 95.5685 79.0018 93.8756 78.9168C93.5548 78.9168 93.4891 79.1951 93.3306 79.3458C91.2859 81.1199 89.2297 82.8592 86.6555 83.868C85.2912 84.4014 83.8611 84.5753 82.4658 84.9231C79.4987 85.6275 76.4812 86.0992 73.4407 86.3339ZM76.5328 102.641C75.9414 104.755 74.6003 106.413 72.973 107.839C70.9554 109.59 68.5359 109.752 66.3444 108.276C66.1141 108.119 65.8664 107.989 65.6061 107.889C64.0369 107.325 63.5769 106.382 64.2611 104.863C64.3594 104.671 64.4048 104.456 64.3926 104.241C64.3803 104.026 64.3109 103.817 64.1915 103.638C63.6995 102.744 62.9962 101.983 62.143 101.423C61.8771 101.293 61.6557 101.087 61.5065 100.831C61.3573 100.575 61.2869 100.281 61.3043 99.9854C61.3274 99.2819 61.8956 99.2858 62.3208 99.1273C63.7315 98.5978 64.6399 97.4885 65.5752 96.3947C66.986 94.725 68.7253 93.7742 70.9864 93.8592C73.4562 93.9636 75.4776 94.8719 76.5483 97.2334C77.3329 98.9998 77.0469 100.847 76.5599 102.641H76.5328Z" fill="#2F306A" fill-opacity="0.15"/>
<path d="M89.6575 60.2837C91.5243 62.7496 93.5226 65.0957 94.2956 68.2071C94.7942 70.244 95.2039 72.277 95.0261 74.3912C94.9798 74.9401 94.2531 75.5507 94.8522 75.9875C95.2928 76.3044 96.0117 76.2194 96.6263 76.3083C96.692 76.3083 96.7654 76.3083 96.835 76.3083C97.8129 76.4358 98.8951 76.3083 99.7454 76.7953C101.349 77.7268 102.872 77.8195 104.492 76.9306C104.839 76.7795 105.2 76.663 105.57 76.5827C108.627 75.628 111.808 75.0831 114.788 73.8772C118.776 72.2459 122.551 70.1383 126.032 67.6003C127.041 66.8659 128.131 66.1547 128.401 64.7788C128.516 64.6305 128.578 64.4483 128.578 64.2608C128.578 64.0734 128.516 63.8912 128.401 63.7429C128.329 63.3689 128.176 63.0151 127.953 62.7061C127.73 62.3971 127.442 62.1403 127.11 61.9534C125.402 60.9253 123.512 60.5774 121.587 60.3223C120.131 60.0383 118.633 60.0383 117.177 60.3223C116.226 60.2991 115.33 60.6161 114.417 60.8093C111.534 61.4277 108.689 62.1737 106.189 63.855C105.933 64.0289 105.613 64.3343 105.242 64.1603C104.793 63.9439 104.99 63.4878 104.948 63.1245C104.534 59.7387 103.193 56.9404 99.9812 55.3441C97.8283 54.2734 95.459 54.142 93.1438 53.798C91.9699 53.5178 90.7464 53.5178 89.5725 53.798C87.4698 53.6782 86.3953 55.9973 87.3809 57.6206C88.0071 58.6294 88.9463 59.3444 89.6575 60.2837ZM101.759 72.3311C102.392 71.4043 103.224 70.6306 104.194 70.0662C106.94 68.3503 109.857 66.9254 112.898 65.8146C114.971 64.994 117.121 64.3816 119.315 63.9864C120.223 63.9516 120.768 64.1333 120.926 64.7594C121.085 65.3856 120.59 65.6445 120.084 65.888C118.572 66.6185 116.926 66.9239 115.353 67.4573C111.136 68.8912 106.996 70.4836 103.236 72.9225C103.088 73.0151 102.951 73.1226 102.826 73.2433C102.521 73.5448 102.246 74.1323 101.755 73.6878C101.373 73.3399 101.485 72.7756 101.759 72.3311ZM94.6783 57.2882C96.7229 59.4604 98.6091 61.7563 99.444 64.6937C99.6913 65.5518 99.6449 66.4948 99.7338 67.3993H99.6566C99.6566 68.2032 99.6991 69.011 99.6372 69.8111C99.6063 70.1628 99.4903 70.5841 98.9995 70.6653C98.5086 70.7464 98.3811 70.3754 98.2265 70.07C98.0175 69.7509 97.878 69.3914 97.8168 69.0149C97.7549 65.3276 95.9499 62.4442 93.5651 59.8546C93.0279 59.2594 92.6298 58.641 92.9081 57.7791C93.1863 56.9172 94.0405 56.6118 94.6783 57.2882Z" fill="#2F306A" fill-opacity="0.15"/>
<path d="M47.9576 98.3545C46.6551 95.8808 44.4326 94.4894 41.8739 93.5656C41.5734 93.4283 41.2444 93.3647 40.9143 93.3802C40.5842 93.3957 40.2626 93.4897 39.9762 93.6545C38.9094 94.3464 37.7421 94.8566 36.6328 95.4711C34.0243 96.9296 31.7223 98.8786 29.8534 101.211C27.1633 104.514 25.6655 108.628 25.6018 112.887C25.5304 115.608 25.9345 118.321 26.7961 120.903C27.5691 123.307 28.8214 123.566 30.5878 121.769C31.5533 120.76 32.6939 119.935 33.9543 119.334C36.7101 118.043 39.6785 117.529 42.6392 117.05C43.8567 116.849 44.7187 116.424 45.4337 115.365C47.2975 112.656 48.4329 109.514 48.7306 106.239C48.8543 104.875 48.7654 103.514 48.8814 102.154C48.8002 101.942 48.7697 101.715 48.7925 101.489C48.8234 101.713 48.8505 101.934 48.8814 102.154C48.8814 101.767 49.0244 101.381 48.7306 101.025C48.4871 100.132 48.3828 99.1584 47.9576 98.3545ZM38.1982 107.445C36.0453 107.553 34.1167 105.969 34.221 104.125C34.3563 101.648 36.5826 99.3865 38.836 99.3439C40.6448 99.3092 42.4228 101.485 42.4266 103.661C42.3996 106.023 40.8226 107.314 38.1982 107.445Z" fill="#2F306A" fill-opacity="0.15"/>
<path d="M16.1259 72.6137C17.4257 70.6665 18.9981 68.9159 20.795 67.4152C23.3401 65.435 26.2202 63.9281 29.2982 62.9665C30.3302 62.6263 30.6162 62.062 30.2877 61.0958C29.9785 60.1913 29.2325 60.0715 28.4363 60.257C24.7567 61.1151 21.9506 63.4651 19.1909 65.8344C17.5247 67.264 15.9988 68.8494 14.634 70.5691C13.7025 71.7286 12.5855 72.7567 11.8975 74.1559C11.2095 75.555 10.9041 77.0045 10.4094 78.4268C9.96287 79.59 9.59485 80.7818 9.30784 81.9943C8.95225 83.7838 9.28079 85.6429 8.92133 87.444C8.7474 87.9426 9.02956 88.3949 9.07207 88.8664C9.32899 92.1701 10.1214 95.4101 11.4182 98.4595C11.6446 98.9698 11.9875 99.4199 12.4193 99.7737C12.5947 99.9139 12.8081 99.9984 13.0319 100.016C13.2558 100.034 13.4799 99.9847 13.6754 99.8742C13.7521 99.8278 13.8185 99.7663 13.8705 99.6933C13.9225 99.6203 13.9591 99.5375 13.9779 99.4499C13.9967 99.3623 13.9974 99.2717 13.98 99.1839C13.9625 99.096 13.9273 99.0126 13.8764 98.9388C13.3542 97.7807 12.9652 96.567 12.7169 95.3211C12.2763 93.3885 11.7274 91.4908 11.8086 89.4809C11.8646 88.4639 11.8646 87.4446 11.8086 86.4275C11.6424 83.923 12.2917 81.5343 12.9681 79.196C13.6491 76.8422 14.7162 74.6179 16.1259 72.6137Z" fill="#2F306A" fill-opacity="0.15"/>
<path d="M16.2832 83.0061C16.9771 80.9566 17.8061 78.9552 18.7646 77.0152C20.0632 74.1667 22.1388 71.9906 24.5622 70.1238C26.3665 68.7936 28.4175 67.8358 30.5957 67.3061C31.1291 67.167 31.5852 66.9196 31.2489 66.2935C30.9126 65.6673 30.9513 64.415 29.7917 64.8325C27.3142 65.706 24.8251 66.6723 22.7804 68.3613C20.129 70.5412 17.8099 73.0651 16.3373 76.219C15.5149 77.8693 14.8884 79.6101 14.4704 81.406C14.111 83.1491 13.852 84.9039 13.6201 86.6586C13.3882 88.4134 13.8713 90.2184 14.0878 91.9963C14.3626 93.958 14.8419 95.8856 15.5179 97.7475C15.6454 98.134 15.5643 99.2047 16.4764 98.8259C17.3229 98.478 16.7354 97.6161 16.5537 97.1948C15.6995 95.2043 15.4947 93.1249 15.3942 91.0107V89.3603C15.4908 87.2152 15.6532 85.0855 16.2832 83.0061Z" fill="#2F306A" fill-opacity="0.15"/>
<path d="M21.454 82.454C22.6598 79.8447 24.2363 77.4233 26.1347 75.265C27.8276 73.3788 29.4858 71.3999 31.9633 70.4568C32.0467 70.435 32.1233 70.3927 32.1862 70.3338C32.2491 70.2749 32.2963 70.2013 32.3236 70.1195C32.3508 70.0378 32.3572 69.9505 32.3422 69.8657C32.3272 69.7808 32.2913 69.701 32.2377 69.6335C32.0367 69.2973 32.0445 68.6905 31.3449 68.8605C30.2897 69.1272 29.5824 69.9737 28.6393 70.4066C25.725 71.7246 23.4678 73.9315 21.6821 76.4245C18.8528 80.3476 17.1058 84.7731 17.3763 90.0682C17.2118 92.2901 17.5513 94.5203 18.3697 96.5925C18.4818 96.8979 18.3349 97.3655 18.8219 97.3926C19.3089 97.4196 19.448 97.0486 19.6568 96.7123C19.8003 96.3962 19.8666 96.0504 19.85 95.7035C19.9892 94.4976 19.4017 93.3845 19.3901 92.1979C19.4331 90.5344 19.6284 88.8784 19.9737 87.2506C20.2493 85.5925 20.7472 83.9791 21.454 82.454Z" fill="#2F306A" fill-opacity="0.15"/>
<path d="M34.1182 75.953C34.3548 75.835 34.5599 75.6622 34.7165 75.4492C34.8731 75.2361 34.9767 74.9889 35.0188 74.7278C34.9028 74.1712 34.4622 73.7963 34.1762 73.3287C33.6158 72.4088 33.0669 72.4783 32.2746 73.1277C29.9195 75.0086 27.8186 77.1874 26.0247 79.6094C23.5097 83.0021 21.8473 86.9498 21.1778 91.1196C21.1353 91.3747 21.1392 91.5062 21.344 91.6221C21.6532 91.769 21.6571 91.4946 21.7305 91.309C21.9586 90.6984 22.1402 90.0645 22.4224 89.4808C24.4593 85.2293 27.4857 81.712 30.5391 78.1832C31.5131 77.0237 32.9471 76.7415 34.1182 75.953Z" fill="#2F306A" fill-opacity="0.15"/>
<path d="M73.2771 99.7235C72.1833 100.156 71.0779 100.562 69.9763 100.972C69.6748 101.08 69.3424 101.169 69.1028 100.871C68.9837 100.718 68.9149 100.532 68.9059 100.338C68.8969 100.145 68.9481 99.9527 69.0525 99.7892C69.1826 99.5795 69.3846 99.4242 69.6207 99.3525C70.5213 98.9891 71.4219 98.622 72.3263 98.2702C72.6548 98.1388 73.0568 98.0267 73.0993 97.648C73.1534 97.161 72.6703 97.0141 72.3263 96.9252C71.8164 96.8261 71.2994 96.768 70.7803 96.7513C70.3262 96.7002 69.8665 96.7392 69.4275 96.8658C68.9884 96.9925 68.5786 97.2044 68.2215 97.4895C67.2089 98.2973 66.4243 99.3525 65.373 100.129C64.9478 100.442 65.2647 100.783 65.5044 101.007C66.575 102.012 67.0504 103.276 67.3094 104.69C67.3721 105.026 67.5166 105.342 67.73 105.609C67.9435 105.876 68.2193 106.086 68.5332 106.221C68.8472 106.356 69.1896 106.412 69.5302 106.384C69.8708 106.355 70.1993 106.244 70.4865 106.058C71.2141 105.571 71.8709 104.986 72.4384 104.319C72.5509 104.233 72.6377 104.119 72.6895 103.987C72.7413 103.856 72.7561 103.712 72.7321 103.573C72.6162 103.21 72.2645 103.353 72.0055 103.341C71.5185 103.341 71.016 103.399 70.5793 103.105C70.2391 102.877 69.8062 102.692 69.9454 102.143C70.0575 101.664 70.444 101.59 70.8344 101.556C71.4605 101.501 72.0905 101.482 72.7205 101.436C73.0019 101.446 73.2802 101.374 73.5212 101.229C73.7622 101.083 73.9554 100.87 74.0772 100.616C74.1662 100.485 74.2102 100.329 74.2025 100.171C74.1949 100.012 74.136 99.8608 74.0347 99.739C73.7912 99.4761 73.5477 99.6191 73.2771 99.7235Z" fill="#2F306A" fill-opacity="0.15"/>
<path d="M38.5472 102.355C38.1607 102.29 37.0901 103.437 37.1017 103.851C37.1017 104.512 37.5964 104.597 38.18 104.624C38.7791 104.52 39.4748 104.419 39.4864 103.542C39.512 103.261 39.4288 102.982 39.254 102.761C39.0792 102.54 38.8261 102.395 38.5472 102.355Z" fill="#2F306A" fill-opacity="0.15"/>
</g>
<defs>
<clipPath id="clip0_1173_10093">
<rect width="129" height="123" fill="white"/>
</clipPath>
</defs>
</svg>
