<svg width="147" height="48" viewBox="0 0 147 48" fill="none" xmlns="http://www.w3.org/2000/svg">
<path d="M37.7897 32.0002C37.9028 31.9861 38.0086 31.9374 38.0926 31.8608C38.1766 31.7842 38.2346 31.6835 38.2584 31.5727L39.3661 26.4136C39.3661 26.4136 39.3661 26.4109 39.3661 26.41L40.5833 20.7558C40.6004 20.6762 40.5994 20.5939 40.5804 20.5147C40.5614 20.4356 40.5249 20.3617 40.4735 20.2984C40.4221 20.2351 40.3572 20.184 40.2834 20.1489C40.2096 20.1137 40.1289 20.0955 40.0471 20.0953H18.6054L18.2757 17.5322C18.2429 17.2809 18.1193 17.05 17.928 16.8826C17.7367 16.7152 17.4907 16.6227 17.2359 16.6224H17.0875C16.9675 16.3432 16.7678 16.1052 16.5131 15.9378C16.2583 15.7704 15.9598 15.681 15.6546 15.6807H13.1523C12.7389 15.6807 12.3425 15.844 12.0502 16.1347C11.758 16.4254 11.5938 16.8197 11.5938 17.2309C11.5938 17.642 11.758 18.0363 12.0502 18.3271C12.3425 18.6178 12.7389 18.7811 13.1523 18.7811H15.6546C15.9827 18.7807 16.3024 18.6774 16.5682 18.4859C16.8339 18.2944 17.0322 18.0245 17.1349 17.7144H17.1917L19.508 35.698C19.5423 35.9598 19.671 36.2003 19.8703 36.3747C20.0695 36.5491 20.3257 36.6455 20.5912 36.646H35.1851C35.3281 36.6419 35.4639 36.5826 35.5636 36.4806C35.6633 36.3785 35.7191 36.2418 35.7191 36.0996C35.7191 35.9573 35.6633 35.8206 35.5636 35.7186C35.4639 35.6165 35.3281 35.5572 35.1851 35.5531H20.5992L20.4205 34.1753L37.7897 32.0002ZM39.3661 21.1864L38.3831 25.7549H32.9054V21.1864H39.3661ZM15.6546 17.6891H13.1523C13.0328 17.6854 12.9194 17.6356 12.8362 17.5502C12.7529 17.4648 12.7064 17.3505 12.7064 17.2316C12.7064 17.1126 12.7529 16.9983 12.8362 16.9129C12.9194 16.8275 13.0328 16.7777 13.1523 16.774H15.6546C15.7741 16.7777 15.8875 16.8275 15.9707 16.9129C16.0539 16.9983 16.1005 17.1126 16.1005 17.2316C16.1005 17.3505 16.0539 17.4648 15.9707 17.5502C15.8875 17.6356 15.7741 17.6854 15.6546 17.6891ZM31.8066 25.7549H26.1743V21.1864H31.8066V25.7549ZM31.8066 26.8473V31.6496L26.1743 32.3558V26.8473H31.8066ZM25.076 26.8473V32.4918L20.2802 33.0944L19.4759 26.8473H25.076ZM19.3347 25.7549L18.7462 21.1864H25.076V25.7549H19.3347ZM37.266 30.9656L32.9054 31.5113V26.8447H38.1507L37.266 30.9656Z" fill="#7460A8"/>
<path d="M21.6938 37.3252C21.3056 37.3251 20.926 37.4395 20.6032 37.654C20.2803 37.8685 20.0287 38.1734 19.88 38.5302C19.7314 38.8869 19.6924 39.2795 19.7681 39.6583C19.8438 40.037 20.0307 40.385 20.3052 40.6581C20.5797 40.9312 20.9295 41.1172 21.3103 41.1925C21.6911 41.2679 22.0858 41.2293 22.4445 41.0815C22.8032 40.9337 23.1098 40.6835 23.3255 40.3624C23.5412 40.0413 23.6563 39.6638 23.6563 39.2776C23.6555 38.7601 23.4485 38.2641 23.0806 37.8981C22.7128 37.5322 22.2141 37.3261 21.6938 37.3252ZM21.6938 40.159C21.5185 40.1591 21.347 40.1074 21.2012 40.0106C21.0553 39.9137 20.9416 39.776 20.8745 39.6148C20.8073 39.4537 20.7897 39.2764 20.8239 39.1053C20.8581 38.9342 20.9425 38.777 21.0665 38.6537C21.1905 38.5303 21.3486 38.4463 21.5206 38.4123C21.6926 38.3783 21.8709 38.3958 22.0329 38.4626C22.1949 38.5294 22.3333 38.6425 22.4307 38.7876C22.5281 38.9327 22.58 39.1032 22.5799 39.2776C22.5796 39.5113 22.4861 39.7352 22.32 39.9004C22.1539 40.0657 21.9287 40.1586 21.6938 40.159Z" fill="#7460A8"/>
<path d="M33.5649 37.3252C33.1767 37.3251 32.7971 37.4395 32.4743 37.654C32.1514 37.8685 31.8997 38.1734 31.7511 38.5302C31.6025 38.8869 31.5635 39.2795 31.6392 39.6583C31.7149 40.037 31.9018 40.385 32.1763 40.6581C32.4508 40.9312 32.8006 41.1172 33.1814 41.1925C33.5622 41.2679 33.9569 41.2293 34.3156 41.0815C34.6743 40.9337 34.9809 40.6835 35.1966 40.3624C35.4123 40.0413 35.5274 39.6638 35.5274 39.2776C35.5266 38.7601 35.3196 38.2641 34.9517 37.8981C34.5839 37.5322 34.0852 37.3261 33.5649 37.3252ZM33.5649 40.159C33.3895 40.1591 33.218 40.1076 33.0721 40.0108C32.9262 39.914 32.8125 39.7763 32.7452 39.6152C32.678 39.454 32.6604 39.2767 32.6945 39.1056C32.7286 38.9344 32.813 38.7772 32.937 38.6538C33.061 38.5305 33.219 38.4464 33.391 38.4124C33.5631 38.3783 33.7414 38.3958 33.9034 38.4626C34.0654 38.5294 34.2039 38.6425 34.3013 38.7875C34.3987 38.9326 34.4506 39.1032 34.4506 39.2776C34.4502 39.5112 34.3568 39.7351 34.1908 39.9003C34.0248 40.0655 33.7998 40.1585 33.5649 40.159Z" fill="#7460A8"/>
<path d="M27.0148 16.8719C27.4956 16.6501 27.9331 16.3454 28.307 15.9719C28.6807 15.5999 28.964 15.148 29.1355 14.6505C29.212 14.7663 29.3143 14.863 29.4345 14.933C29.5547 15.003 29.6896 15.0444 29.8285 15.0541C30.1283 15.0834 30.4306 15.0334 30.7047 14.9092L29.8071 12.9937C29.5351 13.1265 29.3032 13.3282 29.1346 13.5785C29.0525 13.693 28.9983 13.8248 28.9762 13.9636C28.9541 14.1025 28.9648 14.2445 29.0072 14.3785C28.5065 14.2056 27.9765 14.1321 27.4473 14.1621C26.9195 14.1917 26.4022 14.3218 25.9236 14.5452C25.4089 14.7824 24.9411 15.1095 24.5425 15.511C24.1473 15.9048 23.8812 16.4084 23.7793 16.9554C24.2651 17.2318 24.8242 17.3537 25.3816 17.3048C25.9476 17.2583 26.5006 17.1117 27.0148 16.8719Z" fill="#74CBD6"/>
<path d="M33.1795 13.4901C33.4925 13.3456 33.7774 13.1471 34.0209 12.9039C34.2641 12.6619 34.4485 12.3679 34.5602 12.0444C34.6102 12.1197 34.6769 12.1826 34.7552 12.2282C34.8336 12.2738 34.9214 12.3007 35.012 12.307C35.2072 12.326 35.404 12.2935 35.5826 12.2128L34.9977 10.9644C34.8207 11.051 34.6697 11.1823 34.5598 11.3452C34.5065 11.4197 34.4713 11.5053 34.4569 11.5955C34.4425 11.6858 34.4493 11.7781 34.4767 11.8652C34.1507 11.7526 33.8056 11.7047 33.461 11.7244C33.1172 11.7435 32.7802 11.8283 32.4686 11.9741C32.1335 12.1286 31.8289 12.3414 31.5691 12.6026C31.3116 12.8593 31.1384 13.1877 31.0723 13.5444C31.3886 13.7242 31.7526 13.8036 32.1156 13.7719C32.4843 13.7416 32.8445 13.6462 33.1795 13.4901Z" fill="#74CBD6"/>
<path d="M32.0897 7.58792C32.4029 7.44372 32.6879 7.24538 32.9315 7.00214C33.1751 6.75994 33.3595 6.46543 33.4708 6.14125C33.5207 6.21674 33.5874 6.27975 33.6658 6.32539C33.7441 6.37103 33.832 6.39806 33.9226 6.40437C34.1176 6.42366 34.3142 6.39146 34.4927 6.31103L33.9078 5.06348C33.7308 5.14998 33.5797 5.28135 33.4699 5.44437C33.4166 5.51877 33.3814 5.60446 33.3671 5.69469C33.3527 5.78492 33.3597 5.87724 33.3873 5.96437C33.0612 5.85131 32.716 5.80299 32.3712 5.82214C32.0273 5.8413 31.6904 5.92611 31.3788 6.07192C31.0437 6.22636 30.739 6.4392 30.4793 6.70037C30.2214 6.95773 30.0481 7.28691 29.9824 7.64437C30.2988 7.82423 30.6628 7.90362 31.0258 7.87192C31.3946 7.84114 31.7549 7.74495 32.0897 7.58792Z" fill="#74CBD6"/>
<path d="M28.548 12.6819C29.0287 12.4602 29.466 12.1555 29.8398 11.7819C30.2138 11.4102 30.4971 10.9582 30.6682 10.4606C30.7449 10.5763 30.8474 10.6729 30.9676 10.7429C31.0879 10.8129 31.2227 10.8544 31.3617 10.8642C31.6615 10.8934 31.9638 10.8434 32.2379 10.7193L31.3398 8.80371C31.0689 8.93708 30.8378 9.13874 30.6696 9.3886C30.5877 9.50313 30.5336 9.63497 30.5116 9.77377C30.4896 9.91258 30.5002 10.0546 30.5427 10.1886C30.0419 10.0157 29.512 9.94218 28.9828 9.97216C28.454 10.0015 27.9359 10.1316 27.4564 10.3553C26.9419 10.5925 26.4743 10.9194 26.0757 11.3206C25.6799 11.7147 25.4138 12.219 25.3125 12.7668C25.7983 13.0432 26.3574 13.1651 26.9148 13.1162C27.4809 13.0692 28.0339 12.9221 28.548 12.6819Z" fill="#74CBD6"/>
<path d="M35.7648 9.04674C36.1948 8.84852 36.586 8.576 36.9203 8.24186C37.2546 7.90924 37.508 7.50502 37.6611 7.06008C37.7295 7.16388 37.821 7.25057 37.9286 7.3134C38.0362 7.37623 38.1569 7.4135 38.2813 7.4223C38.5495 7.44875 38.8199 7.40413 39.0651 7.29297L38.2608 5.58008C38.0176 5.69886 37.8101 5.87929 37.6593 6.10319C37.5862 6.2053 37.5378 6.32292 37.5181 6.44679C37.4984 6.57065 37.5079 6.69737 37.5458 6.81697C37.0984 6.66221 36.6248 6.59608 36.1517 6.6223C35.6796 6.64868 35.2169 6.76501 34.7889 6.96497C34.3284 7.17694 33.9099 7.46943 33.5534 7.82852C33.1995 8.18092 32.9615 8.63194 32.8711 9.12186C33.3057 9.36844 33.8057 9.47699 34.3041 9.43297C34.8102 9.39193 35.3049 9.26113 35.7648 9.04674Z" fill="#74CBD6"/>
<path d="M32.7008 17.6838C33.1306 17.4855 33.5218 17.2131 33.8563 16.8794C34.1906 16.5466 34.444 16.1422 34.5971 15.6972C34.6655 15.8008 34.757 15.8873 34.8645 15.9499C34.972 16.0126 35.0926 16.0498 35.2169 16.0585C35.4851 16.0846 35.7554 16.0398 36.0006 15.9287L35.1963 14.2158C34.9531 14.3346 34.7457 14.515 34.5949 14.7389C34.5217 14.8411 34.4733 14.9588 34.4536 15.0827C34.4338 15.2067 34.4432 15.3334 34.4809 15.4532C34.0333 15.2984 33.5595 15.2325 33.0864 15.2594C32.6146 15.2856 32.1521 15.4013 31.724 15.6003C31.2638 15.8125 30.8455 16.105 30.489 16.4638C30.135 16.8162 29.8971 17.2672 29.8066 17.7572C30.2411 18.004 30.7412 18.1126 31.2396 18.0683C31.7458 18.0278 32.2407 17.8976 32.7008 17.6838Z" fill="#74CBD6"/>
<path d="M38.689 14.4551C38.9862 14.3182 39.2565 14.13 39.4875 13.8991C39.7185 13.6692 39.8937 13.3898 39.9996 13.0822C40.0469 13.1538 40.1102 13.2136 40.1845 13.2569C40.2588 13.3003 40.3422 13.3259 40.4281 13.332C40.6133 13.3505 40.8002 13.3198 40.9697 13.2431L40.4147 12.0596C40.2466 12.1416 40.1033 12.2662 39.9991 12.4209C39.9485 12.4915 39.9151 12.5728 39.9015 12.6584C39.8878 12.744 39.8943 12.8316 39.9205 12.9142C39.6109 12.8074 39.2833 12.7621 38.9562 12.7809C38.6301 12.7989 38.3104 12.8792 38.0148 13.0173C37.6966 13.164 37.4074 13.3661 37.1609 13.6142C36.9163 13.8578 36.7519 14.1695 36.6895 14.508C36.9898 14.6785 37.3352 14.7537 37.6796 14.7236C38.0295 14.6948 38.3714 14.6039 38.689 14.4551Z" fill="#74CBD6"/>
<path d="M39.2375 11.2728C39.7176 11.0508 40.1545 10.7461 40.5279 10.3728C40.9016 10.0008 41.1849 9.54884 41.3563 9.05142C41.4329 9.16714 41.5353 9.26374 41.6555 9.33373C41.7756 9.40372 41.9104 9.44521 42.0494 9.45498C42.3492 9.48425 42.6514 9.43427 42.9256 9.31009L42.0279 7.39453C41.756 7.52733 41.524 7.72907 41.3554 7.97942C41.2734 8.09387 41.2192 8.22569 41.1971 8.36451C41.175 8.50334 41.1856 8.64537 41.2281 8.77942C40.7274 8.60652 40.1974 8.53298 39.6682 8.56298C39.1403 8.59258 38.6231 8.72264 38.1445 8.94609C37.6305 9.18337 37.1633 9.51031 36.7651 9.91142C36.3696 10.3057 36.1036 10.8099 36.002 11.3576C36.4877 11.6341 37.0469 11.7558 37.6043 11.7065C38.1703 11.66 38.7234 11.5131 39.2375 11.2728Z" fill="#74CBD6"/>
<path d="M51.9673 34.1212C51.4132 34.1217 50.8609 34.0602 50.3207 33.9381C49.8111 33.8259 49.3132 33.6662 48.8336 33.4612C48.3832 33.2657 48.0188 33.0701 47.7402 32.8746V30.1635C48.0978 30.4006 48.4761 30.6052 48.8707 30.7746C49.3154 30.9709 49.7758 31.1303 50.247 31.251C50.6716 31.3666 51.1093 31.4283 51.5495 31.4346C52.1721 31.4346 52.6514 31.3205 52.9874 31.0924C53.3234 30.8642 53.4913 30.5546 53.491 30.1635C53.491 29.8541 53.3517 29.6097 53.0732 29.4301C52.7946 29.2506 52.3851 29.0701 51.8444 28.8888L50.3207 28.3506C49.3868 28.0418 48.7355 27.602 48.3667 27.031C47.9979 26.4601 47.8137 25.7838 47.814 25.0021C47.814 24.2193 48.0146 23.5389 48.4158 22.9608C48.8171 22.3827 49.3831 21.9264 50.1138 21.5919C50.843 21.258 51.6664 21.0909 52.5839 21.0906C53.314 21.0844 54.0402 21.196 54.7345 21.4208C55.3979 21.6406 55.9018 21.9054 56.2461 22.215V24.9528C55.8008 24.6559 55.3275 24.4028 54.8328 24.1972C54.2709 23.9531 53.664 23.8281 53.0508 23.8301C52.461 23.8301 51.9941 23.9605 51.65 24.2212C51.306 24.482 51.1339 24.7918 51.1339 25.1506C51.1339 25.4113 51.2364 25.6516 51.4413 25.8715C51.6463 26.0913 52.0187 26.2827 52.5584 26.4457L53.9592 26.9106C54.9259 27.1876 55.6386 27.599 56.0973 28.1448C56.5561 28.6906 56.7856 29.3629 56.7859 30.1617C56.7926 30.8899 56.5643 31.601 56.1344 32.1906C55.7001 32.7938 55.1183 33.2664 54.3891 33.6083C53.6599 33.9503 52.8526 34.1212 51.9673 34.1212Z" fill="#2B357F"/>
<path d="M65.2406 34.1211C64.3577 34.1273 63.4818 33.9655 62.6601 33.6442C61.8735 33.3366 61.1522 32.8842 60.5341 32.3109C59.9195 31.7403 59.4302 31.0496 59.0966 30.282C58.7523 29.5013 58.5801 28.6462 58.5801 27.7167C58.5801 26.5105 58.8504 25.4063 59.3911 24.4042C59.9127 23.4221 60.6827 22.5921 61.6252 21.9962C62.5752 21.3936 63.6565 21.0921 64.8692 21.0918C66.0819 21.0915 67.1265 21.3522 68.0029 21.874C68.8706 22.3865 69.5705 23.138 70.0181 24.0376C70.4852 24.9585 70.7187 26.0219 70.7187 27.2278V28.5478H61.4559V26.4211H67.7227C67.6902 25.8179 67.5264 25.3248 67.2312 24.942C66.9498 24.57 66.5776 24.2755 66.1499 24.0865C65.7242 23.8992 65.2636 23.8034 64.7982 23.8051C64.1592 23.8051 63.6062 23.9681 63.1391 24.294C62.672 24.6199 62.3076 25.0762 62.0457 25.6629C61.7836 26.2496 61.6525 26.9342 61.6525 27.7167C61.6525 28.4171 61.8081 29.0364 62.1194 29.5745C62.4299 30.1118 62.8852 30.5521 63.434 30.8456C64 31.1555 64.6431 31.3103 65.3634 31.31C66.2809 31.31 67.1043 31.1308 67.8335 30.7722C68.5627 30.4137 69.1403 30.0471 69.5663 29.6722V32.5567C69.3203 32.7851 68.9761 33.0222 68.5337 33.2678C68.0547 33.5273 67.5477 33.7323 67.0225 33.8789C66.443 34.0429 65.8431 34.1245 65.2406 34.1211Z" fill="#2B357F"/>
<path d="M78.2651 34.1211C77.2987 34.1256 76.35 33.8632 75.5246 33.3634C74.681 32.8596 74.0011 32.1263 73.4848 31.1634C72.9686 30.2004 72.7106 29.0352 72.7109 27.6678C72.7109 26.2829 72.9689 25.1014 73.4848 24.1234C74.0008 23.1453 74.6971 22.3955 75.5738 21.874C76.4505 21.3525 77.4213 21.0918 78.4862 21.0918C79.1744 21.0918 79.8585 21.2466 80.5385 21.5562C81.1907 21.8458 81.773 22.2709 82.2463 22.8029V21.4096H85.3679V33.7545H82.2463V31.6767C81.8856 32.3451 81.3613 32.9196 80.6735 33.4002C79.9857 33.8808 79.1828 34.1211 78.2651 34.1211ZM79.0515 31.0167C79.6029 31.0182 80.1437 30.8658 80.6123 30.5767C81.0954 30.2834 81.4928 29.8678 81.8044 29.33C82.116 28.7922 82.2633 28.1567 82.2463 27.4234V25.6629C81.8323 25.2125 81.3466 24.8328 80.8089 24.5389C80.2918 24.2615 79.7127 24.1185 79.1252 24.1234C78.4698 24.1234 77.9088 24.2903 77.442 24.6242C76.9723 24.9613 76.596 25.4111 76.3481 25.9318C76.0852 26.4729 75.9506 27.0668 75.9549 27.6678C75.9499 28.2491 76.0847 28.8231 76.3481 29.342C76.5959 29.8397 76.9737 30.2618 77.442 30.5642C77.9088 30.8665 78.4453 31.0173 79.0515 31.0167Z" fill="#2B357F"/>
<path d="M94.8541 34.1211C93.9202 34.1211 93.0563 33.95 92.2624 33.6078C90.6969 32.9397 89.4602 31.6832 88.8218 30.1122C88.3421 28.9349 88.2156 27.6445 88.4577 26.3971C88.6998 25.1498 89.3001 23.9989 90.186 23.0838C90.7781 22.4713 91.4831 21.9776 92.2624 21.6296C93.0569 21.2714 93.9208 21.0921 94.8541 21.0918C95.7873 21.0915 96.5452 21.2382 97.1275 21.5318C97.709 21.8251 98.1718 22.1103 98.5158 22.3874V25.2474C98.0715 24.928 97.5885 24.6653 97.0784 24.4656C96.5458 24.2537 95.8944 24.1476 95.1244 24.1474C94.5152 24.1439 93.9165 24.3044 93.3916 24.6118C92.869 24.9122 92.4331 25.3415 92.1262 25.8585C91.8149 26.3802 91.6592 26.9752 91.6592 27.6434C91.6592 28.3115 91.8067 28.9063 92.1016 29.4278C92.3923 29.9454 92.8217 30.3727 93.342 30.662C93.8854 30.9666 94.5002 31.1227 95.1239 31.1145C95.8937 31.1145 96.545 31.0085 97.0779 30.7967C97.5841 30.5993 98.0663 30.3459 98.5154 30.0411V32.8767C98.1713 33.17 97.7086 33.4515 97.1271 33.7211C96.5456 33.9908 95.7879 34.1241 94.8541 34.1211Z" fill="#2B357F"/>
<path d="M105.988 34.1211C105.021 34.1256 104.073 33.8633 103.247 33.3634C102.403 32.8596 101.723 32.1263 101.208 31.1634C100.692 30.2004 100.434 29.0352 100.434 27.6678C100.434 26.2829 100.692 25.1014 101.208 24.1234C101.723 23.1453 102.42 22.3955 103.296 21.874C104.173 21.3525 105.144 21.0918 106.209 21.0918C106.897 21.0918 107.581 21.2466 108.261 21.5562C108.913 21.8459 109.496 22.271 109.969 22.8029V21.4096H113.092V33.7545H109.969V31.6767C109.609 32.3451 109.084 32.9196 108.396 33.4002C107.708 33.8808 106.905 34.1211 105.988 34.1211ZM106.774 31.0167C107.325 31.0183 107.866 30.8658 108.334 30.5767C108.818 30.2834 109.215 29.8678 109.527 29.33C109.839 28.7922 109.986 28.1567 109.969 27.4234V25.6629C109.555 25.2125 109.069 24.8328 108.532 24.5389C108.014 24.2615 107.435 24.1185 106.848 24.1234C106.193 24.1234 105.631 24.2903 105.164 24.6242C104.695 24.9613 104.319 25.4112 104.071 25.9318C103.808 26.4729 103.673 27.0668 103.678 27.6678C103.673 28.2491 103.807 28.8231 104.071 29.342C104.318 29.8396 104.696 30.2618 105.164 30.5642C105.631 30.8665 106.168 31.0173 106.774 31.0167Z" fill="#2B357F"/>
<path d="M116.924 33.755V21.4101H120.045V33.755H116.924ZM120.045 26.8612V23.7337C120.471 23.0003 120.975 22.3892 121.557 21.9003C122.139 21.4114 122.798 21.167 123.535 21.167C123.993 21.167 124.395 21.2403 124.741 21.387V24.883C124.499 24.7381 124.239 24.627 123.967 24.5528C123.682 24.4775 123.389 24.4405 123.094 24.4425C122.389 24.4425 121.795 24.6748 121.312 25.1394C120.829 25.604 120.407 26.178 120.045 26.8612Z" fill="#2B357F"/>
<path d="M132.286 34.121C131.549 34.121 130.881 33.958 130.283 33.6321C129.691 33.3126 129.201 32.8342 128.87 32.2512C128.525 31.6562 128.353 30.9514 128.353 30.1365V23.9997H126.289V22.4117C127.092 22.1349 127.751 21.6216 128.267 20.8717C128.783 20.1217 129.238 19.1847 129.631 18.0605H131.475V21.4094H135.211V23.9997H131.475V29.3299C131.475 29.8843 131.619 30.3201 131.906 30.6374C132.193 30.9548 132.615 31.1137 133.172 31.1143C133.663 31.1143 134.089 31.0403 134.449 30.8921C134.779 30.7602 135.1 30.605 135.408 30.4277V33.0677C135.113 33.3773 134.699 33.6291 134.167 33.8232C133.634 34.0173 133.007 34.1165 132.286 34.121Z" fill="#2B357F"/>
</svg>
