<svg width="147" height="40" viewBox="0 0 147 40" fill="none" xmlns="http://www.w3.org/2000/svg">
<path d="M37.7897 26.7295C37.9028 26.7178 38.0086 26.6772 38.0926 26.6133C38.1766 26.5495 38.2346 26.4656 38.2584 26.3732L39.3661 22.074C39.3661 22.074 39.3661 22.0717 39.3661 22.071L40.5833 17.3591C40.6004 17.2928 40.5994 17.2242 40.5804 17.1583C40.5614 17.0923 40.5249 17.0307 40.4735 16.978C40.4221 16.9252 40.3572 16.8827 40.2834 16.8534C40.2096 16.8241 40.1289 16.8089 40.0471 16.8088H18.6054L18.2757 14.6728C18.2429 14.4634 18.1193 14.271 17.928 14.1315C17.7367 13.992 17.4907 13.9149 17.2359 13.9147H17.0875C16.9675 13.682 16.7678 13.4837 16.5131 13.3442C16.2583 13.2047 15.9598 13.1302 15.6546 13.1299H13.1523C12.7389 13.1299 12.3425 13.266 12.0502 13.5083C11.758 13.7505 11.5938 14.0791 11.5938 14.4217C11.5938 14.7644 11.758 15.0929 12.0502 15.3352C12.3425 15.5775 12.7389 15.7136 13.1523 15.7136H15.6546C15.9827 15.7132 16.3024 15.6271 16.5682 15.4676C16.8339 15.308 17.0322 15.083 17.1349 14.8247H17.1917L19.508 29.811C19.5423 30.0292 19.671 30.2296 19.8703 30.3749C20.0695 30.5202 20.3257 30.6006 20.5912 30.601H35.1851C35.3281 30.5976 35.4639 30.5482 35.5636 30.4631C35.6633 30.3781 35.7191 30.2642 35.7191 30.1456C35.7191 30.027 35.6633 29.9132 35.5636 29.8281C35.4639 29.7431 35.3281 29.6936 35.1851 29.6903H20.5992L20.4205 28.5421L37.7897 26.7295ZM39.3661 17.718L38.3831 21.5251H32.9054V17.718H39.3661ZM15.6546 14.8036H13.1523C13.0328 14.8005 12.9194 14.759 12.8362 14.6878C12.7529 14.6166 12.7064 14.5214 12.7064 14.4223C12.7064 14.3232 12.7529 14.2279 12.8362 14.1568C12.9194 14.0856 13.0328 14.0441 13.1523 14.041H15.6546C15.7741 14.0441 15.8875 14.0856 15.9707 14.1568C16.0539 14.2279 16.1005 14.3232 16.1005 14.4223C16.1005 14.5214 16.0539 14.6166 15.9707 14.6878C15.8875 14.759 15.7741 14.8005 15.6546 14.8036ZM31.8066 21.5251H26.1743V17.718H31.8066V21.5251ZM31.8066 22.4354V26.4373L26.1743 27.0258V22.4354H31.8066ZM25.076 22.4354V27.1391L20.2802 27.6414L19.4759 22.4354H25.076ZM19.3347 21.5251L18.7462 17.718H25.076V21.5251H19.3347ZM37.266 25.8673L32.9054 26.3221V22.4332H38.1507L37.266 25.8673Z" fill="white"/>
<path d="M21.6958 31.167C21.3076 31.1669 20.928 31.2623 20.6051 31.441C20.2823 31.6198 20.0306 31.8738 19.882 32.1711C19.7333 32.4684 19.6944 32.7956 19.7701 33.1112C19.8458 33.4269 20.0327 33.7168 20.3072 33.9444C20.5817 34.172 20.9315 34.327 21.3122 34.3898C21.693 34.4526 22.0877 34.4204 22.4464 34.2973C22.8051 34.1741 23.1117 33.9656 23.3274 33.698C23.5432 33.4304 23.6583 33.1158 23.6583 32.794C23.6575 32.3628 23.4504 31.9494 23.0826 31.6444C22.7148 31.3395 22.2161 31.1678 21.6958 31.167ZM21.6958 33.5285C21.5204 33.5285 21.349 33.4855 21.2031 33.4048C21.0573 33.3241 20.9436 33.2093 20.8764 33.075C20.8093 32.9407 20.7917 32.793 20.8259 32.6504C20.86 32.5078 20.9445 32.3769 21.0685 32.2741C21.1925 32.1713 21.3505 32.1013 21.5225 32.0729C21.6945 32.0446 21.8728 32.0592 22.0348 32.1149C22.1968 32.1705 22.3353 32.2648 22.4326 32.3857C22.53 32.5065 22.582 32.6487 22.5819 32.794C22.5815 32.9887 22.488 33.1754 22.322 33.313C22.1559 33.4507 21.9307 33.5282 21.6958 33.5285Z" fill="white"/>
<path d="M33.5649 31.167C33.1767 31.1669 32.7971 31.2623 32.4743 31.441C32.1514 31.6198 31.8997 31.8738 31.7511 32.1711C31.6025 32.4684 31.5635 32.7956 31.6392 33.1112C31.7149 33.4269 31.9018 33.7168 32.1763 33.9444C32.4508 34.172 32.8006 34.327 33.1814 34.3898C33.5622 34.4526 33.9569 34.4204 34.3156 34.2973C34.6743 34.1741 34.9809 33.9656 35.1966 33.698C35.4123 33.4304 35.5274 33.1158 35.5274 32.794C35.5266 32.3628 35.3196 31.9494 34.9517 31.6444C34.5839 31.3395 34.0852 31.1678 33.5649 31.167ZM33.5649 33.5285C33.3895 33.5286 33.218 33.4856 33.0721 33.405C32.9262 33.3243 32.8125 33.2096 32.7452 33.0753C32.678 32.941 32.6604 32.7932 32.6945 32.6506C32.7286 32.508 32.813 32.377 32.937 32.2742C33.061 32.1714 33.219 32.1013 33.391 32.073C33.5631 32.0446 33.7414 32.0592 33.9034 32.1148C34.0654 32.1705 34.2039 32.2647 34.3013 32.3856C34.3987 32.5065 34.4506 32.6487 34.4506 32.794C34.4502 32.9887 34.3568 33.1752 34.1908 33.3129C34.0248 33.4506 33.7998 33.5281 33.5649 33.5285Z" fill="white"/>
<path d="M27.0168 14.1225C27.4975 13.9377 27.9351 13.6838 28.309 13.3725C28.6827 13.0625 28.966 12.6859 29.1374 12.2714C29.2139 12.3679 29.3163 12.4484 29.4365 12.5067C29.5567 12.5651 29.6915 12.5996 29.8305 12.6077C30.1303 12.6321 30.4325 12.5904 30.7067 12.4869L29.809 10.8906C29.5371 11.0013 29.3051 11.1694 29.1365 11.378C29.0545 11.4734 29.0003 11.5833 28.9782 11.6989C28.9561 11.8146 28.9667 11.933 29.0092 12.0447C28.5084 11.9006 27.9785 11.8393 27.4493 11.8643C26.9214 11.889 26.4042 11.9974 25.9256 12.1836C25.4109 12.3813 24.9431 12.6539 24.5444 12.9884C24.1493 13.3166 23.8832 13.7362 23.7812 14.1921C24.267 14.4224 24.8261 14.524 25.3836 14.4832C25.9495 14.4445 26.5026 14.3223 27.0168 14.1225Z" fill="white"/>
<path d="M33.1795 11.3045C33.4925 11.184 33.7774 11.0187 34.0209 10.816C34.2641 10.6144 34.4485 10.3694 34.5602 10.0997C34.6102 10.1625 34.6769 10.2149 34.7552 10.2529C34.8336 10.2909 34.9214 10.3134 35.012 10.3186C35.2072 10.3344 35.404 10.3073 35.5826 10.2401L34.9977 9.19971C34.8207 9.27191 34.6697 9.38136 34.5598 9.51711C34.5065 9.57913 34.4713 9.65052 34.4569 9.7257C34.4425 9.80088 34.4493 9.8778 34.4767 9.95045C34.1507 9.85659 33.8056 9.81669 33.461 9.83304C33.1172 9.84901 32.7802 9.91968 32.4686 10.0412C32.1335 10.1699 31.8289 10.3473 31.5691 10.5649C31.3116 10.7789 31.1384 11.0525 31.0723 11.3497C31.3886 11.4996 31.7526 11.5658 32.1156 11.5393C32.4843 11.5141 32.8445 11.4346 33.1795 11.3045Z" fill="white"/>
<path d="M32.0897 6.38593C32.4029 6.26576 32.6879 6.10048 32.9315 5.89778C33.1751 5.69594 33.3596 5.45052 33.4708 5.18037C33.5207 5.24328 33.5874 5.29579 33.6658 5.33382C33.7441 5.37185 33.832 5.39438 33.9226 5.39963C34.1176 5.41571 34.3142 5.38888 34.4927 5.32186L33.9078 4.28223C33.7308 4.35431 33.5797 4.46379 33.4699 4.59963C33.4166 4.66163 33.3814 4.73304 33.3671 4.80824C33.3527 4.88343 33.3597 4.96036 33.3873 5.03297C33.0612 4.93876 32.716 4.89849 32.3712 4.91445C32.0273 4.93042 31.6904 5.00108 31.3788 5.1226C31.0437 5.2513 30.739 5.42866 30.4793 5.6463C30.2214 5.86077 30.0481 6.13509 29.9824 6.43297C30.2988 6.58285 30.6628 6.64902 31.0258 6.6226C31.3946 6.59694 31.7549 6.51679 32.0897 6.38593Z" fill="white"/>
<path d="M28.548 10.6313C29.0287 10.4465 29.466 10.1925 29.8398 9.88127C30.2138 9.57148 30.4971 9.19481 30.6682 8.78015C30.7449 8.87657 30.8474 8.95706 30.9676 9.01538C31.0879 9.0737 31.2227 9.10828 31.3617 9.11645C31.6615 9.14083 31.9638 9.09918 32.2379 8.99571L31.3398 7.39941C31.0689 7.51056 30.8378 7.67861 30.6696 7.88682C30.5877 7.98226 30.5336 8.09213 30.5116 8.2078C30.4896 8.32347 30.5002 8.44179 30.5427 8.55349C30.0419 8.40942 29.512 8.34814 28.9828 8.37312C28.454 8.3976 27.9359 8.50598 27.4564 8.69238C26.9419 8.89006 26.4743 9.16251 26.0757 9.49682C25.6799 9.82523 25.4138 10.2455 25.3125 10.702C25.7983 10.9323 26.3574 11.0339 26.9148 10.9931C27.4809 10.954 28.0339 10.8314 28.548 10.6313Z" fill="white"/>
<path d="M35.7648 7.60129C36.1948 7.4361 36.586 7.209 36.9203 6.93055C37.2546 6.65337 37.508 6.31652 37.6611 5.94574C37.7295 6.03224 37.821 6.10448 37.9286 6.15684C38.0362 6.2092 38.1569 6.24025 38.2813 6.24759C38.5495 6.26963 38.8199 6.23245 39.0651 6.13981L38.2608 4.7124C38.0176 4.81139 37.8101 4.96175 37.6593 5.14833C37.5861 5.23342 37.5378 5.33144 37.5181 5.43466C37.4984 5.53788 37.5079 5.64348 37.5458 5.74314C37.0984 5.61418 36.6248 5.55907 36.1517 5.58092C35.6796 5.6029 35.2169 5.69985 34.7889 5.86648C34.3284 6.04312 33.9099 6.28686 33.5534 6.58611C33.1995 6.87977 32.9615 7.25562 32.8711 7.66388C33.3057 7.86937 33.8057 7.95983 34.3041 7.92314C34.8102 7.88894 35.3049 7.77994 35.7648 7.60129Z" fill="white"/>
<path d="M32.7008 14.7992C33.1306 14.6339 33.5218 14.4069 33.8563 14.1288C34.1906 13.8515 34.444 13.5145 34.5971 13.1436C34.6655 13.23 34.757 13.302 34.8645 13.3543C34.972 13.4065 35.0926 13.4375 35.2169 13.4447C35.4851 13.4665 35.7554 13.4292 36.0006 13.3366L35.1963 11.9092C34.9531 12.0082 34.7457 12.1585 34.5949 12.3451C34.5217 12.4303 34.4733 12.5283 34.4536 12.6316C34.4338 12.7349 34.4432 12.8405 34.4809 12.9403C34.0333 12.8113 33.5595 12.7564 33.0864 12.7788C32.6146 12.8007 32.1521 12.8971 31.724 13.0629C31.2638 13.2398 30.8455 13.4835 30.489 13.7825C30.135 14.0762 29.8971 14.452 29.8066 14.8603C30.2411 15.066 30.7412 15.1565 31.2396 15.1195C31.7458 15.0858 32.2407 14.9773 32.7008 14.7992Z" fill="white"/>
<path d="M38.691 12.1086C38.9881 11.9945 39.2585 11.8377 39.4895 11.6453C39.7205 11.4537 39.8956 11.2208 40.0015 10.9645C40.0489 11.0242 40.1121 11.074 40.1864 11.1101C40.2608 11.1462 40.3441 11.1676 40.43 11.1727C40.6153 11.1881 40.8021 11.1625 40.9716 11.0986L40.4166 10.1123C40.2486 10.1806 40.1052 10.2845 40.0011 10.4134C39.9505 10.4722 39.917 10.54 39.9034 10.6113C39.8898 10.6826 39.8963 10.7556 39.9224 10.8245C39.6129 10.7355 39.2853 10.6978 38.9582 10.7134C38.632 10.7284 38.3124 10.7953 38.0167 10.9105C37.6985 11.0326 37.4093 11.2011 37.1628 11.4079C36.9183 11.6108 36.7539 11.8706 36.6914 12.1527C36.9917 12.2947 37.3372 12.3574 37.6816 12.3323C38.0315 12.3083 38.3733 12.2326 38.691 12.1086Z" fill="white"/>
<path d="M39.2375 9.45646C39.7176 9.27151 40.1545 9.0176 40.5279 8.70646C40.9016 8.39647 41.1849 8.01987 41.3563 7.60535C41.4329 7.70178 41.5353 7.78228 41.6555 7.84061C41.7756 7.89893 41.9104 7.93351 42.0494 7.94165C42.3492 7.96604 42.6514 7.92439 42.9256 7.82091L42.0279 6.22461C41.756 6.33528 41.524 6.50339 41.3554 6.71202C41.2734 6.80739 41.2192 6.91724 41.1971 7.03293C41.175 7.14861 41.1856 7.26697 41.2281 7.37868C40.7274 7.2346 40.1974 7.17332 39.6682 7.19831C39.1403 7.22299 38.6231 7.33137 38.1445 7.51757C37.6305 7.71531 37.1633 7.98776 36.7651 8.32202C36.3696 8.65058 36.1036 9.07078 36.002 9.5272C36.4877 9.75756 37.0469 9.85902 37.6043 9.81794C38.1703 9.77914 38.7234 9.65672 39.2375 9.45646Z" fill="white"/>
<path d="M51.9692 28.4968C51.4152 28.4971 50.8629 28.4459 50.3226 28.3442C49.813 28.2507 49.3151 28.1176 48.8356 27.9468C48.3852 27.7838 48.0207 27.6209 47.7422 27.4579V25.1986C48.0997 25.3963 48.4781 25.5667 48.8727 25.7079C49.3174 25.8715 49.7777 26.0043 50.2489 26.1049C50.6736 26.2013 51.1112 26.2527 51.5514 26.2579C52.174 26.2579 52.6533 26.1628 52.9893 25.9727C53.3254 25.7826 53.4932 25.5246 53.4929 25.1986C53.4929 24.9409 53.3537 24.7372 53.0751 24.5875C52.7966 24.4379 52.387 24.2875 51.8463 24.1364L50.3226 23.6879C49.3888 23.4306 48.7374 23.0641 48.3686 22.5883C47.9999 22.1125 47.8156 21.5489 47.8159 20.8975C47.8159 20.2452 48.0165 19.6781 48.4178 19.1964C48.8191 18.7147 49.385 18.3344 50.1158 18.0557C50.845 17.7774 51.6683 17.6381 52.5858 17.6379C53.3159 17.6328 54.0422 17.7257 54.7364 17.9131C55.3998 18.0963 55.9037 18.3169 56.2481 18.5749V20.8564C55.8028 20.609 55.3294 20.3981 54.8348 20.2268C54.2728 20.0234 53.666 19.9192 53.0528 19.9209C52.463 19.9209 51.996 20.0295 51.652 20.2468C51.3079 20.4641 51.1359 20.7222 51.1359 21.0212C51.1359 21.2385 51.2384 21.4388 51.4433 21.622C51.6482 21.8052 52.0206 21.9647 52.5604 22.1005L53.9612 22.4879C54.9278 22.7188 55.6405 23.0616 56.0993 23.5164C56.558 23.9712 56.7876 24.5315 56.7879 25.1972C56.7946 25.804 56.5662 26.3966 56.1364 26.8879C55.7021 27.3906 55.1203 27.7844 54.391 28.0694C53.6618 28.3543 52.8545 28.4968 51.9692 28.4968Z" fill="white"/>
<path d="M65.2406 28.4969C64.3577 28.5021 63.4818 28.3672 62.6601 28.0995C61.8735 27.8431 61.1522 27.4662 60.5341 26.9884C59.9195 26.5129 59.4302 25.9373 59.0966 25.2977C58.7523 24.6471 58.5801 23.9345 58.5801 23.1599C58.5801 22.1547 58.8504 21.2346 59.3911 20.3995C59.9127 19.581 60.6827 18.8894 61.6252 18.3929C62.5752 17.8906 63.6565 17.6394 64.8692 17.6392C66.0819 17.6389 67.1265 17.8562 68.0029 18.291C68.8705 18.7181 69.5705 19.3443 70.0181 20.094C70.4852 20.8614 70.7187 21.7476 70.7187 22.7525V23.8525H61.4559V22.0803H67.7227C67.6902 21.5776 67.5264 21.1667 67.2312 20.8477C66.9498 20.5377 66.5776 20.2923 66.1499 20.1347C65.7242 19.9787 65.2636 19.8988 64.7982 19.9003C64.1592 19.9003 63.6062 20.0361 63.1391 20.3077C62.672 20.5793 62.3075 20.9595 62.0457 21.4484C61.7836 21.9373 61.6525 22.5078 61.6525 23.1599C61.6525 23.7436 61.8081 24.2597 62.1194 24.708C62.4299 25.1558 62.8852 25.5227 63.434 25.7673C64 26.0256 64.6431 26.1546 65.3634 26.1543C66.2809 26.1543 67.1043 26.005 67.8335 25.7062C68.5627 25.4074 69.1403 25.1019 69.5663 24.7895V27.1932C69.3203 27.3836 68.9761 27.5811 68.5337 27.7858C68.0547 28.0021 67.5477 28.173 67.0225 28.2951C66.443 28.4318 65.8431 28.4997 65.2406 28.4969Z" fill="white"/>
<path d="M78.2651 28.4969C77.2987 28.5006 76.35 28.282 75.5246 27.8655C74.681 27.4457 74.0011 26.8346 73.4848 26.0321C72.9686 25.2297 72.7106 24.2587 72.7109 23.1192C72.7109 21.9651 72.9689 20.9805 73.4848 20.1655C74.0008 19.3504 74.6971 18.7256 75.5738 18.291C76.4505 17.8564 77.4213 17.6392 78.4862 17.6392C79.1744 17.6392 79.8585 17.7682 80.5385 18.0262C81.1907 18.2675 81.773 18.6217 82.2463 19.0651V17.904H85.3679V28.1914H82.2463V26.4599C81.8856 27.0169 81.3613 27.4957 80.6735 27.8962C79.9857 28.2967 79.1828 28.4969 78.2651 28.4969ZM79.0515 25.9099C79.6029 25.9112 80.1437 25.7842 80.6123 25.5432C81.0954 25.2988 81.4928 24.9525 81.8044 24.5043C82.116 24.0562 82.2633 23.5266 82.2463 22.9155V21.4484C81.8323 21.0731 81.3466 20.7566 80.8089 20.5118C80.2918 20.2805 79.7127 20.1614 79.1252 20.1655C78.4698 20.1655 77.9088 20.3046 77.442 20.5829C76.9723 20.8638 76.596 21.2386 76.3481 21.6725C76.0852 22.1234 75.9506 22.6183 75.9549 23.1192C75.9499 23.6036 76.0847 24.0819 76.3481 24.5143C76.5959 24.9291 76.9737 25.2809 77.442 25.5329C77.9088 25.7847 78.4453 25.9104 79.0515 25.9099Z" fill="white"/>
<path d="M94.8541 28.4969C93.9202 28.4969 93.0563 28.3543 92.2624 28.0692C90.6969 27.5124 89.4602 26.4654 88.8218 25.1562C88.3421 24.1751 88.2156 23.0997 88.4577 22.0603C88.6998 21.0208 89.3001 20.0618 90.186 19.2992C90.7781 18.7887 91.4831 18.3773 92.2624 18.0873C93.0569 17.7888 93.9208 17.6394 94.8541 17.6392C95.7873 17.6389 96.5452 17.7611 97.1275 18.0058C97.709 18.2503 98.1718 18.4879 98.5158 18.7188V21.1021C98.0715 20.836 97.5885 20.6171 97.0784 20.4506C96.5458 20.2741 95.8944 20.1857 95.1244 20.1855C94.5152 20.1826 93.9165 20.3163 93.3916 20.5725C92.869 20.8228 92.4331 21.1806 92.1262 21.6114C91.8149 22.0462 91.6592 22.542 91.6592 23.0988C91.6592 23.6556 91.8067 24.1513 92.1016 24.5858C92.3923 25.0172 92.8217 25.3732 93.342 25.6143C93.8854 25.8682 94.5002 25.9982 95.1239 25.9914C95.8937 25.9914 96.545 25.9031 97.0779 25.7266C97.5841 25.5621 98.0663 25.3509 98.5154 25.0969V27.4599C98.1713 27.7043 97.7086 27.9389 97.1271 28.1636C96.5456 28.3883 95.7879 28.4994 94.8541 28.4969Z" fill="white"/>
<path d="M105.988 28.4969C105.021 28.5007 104.073 28.2821 103.247 27.8655C102.403 27.4457 101.723 26.8346 101.208 26.0321C100.692 25.2297 100.434 24.2587 100.434 23.1192C100.434 21.9651 100.692 20.9805 101.208 20.1655C101.723 19.3504 102.42 18.7256 103.296 18.291C104.173 17.8564 105.144 17.6392 106.209 17.6392C106.897 17.6392 107.581 17.7682 108.261 18.0262C108.913 18.2676 109.496 18.6218 109.969 19.0651V17.904H113.092V28.1914H109.969V26.4599C109.609 27.0169 109.084 27.4957 108.396 27.8962C107.708 28.2967 106.905 28.4969 105.988 28.4969ZM106.774 25.9099C107.325 25.9113 107.866 25.7842 108.334 25.5432C108.818 25.2988 109.215 24.9525 109.527 24.5043C109.839 24.0562 109.986 23.5266 109.969 22.9155V21.4484C109.555 21.0731 109.069 20.7566 108.532 20.5118C108.014 20.2805 107.435 20.1614 106.848 20.1655C106.193 20.1655 105.631 20.3046 105.164 20.5829C104.695 20.8638 104.319 21.2386 104.071 21.6725C103.808 22.1234 103.673 22.6183 103.678 23.1192C103.673 23.6036 103.807 24.0819 104.071 24.5143C104.318 24.929 104.696 25.2808 105.164 25.5329C105.631 25.7847 106.168 25.9104 106.774 25.9099Z" fill="white"/>
<path d="M116.926 28.1917V17.9043H120.047V28.1917H116.926ZM120.047 22.4468V19.8405C120.473 19.2294 120.976 18.7202 121.559 18.3128C122.141 17.9054 122.8 17.7017 123.537 17.7017C123.995 17.7017 124.397 17.7628 124.743 17.885V20.7983C124.501 20.6776 124.241 20.585 123.969 20.5231C123.684 20.4604 123.391 20.4296 123.096 20.4313C122.391 20.4313 121.797 20.6249 121.314 21.012C120.831 21.3992 120.409 21.8775 120.047 22.4468Z" fill="white"/>
<path d="M132.286 28.497C131.549 28.497 130.881 28.3612 130.283 28.0896C129.691 27.8234 129.201 27.4246 128.87 26.9388C128.525 26.443 128.353 25.8556 128.353 25.1766V20.0625H126.289V18.7392C127.092 18.5086 127.751 18.0808 128.267 17.4559C128.783 16.8309 129.238 16.0501 129.631 15.1133H131.475V17.904H135.211V20.0625H131.475V24.5044C131.475 24.9664 131.619 25.3296 131.906 25.594C132.193 25.8585 132.615 25.9909 133.172 25.9914C133.663 25.9914 134.089 25.9297 134.449 25.8062C134.779 25.6963 135.1 25.567 135.408 25.4192V27.6192C135.113 27.8772 134.699 28.0871 134.167 28.2488C133.634 28.4106 133.007 28.4933 132.286 28.497Z" fill="white"/>
</svg>
