<svg width="48" height="48" viewBox="0 0 48 48" fill="none" xmlns="http://www.w3.org/2000/svg">
<path d="M33.8805 18.311L32.9867 22.4888H28.0005V18.311H33.8805ZM32.4449 28.2057C32.5478 28.1928 32.6442 28.1481 32.7205 28.0779C32.7969 28.0078 32.8496 27.9156 32.8712 27.8142L33.8805 23.0928C33.8805 23.0928 33.8805 23.0902 33.8805 23.0893L34.9872 17.9137C35.0027 17.8408 35.0018 17.7654 34.9845 17.6929C34.9671 17.6204 34.9338 17.5528 34.887 17.4948C34.8401 17.4369 34.7809 17.3902 34.7136 17.358C34.6464 17.3259 34.5728 17.3093 34.4983 17.3093H14.9823L14.6818 14.9648C14.6516 14.7348 14.5388 14.5236 14.3644 14.3706C14.19 14.2176 13.9658 14.1332 13.7338 14.1333H13.6005C13.491 13.8779 13.3091 13.6602 13.0773 13.5071C12.8455 13.3539 12.5739 13.272 12.2961 13.2715H10.0183C9.64202 13.2715 9.28118 13.421 9.01513 13.687C8.74908 13.9531 8.59961 14.3139 8.59961 14.6902C8.59961 15.0664 8.74908 15.4272 9.01513 15.6933C9.28118 15.9594 9.64202 16.1088 10.0183 16.1088H12.2961C12.595 16.1085 12.8862 16.0139 13.1283 15.8387C13.3705 15.6634 13.5512 15.4162 13.6449 15.1324H13.6965L15.8049 31.5897C15.8363 31.8293 15.9536 32.0493 16.135 32.2089C16.3164 32.3685 16.5496 32.4567 16.7912 32.4573H30.0734C30.206 32.4573 30.3332 32.4046 30.4269 32.3108C30.5207 32.217 30.5734 32.0899 30.5734 31.9573C30.5734 31.8247 30.5207 31.6975 30.4269 31.6037C30.3332 31.5099 30.206 31.4573 30.0734 31.4573H16.7947L16.6334 30.1986L32.4449 28.2057ZM12.2961 15.1084H10.0183C9.96212 15.1102 9.90617 15.1007 9.85375 15.0805C9.80133 15.0603 9.75351 15.0297 9.71314 14.9906C9.67277 14.9515 9.64066 14.9048 9.61874 14.853C9.59682 14.8013 9.58552 14.7457 9.58552 14.6895C9.58552 14.6333 9.59682 14.5777 9.61874 14.526C9.64066 14.4742 9.67277 14.4274 9.71314 14.3883C9.75351 14.3493 9.80133 14.3187 9.85375 14.2985C9.90617 14.2782 9.96212 14.2688 10.0183 14.2706H12.2961C12.4048 14.2741 12.5079 14.3198 12.5835 14.398C12.6592 14.4762 12.7015 14.5807 12.7015 14.6895C12.7015 14.7983 12.6592 14.9028 12.5835 14.981C12.5079 15.0591 12.4048 15.1048 12.2961 15.1084ZM26.9987 22.4888H21.8716V18.311H26.9987V22.4888ZM26.9987 23.4884V27.8844L21.8716 28.5306V23.4897L26.9987 23.4884ZM20.8716 23.4884V28.6564L16.5063 29.2066L15.7738 23.4897L20.8716 23.4884ZM15.6449 22.4888L15.1116 18.311H20.8716V22.4888H15.6449ZM31.9676 27.2582L28.0005 27.7586V23.4897H32.7729L31.9676 27.2582Z" fill="#7460A8"/>
<path d="M17.7945 33.0781C17.4411 33.0781 17.0957 33.1829 16.8019 33.3792C16.508 33.5756 16.279 33.8546 16.1438 34.1811C16.0086 34.5075 15.9732 34.8668 16.0421 35.2134C16.1111 35.5599 16.2812 35.8783 16.5311 36.1282C16.781 36.378 17.0993 36.5482 17.4459 36.6171C17.7925 36.6861 18.1517 36.6507 18.4782 36.5155C18.8047 36.3802 19.0837 36.1512 19.28 35.8574C19.4764 35.5636 19.5811 35.2182 19.5811 34.8648C19.5806 34.3911 19.3921 33.937 19.0572 33.6021C18.7223 33.2671 18.2682 33.0787 17.7945 33.0781ZM17.7945 35.6715C17.635 35.6714 17.479 35.624 17.3464 35.5353C17.2138 35.4466 17.1105 35.3206 17.0495 35.1732C16.9885 35.0258 16.9726 34.8636 17.0038 34.7071C17.035 34.5507 17.1119 34.407 17.2247 34.2942C17.3375 34.1815 17.4812 34.1047 17.6377 34.0736C17.7942 34.0425 17.9564 34.0585 18.1037 34.1196C18.2511 34.1806 18.3771 34.284 18.4657 34.4167C18.5543 34.5493 18.6016 34.7053 18.6016 34.8648C18.6014 35.0787 18.5162 35.2838 18.3649 35.4351C18.2136 35.5863 18.0084 35.6713 17.7945 35.6715Z" fill="#7460A8"/>
<path d="M28.5992 33.0781C28.2458 33.0781 27.9004 33.1829 27.6065 33.3792C27.3127 33.5756 27.0837 33.8546 26.9485 34.1811C26.8133 34.5075 26.7779 34.8668 26.8468 35.2134C26.9158 35.5599 27.0859 35.8783 27.3358 36.1282C27.5857 36.378 27.904 36.5482 28.2506 36.6171C28.5972 36.6861 28.9564 36.6507 29.2829 36.5155C29.6094 36.3802 29.8884 36.1512 30.0847 35.8574C30.281 35.5636 30.3858 35.2182 30.3858 34.8648C30.3852 34.3911 30.1968 33.937 29.8619 33.6021C29.5269 33.2671 29.0728 33.0787 28.5992 33.0781ZM28.5992 35.6715C28.4396 35.6715 28.2837 35.6241 28.151 35.5355C28.0184 35.4469 27.915 35.3209 27.8539 35.1735C27.7929 35.0261 27.7769 34.8639 27.808 34.7074C27.8391 34.5509 27.916 34.4072 28.0288 34.2944C28.1416 34.1816 28.2853 34.1048 28.4418 34.0736C28.5983 34.0425 28.7605 34.0585 28.9079 34.1195C29.0553 34.1806 29.1812 34.284 29.2699 34.4166C29.3585 34.5493 29.4058 34.7052 29.4058 34.8648C29.4056 35.0787 29.3205 35.2837 29.1693 35.4349C29.0181 35.5862 28.813 35.6712 28.5992 35.6715Z" fill="#7460A8"/>
<path d="M23.1814 14.3608C23.6192 14.1581 24.0175 13.8792 24.3578 13.5373C24.6987 13.1971 24.9571 12.7834 25.1134 12.3279C25.1831 12.4339 25.2763 12.5224 25.3857 12.5865C25.4952 12.6507 25.618 12.6887 25.7445 12.6977C26.0175 12.724 26.2926 12.678 26.5423 12.5644L25.7249 10.811C25.4775 10.932 25.2663 11.1159 25.1125 11.3444C25.0382 11.449 24.9891 11.5694 24.969 11.6961C24.949 11.8229 24.9585 11.9526 24.9969 12.075C24.5413 11.9168 24.059 11.8494 23.5774 11.8768C23.0967 11.9039 22.6257 12.0229 22.1898 12.2275C21.7213 12.4456 21.2956 12.7459 20.9329 13.1141C20.5726 13.4748 20.3304 13.9363 20.2383 14.4377C20.6801 14.6894 21.1882 14.8003 21.6947 14.7555C22.2098 14.7135 22.7133 14.5798 23.1814 14.3608Z" fill="#74CBD6"/>
<path d="M28.7928 11.2662C29.0779 11.1341 29.3373 10.9524 29.559 10.7297C29.7806 10.5081 29.9486 10.2387 30.0501 9.94219C30.0954 10.0112 30.1561 10.0688 30.2273 10.1105C30.2985 10.1522 30.3784 10.1769 30.4608 10.1826C30.6379 10.1999 30.8165 10.1702 30.9786 10.0964L30.4452 8.95508C30.2837 9.03418 30.1457 9.15434 30.0452 9.30352C29.9977 9.37179 29.9666 9.45009 29.9543 9.53233C29.942 9.61457 29.9487 9.69855 29.9741 9.77774C29.6774 9.67446 29.3633 9.63066 29.0497 9.64886C28.7367 9.66631 28.4299 9.74371 28.1461 9.87686C27.8411 10.0184 27.5639 10.2133 27.3274 10.4524C27.0931 10.6874 26.9354 10.9879 26.875 11.3142C27.1622 11.4792 27.493 11.5524 27.823 11.524C28.1591 11.4967 28.4875 11.4094 28.7928 11.2662Z" fill="#74CBD6"/>
<path d="M27.8008 5.86678C28.0856 5.73437 28.3448 5.55277 28.5665 5.33033C28.7874 5.10848 28.9546 4.83911 29.0554 4.54278C29.1007 4.61177 29.1614 4.66936 29.2326 4.71107C29.3039 4.75278 29.3838 4.77747 29.4661 4.78322C29.6439 4.80079 29.8231 4.77105 29.9857 4.697L29.4559 3.55566C29.2941 3.63471 29.1562 3.75507 29.0559 3.90455C29.0073 3.97262 28.9752 4.05105 28.962 4.13366C28.9489 4.21626 28.9552 4.30078 28.9803 4.38055C28.6836 4.27735 28.3695 4.23341 28.0559 4.25122C27.7442 4.26893 27.4388 4.34586 27.1559 4.47789C26.8506 4.61996 26.5733 4.81565 26.3372 5.05566C26.1027 5.29054 25.9449 5.59103 25.8848 5.91744C26.1727 6.08217 26.5041 6.15476 26.8345 6.12544C27.1694 6.09719 27.4966 6.00961 27.8008 5.86678Z" fill="#74CBD6"/>
<path d="M24.5775 10.5264C25.0152 10.3237 25.4134 10.0449 25.7535 9.70287C26.0944 9.36269 26.3528 8.94902 26.5091 8.49354C26.5788 8.59956 26.672 8.68807 26.7814 8.75221C26.8909 8.81634 27.0136 8.85436 27.1402 8.86332C27.4132 8.88974 27.6884 8.84375 27.938 8.72998L27.1175 6.97754C26.8698 7.09912 26.6586 7.28384 26.5051 7.51309C26.4306 7.61765 26.3814 7.73805 26.3614 7.86484C26.3413 7.99162 26.351 8.12133 26.3895 8.24376C25.9338 8.085 25.4514 8.0172 24.9695 8.04421C24.489 8.0713 24.0181 8.19034 23.5824 8.39487C23.114 8.61191 22.6883 8.91116 22.3255 9.27843C21.9653 9.63893 21.7231 10.1003 21.6309 10.6015C22.0728 10.8548 22.5818 10.9663 23.0891 10.9211C23.6048 10.8795 24.1089 10.7458 24.5775 10.5264Z" fill="#74CBD6"/>
<path d="M31.1464 7.2001C31.5377 7.01849 31.8938 6.76918 32.1984 6.46366C32.5028 6.15932 32.7335 5.78925 32.8726 5.38188C32.935 5.47659 33.0184 5.55568 33.1163 5.61301C33.2142 5.67035 33.3239 5.70441 33.4371 5.71255C33.6804 5.736 33.9256 5.69508 34.1482 5.59388L33.4197 4.02588C33.1982 4.13464 33.0094 4.29991 32.8722 4.50499C32.8056 4.59848 32.7616 4.70613 32.7436 4.81949C32.7257 4.93285 32.7342 5.04883 32.7686 5.15832C32.3611 5.01634 31.9297 4.95593 31.4988 4.98055C31.0692 5.00385 30.6481 5.10946 30.2584 5.29166C29.8394 5.48576 29.4585 5.7534 29.1339 6.08188C28.8116 6.40439 28.5947 6.81707 28.5117 7.26543C28.9069 7.49333 29.3625 7.59462 29.8171 7.55566C30.2778 7.51735 30.728 7.39694 31.1464 7.2001Z" fill="#74CBD6"/>
<path d="M28.356 15.104C28.7474 14.9225 29.1035 14.6732 29.408 14.3675C29.7121 14.0629 29.9427 13.6929 30.0822 13.2857C30.1445 13.3805 30.2279 13.4597 30.3258 13.517C30.4237 13.5744 30.5335 13.6084 30.6467 13.6164C30.89 13.6398 31.1352 13.5989 31.3578 13.4977L30.6267 11.9302C30.4053 12.0389 30.2164 12.204 30.0791 12.4088C30.0125 12.5023 29.9685 12.61 29.9506 12.7233C29.9326 12.8367 29.9411 12.9527 29.9755 13.0622C29.5682 12.9204 29.1369 12.86 28.7062 12.8844C28.2775 12.9096 27.8577 13.0167 27.4693 13.2C27.0504 13.3942 26.6695 13.6618 26.3449 13.9902C26.0225 14.3127 25.8056 14.7254 25.7227 15.1737C26.1179 15.3999 26.573 15.4996 27.0267 15.4595C27.4874 15.4211 27.9376 15.3007 28.356 15.104Z" fill="#74CBD6"/>
<path d="M33.8083 12.1493C34.0782 12.0239 34.3238 11.8516 34.5336 11.6405C34.7438 11.43 34.9031 11.1743 34.9994 10.8929C35.0425 10.9584 35.1001 11.0131 35.1678 11.0528C35.2355 11.0924 35.3114 11.1158 35.3896 11.1213C35.5582 11.138 35.7283 11.1097 35.8825 11.0396L35.3781 9.95557C35.2252 10.031 35.0948 10.1451 34.9998 10.2867C34.9538 10.3513 34.9234 10.4257 34.911 10.504C34.8985 10.5824 34.9045 10.6626 34.9283 10.7382C34.6467 10.6403 34.3486 10.5986 34.0509 10.6156C33.7539 10.6324 33.4629 10.7061 33.1936 10.8325C32.9045 10.9665 32.6417 11.1512 32.4176 11.3778C32.1949 11.6007 32.0452 11.8861 31.9883 12.196C32.2612 12.3527 32.5757 12.4218 32.8892 12.3942C33.2077 12.3682 33.519 12.2853 33.8083 12.1493Z" fill="#74CBD6"/>
<path d="M34.3065 9.23652C34.7443 9.0338 35.1426 8.75495 35.4829 8.41296C35.8238 8.07278 36.0822 7.65911 36.2385 7.20363C36.3082 7.30965 36.4014 7.39816 36.5108 7.4623C36.6203 7.52643 36.743 7.56445 36.8696 7.57341C37.1433 7.60004 37.4193 7.55405 37.6696 7.44008L36.8483 5.68896C36.6009 5.81007 36.3898 5.99397 36.2358 6.2223C36.1615 6.32691 36.1124 6.44731 36.0923 6.57407C36.0723 6.70084 36.0818 6.83052 36.1203 6.95296C35.6638 6.79437 35.1805 6.72702 34.698 6.75474C34.2175 6.78189 33.7466 6.90093 33.3109 7.10541C32.8426 7.3226 32.417 7.62184 32.054 7.98896C31.6937 8.34957 31.4515 8.81114 31.3594 9.31252C31.8015 9.5652 32.3103 9.6767 32.8176 9.63208C33.3335 9.59003 33.8377 9.45607 34.3065 9.23652Z" fill="#74CBD6"/>
<path d="M9.82915 43.5552C9.63653 43.5552 9.44452 43.5336 9.25671 43.4908C9.07942 43.4516 8.90621 43.3958 8.73938 43.3241C8.60617 43.2687 8.47887 43.2001 8.35938 43.1192V42.1726C8.48352 42.2556 8.61504 42.327 8.75226 42.3859C8.90692 42.4546 9.06702 42.5104 9.23093 42.5526C9.37855 42.5932 9.53073 42.6148 9.68382 42.617C9.90041 42.617 10.0671 42.577 10.1838 42.497C10.2385 42.4626 10.2834 42.4147 10.3141 42.3578C10.3448 42.301 10.3602 42.2372 10.3589 42.1726C10.3597 42.1207 10.3467 42.0697 10.3211 42.0246C10.2956 41.9795 10.2585 41.9421 10.2136 41.9161C10.0793 41.8366 9.93587 41.7734 9.78649 41.7281L9.25671 41.5401C8.93078 41.4323 8.70426 41.2785 8.57715 41.0788C8.44499 40.8656 8.3781 40.6184 8.38471 40.3677C8.37888 40.1137 8.4522 39.8643 8.59449 39.6539C8.74379 39.4439 8.94754 39.2785 9.18382 39.1757C9.45454 39.0558 9.74823 38.9966 10.0443 39.0023C10.2982 39.0001 10.5508 39.0389 10.7923 39.1174C11.0228 39.1945 11.1979 39.2871 11.3176 39.3952V40.3521C11.1622 40.2486 10.9971 40.1603 10.8247 40.0886C10.6294 40.0031 10.4184 39.9593 10.2052 39.9601C9.99982 39.9601 9.83686 40.0057 9.71626 40.097C9.59567 40.1883 9.53641 40.2964 9.53849 40.4214C9.53984 40.5162 9.5783 40.6067 9.6456 40.6734C9.71671 40.7505 9.84619 40.8174 10.034 40.8743L10.5229 41.037C10.8589 41.1339 11.1068 41.2777 11.2665 41.4686C11.4287 41.6669 11.5136 41.9173 11.5056 42.1734C11.5084 42.4286 11.4291 42.6779 11.2794 42.8846C11.1225 43.0986 10.9129 43.2684 10.6709 43.3774C10.4071 43.4986 10.1195 43.5594 9.82915 43.5552Z" fill="#2B357F"/>
<path d="M14.4448 43.5555C14.138 43.5576 13.8336 43.501 13.5479 43.3888C13.2744 43.2813 13.0235 43.1233 12.8084 42.923C12.5947 42.7229 12.4247 42.4808 12.3088 42.2119C12.1876 41.9285 12.127 41.6228 12.131 41.3146C12.1269 40.9119 12.2238 40.5146 12.4128 40.159C12.5944 39.8155 12.8625 39.5254 13.1906 39.3172C13.5279 39.1045 13.9199 38.9947 14.3186 39.0012C14.7399 39.0012 15.103 39.0924 15.4079 39.2746C15.7096 39.4534 15.9531 39.7159 16.1088 40.0301C16.2709 40.3525 16.3521 40.7244 16.3524 41.1457V41.6088H13.1279V40.8652H15.3057C15.3031 40.6795 15.2435 40.4991 15.135 40.3484C15.0372 40.2183 14.9078 40.1153 14.759 40.0492C14.6109 39.9839 14.4507 39.9505 14.2888 39.951C14.0831 39.9459 13.881 40.0056 13.711 40.1217C13.5438 40.2437 13.4133 40.4093 13.3337 40.6004C13.2382 40.8274 13.1916 41.0719 13.1968 41.3181C13.1923 41.5452 13.2485 41.7694 13.3595 41.9675C13.4673 42.1554 13.6256 42.3093 13.8164 42.4119C14.0223 42.5226 14.2533 42.5784 14.487 42.5741C14.7841 42.579 15.0783 42.5146 15.3462 42.3861C15.5628 42.2843 15.7651 42.1544 15.9479 41.9999V43.0084C15.8386 43.1049 15.7182 43.1882 15.5893 43.2564C15.4226 43.3469 15.2462 43.4185 15.0635 43.4697C14.8624 43.5273 14.6541 43.5562 14.4448 43.5555Z" fill="#2B357F"/>
<path d="M18.972 43.5557C18.6359 43.5566 18.3062 43.4643 18.0195 43.289C17.7163 43.1027 17.4703 42.8366 17.3084 42.5197C17.1288 42.1837 17.0391 41.7764 17.0391 41.2979C17.0391 40.8135 17.1288 40.4004 17.3084 40.0588C17.4689 39.7362 17.7174 39.4655 18.0251 39.2781C18.3328 39.0906 18.6872 38.9939 19.0475 38.9992C19.2942 39.001 19.5376 39.0564 19.7608 39.1615C19.988 39.2635 20.1906 39.4131 20.3551 39.6001V39.1112H21.4404V43.4263H20.3551V42.7028C20.223 42.9439 20.0356 43.1503 19.8084 43.305C19.5628 43.4742 19.2702 43.5619 18.972 43.5557ZM19.244 42.4721C19.4356 42.4725 19.6236 42.4192 19.7866 42.3183C19.9595 42.2106 20.1021 42.0605 20.2008 41.8823C20.313 41.6787 20.3662 41.4479 20.3546 41.2157V40.6006C20.2107 40.4432 20.0419 40.3104 19.8551 40.2077C19.6753 40.1107 19.474 40.0608 19.2697 40.0623C19.0608 40.0566 18.8555 40.118 18.684 40.2375C18.5208 40.3555 18.3901 40.5128 18.304 40.6948C18.2125 40.8839 18.1656 41.0914 18.1671 41.3015C18.1654 41.5047 18.2123 41.7054 18.304 41.8868C18.3902 42.0606 18.5214 42.208 18.684 42.3139C18.851 42.4206 19.0458 42.4757 19.244 42.4721Z" fill="#2B357F"/>
<path d="M24.7407 43.5557C24.2907 43.56 23.8498 43.4285 23.4756 43.1784C23.1014 42.9284 22.8112 42.5714 22.6429 42.154C22.4761 41.7425 22.4321 41.2915 22.5163 40.8555C22.6004 40.4195 22.8091 40.0173 23.1172 39.6975C23.3229 39.4833 23.5679 39.3107 23.8389 39.1891C24.1225 39.0622 24.4301 38.9981 24.7407 39.0011C25.0666 39.0011 25.33 39.0523 25.5309 39.1549C25.7019 39.2376 25.8638 39.3378 26.014 39.454V40.4535C25.8593 40.3421 25.6914 40.2503 25.514 40.1802C25.2966 40.1005 25.066 40.0628 24.8345 40.0691C24.6228 40.0679 24.4147 40.1239 24.2323 40.2313C24.0505 40.3363 23.8989 40.4865 23.7923 40.6673C23.6822 40.856 23.626 41.0712 23.6296 41.2895C23.626 41.5068 23.6792 41.7213 23.7838 41.9117C23.8848 42.0927 24.0341 42.2421 24.2149 42.3433C24.4039 42.4496 24.6176 42.5042 24.8345 42.5015C25.066 42.5076 25.2965 42.4699 25.514 42.3904C25.6901 42.3203 25.8578 42.2309 26.014 42.1237V43.1149C25.867 43.2344 25.7045 43.3335 25.5309 43.4095C25.3289 43.507 25.0654 43.5557 24.7407 43.5557Z" fill="#2B357F"/>
<path d="M28.6111 43.5557C28.2749 43.5567 27.945 43.4644 27.6582 43.289C27.355 43.1027 27.109 42.8366 26.9471 42.5197C26.7675 42.1837 26.6777 41.7764 26.6777 41.2979C26.6777 40.8135 26.7675 40.4004 26.9471 40.0588C27.1076 39.7362 27.356 39.4655 27.6637 39.2781C27.9714 39.0906 28.3259 38.9939 28.6862 38.9992C28.9321 39.0013 29.1747 39.0567 29.3973 39.1615C29.624 39.2626 29.8265 39.4112 29.9911 39.597V39.1081H31.0764V43.4232H29.9951V42.7028C29.863 42.9439 29.6756 43.1503 29.4484 43.305C29.2025 43.4744 28.9096 43.5621 28.6111 43.5557ZM28.8844 42.4703C29.0761 42.4707 29.2641 42.4175 29.4271 42.3166C29.6 42.2088 29.7426 42.0588 29.8413 41.8806C29.9534 41.6769 30.0066 41.4461 29.9951 41.2139V40.6006C29.8512 40.4432 29.6824 40.3104 29.4955 40.2077C29.3157 40.1107 29.1144 40.0608 28.9102 40.0623C28.7013 40.0564 28.4961 40.1178 28.3248 40.2375C28.1614 40.3553 28.0305 40.5126 27.9444 40.6948C27.8529 40.8839 27.8061 41.0914 27.8075 41.3015C27.8058 41.5047 27.8528 41.7054 27.9444 41.8868C28.0307 42.0607 28.1621 42.2082 28.3248 42.3139C28.4917 42.4206 28.6864 42.4757 28.8844 42.4721V42.4703Z" fill="#2B357F"/>
<path d="M32.4141 43.429V39.1138H33.499V43.429H32.4141ZM33.499 41.0192V39.9254C33.6357 39.6829 33.8136 39.466 34.0247 39.2845C34.2146 39.1186 34.4583 39.0274 34.7105 39.0281C34.854 39.0251 34.9966 39.0512 35.1296 39.105V40.3272C35.0456 40.2765 34.9549 40.2376 34.8603 40.2116C34.7614 40.1856 34.6595 40.1727 34.5572 40.1734C34.4424 40.1703 34.3282 40.1902 34.2214 40.2321C34.1145 40.2739 34.0171 40.3368 33.935 40.417C33.7584 40.5931 33.6112 40.7964 33.499 41.0192Z" fill="#2B357F"/>
<path d="M37.7548 43.5558C37.512 43.559 37.2724 43.5001 37.0588 43.3847C36.8528 43.2733 36.6824 43.106 36.5673 42.902C36.4437 42.6757 36.3823 42.4207 36.3895 42.1629V40.0198H35.6699V39.4642C35.952 39.365 36.1937 39.1759 36.3579 38.926C36.5584 38.6207 36.7178 38.2903 36.8321 37.9434H37.473V39.114H38.7717V40.0198H37.473V41.8825C37.473 42.0762 37.5228 42.2287 37.6224 42.3398C37.7219 42.4509 37.8687 42.5065 38.0628 42.5065C38.2145 42.5099 38.3655 42.4837 38.5073 42.4296C38.622 42.3832 38.7334 42.3288 38.8406 42.2669V43.19C38.719 43.3108 38.5714 43.402 38.409 43.4567C38.1985 43.5281 37.977 43.5616 37.7548 43.5558Z" fill="#2B357F"/>
</svg>
