<svg id="Logos" xmlns="http://www.w3.org/2000/svg" viewBox="0 0 3289.83 1080"><defs><style>.cls-1{fill:#fff;}</style></defs><path class="cls-1" d="M845.72,720a12.29,12.29,0,0,0,10.49-9.62L881,594.3s0-.06,0-.08L908.24,467a12.29,12.29,0,0,0-12-14.86H416.38L409,394.47A23.49,23.49,0,0,0,385.73,374h-3.32a34.92,34.92,0,0,0-32.07-21.19h-56a34.88,34.88,0,0,0,0,69.76h56a34.93,34.93,0,0,0,33.13-24h1.27l51.84,404.63a24.49,24.49,0,0,0,24.24,21.33H787.43a12.3,12.3,0,0,0,0-24.59H461l-4-31ZM881,476.69l-22,102.79H736.41V476.69ZM350.34,398h-56a10.3,10.3,0,0,1,0-20.59h56a10.3,10.3,0,0,1,0,20.59ZM711.82,579.48H585.77V476.69H711.82Zm0,24.58V712.11L585.77,728V604.06Zm-150.63,0v127L453.86,744.62l-18-140.56ZM432.7,579.48,419.53,476.69H561.19V579.48ZM834,696.72,736.41,709v-105H853.8Z"/><path class="cls-1" d="M485.53,839.81a43.93,43.93,0,1,0,43.92,43.93A44,44,0,0,0,485.53,839.81Zm0,63.76a19.84,19.84,0,1,1,19.83-19.83A19.86,19.86,0,0,1,485.53,903.57Z"/><path class="cls-1" d="M751.18,839.81a43.93,43.93,0,1,0,43.92,43.93A44,44,0,0,0,751.18,839.81Zm0,63.76A19.84,19.84,0,1,1,771,883.74,19.86,19.86,0,0,1,751.18,903.57Z"/><path class="cls-1" d="M604.61,379.62a100.44,100.44,0,0,0,28.92-20.25,77.72,77.72,0,0,0,18.54-29.73,20.25,20.25,0,0,0,15.51,9.08,38.29,38.29,0,0,0,19.61-3.26l-20.09-43.1a38.58,38.58,0,0,0-15.05,13.16,20.43,20.43,0,0,0-2.85,18,90.71,90.71,0,0,0-34.91-4.87,92.51,92.51,0,0,0-34.1,8.62A106.21,106.21,0,0,0,549.28,349,62,62,0,0,0,532.2,381.5a61.36,61.36,0,0,0,35.86,7.86A106.82,106.82,0,0,0,604.61,379.62Z"/><path class="cls-1" d="M742.55,303.53a65.54,65.54,0,0,0,18.83-13.19A50.6,50.6,0,0,0,773.45,271a13.21,13.21,0,0,0,10.11,5.91,25,25,0,0,0,12.77-2.12L783.24,246.7a25.21,25.21,0,0,0-9.8,8.57,13.32,13.32,0,0,0-1.86,11.7,59,59,0,0,0-22.73-3.17,60.07,60.07,0,0,0-22.21,5.62,69.29,69.29,0,0,0-20.13,14.14,40.37,40.37,0,0,0-11.12,21.19,40,40,0,0,0,23.35,5.12A69.64,69.64,0,0,0,742.55,303.53Z"/><path class="cls-1" d="M718.16,170.73A65.31,65.31,0,0,0,737,157.55a50.44,50.44,0,0,0,12.07-19.37,13.2,13.2,0,0,0,10.11,5.92A24.94,24.94,0,0,0,771.94,142l-13.09-28.07a25.13,25.13,0,0,0-9.8,8.57,13.28,13.28,0,0,0-1.85,11.7A59.08,59.08,0,0,0,724.46,131a60.07,60.07,0,0,0-22.21,5.62,69.29,69.29,0,0,0-20.13,14.14A40.37,40.37,0,0,0,671,172a40,40,0,0,0,23.35,5.12A69.43,69.43,0,0,0,718.16,170.73Z"/><path class="cls-1" d="M638.89,285.35A100.39,100.39,0,0,0,667.8,265.1a77.48,77.48,0,0,0,18.54-29.73,20.31,20.31,0,0,0,15.52,9.08,38.3,38.3,0,0,0,19.61-3.26l-20.1-43.1a38.72,38.72,0,0,0-15,13.16,20.46,20.46,0,0,0-2.84,18,90.73,90.73,0,0,0-34.91-4.87A92.61,92.61,0,0,0,614.46,233a106.3,106.3,0,0,0-30.9,21.72,61.89,61.89,0,0,0-17.08,32.54,61.36,61.36,0,0,0,35.86,7.86A106.88,106.88,0,0,0,638.89,285.35Z"/><path class="cls-1" d="M800.43,203.55a89.69,89.69,0,0,0,25.86-18.11,69.42,69.42,0,0,0,16.58-26.59A18.13,18.13,0,0,0,856.75,167a34.16,34.16,0,0,0,17.54-2.91l-18-38.54a34.51,34.51,0,0,0-13.46,11.77,18.22,18.22,0,0,0-2.54,16.06A81.24,81.24,0,0,0,809.09,149a82.65,82.65,0,0,0-30.5,7.71,94.85,94.85,0,0,0-27.65,19.43,55.31,55.31,0,0,0-15.27,29.1,54.92,54.92,0,0,0,32.07,7A95.26,95.26,0,0,0,800.43,203.55Z"/><path class="cls-1" d="M731.86,397.88a90,90,0,0,0,25.86-18.1,69.46,69.46,0,0,0,16.58-26.6,18.12,18.12,0,0,0,13.87,8.13,34.25,34.25,0,0,0,17.54-2.92l-18-38.54a34.52,34.52,0,0,0-13.46,11.77,18.27,18.27,0,0,0-2.55,16.07,81,81,0,0,0-31.21-4.36A83,83,0,0,0,710,351a95.13,95.13,0,0,0-27.64,19.43,55.31,55.31,0,0,0-15.27,29.1,54.81,54.81,0,0,0,32.07,7A95.32,95.32,0,0,0,731.86,397.88Z"/><path class="cls-1" d="M865.87,325.24a61.93,61.93,0,0,0,17.87-12.51,48,48,0,0,0,11.46-18.38,12.54,12.54,0,0,0,9.59,5.62,23.59,23.59,0,0,0,12.12-2l-12.42-26.63a23.81,23.81,0,0,0-9.3,8.13,12.6,12.6,0,0,0-1.76,11.1,56,56,0,0,0-21.58-3,57,57,0,0,0-21.07,5.32,65.69,65.69,0,0,0-19.11,13.43,38.23,38.23,0,0,0-10.55,20.11,38,38,0,0,0,22.16,4.85A65.75,65.75,0,0,0,865.87,325.24Z"/><path class="cls-1" d="M878.12,253.63A100.44,100.44,0,0,0,907,233.38a77.72,77.72,0,0,0,18.54-29.73,20.28,20.28,0,0,0,15.51,9.08,38.29,38.29,0,0,0,19.61-3.26l-20.09-43.1a38.58,38.58,0,0,0-15.05,13.16,20.43,20.43,0,0,0-2.85,18,90.71,90.71,0,0,0-34.91-4.87,92.51,92.51,0,0,0-34.1,8.62A106.21,106.21,0,0,0,822.79,223a62,62,0,0,0-17.08,32.54,61.28,61.28,0,0,0,35.86,7.85A106.58,106.58,0,0,0,878.12,253.63Z"/><path class="cls-1" d="M1163.05,767.73a165.73,165.73,0,0,1-36.85-4.12,186.32,186.32,0,0,1-33.28-10.73q-15.12-6.6-24.47-13.2v-61a159.55,159.55,0,0,0,25.3,13.75,197.12,197.12,0,0,0,30.8,10.72,116.79,116.79,0,0,0,29.15,4.13q20.9,0,32.18-7.7t11.27-20.9q0-10.44-9.35-16.5T1160.3,650l-34.1-12.11q-31.35-10.42-43.73-29.69t-12.37-45.65q0-26.42,13.47-45.93t38-30.8q24.48-11.27,55.28-11.28a151.33,151.33,0,0,1,48.13,7.43q22.27,7.42,33.83,17.87v61.6a184.7,184.7,0,0,0-31.63-17,98.83,98.83,0,0,0-39.88-8.26q-19.8,0-31.35,8.8t-11.55,20.91q0,8.8,6.88,16.22t25,12.92l31.35,10.46q32.45,9.35,47.85,27.77t15.41,45.38a76.56,76.56,0,0,1-14.58,45.65q-14.58,20.36-39.06,31.9T1163.05,767.73Z"/><path class="cls-1" d="M1460.06,767.73A154.88,154.88,0,0,1,1402.31,757a150.56,150.56,0,0,1-47.58-30,136.57,136.57,0,0,1-32.17-45.65Q1311,655,1311,623.63q0-40.71,18.15-74.53a143.76,143.76,0,0,1,50-54.18q31.89-20.34,72.6-20.35t70.13,17.6a116.94,116.94,0,0,1,45.1,48.68q15.68,31.08,15.68,71.78v29.7H1375.36V594.48h140.25q-1.09-20.36-11-33.28a61.58,61.58,0,0,0-24.2-19.25,74.1,74.1,0,0,0-30.25-6.33q-21.45,0-37.13,11t-24.47,30.8q-8.8,19.8-8.8,46.21,0,23.64,10.45,41.8a74.77,74.77,0,0,0,29.42,28.6q19,10.46,43.18,10.45,30.8,0,55.28-12.1t38.78-24.75v64.9q-8.26,7.71-23.11,16a162.41,162.41,0,0,1-33.82,13.75A142.83,142.83,0,0,1,1460.06,767.73Z"/><path class="cls-1" d="M1751.57,767.73a116.89,116.89,0,0,1-61.33-17.05q-28.32-17-45.65-49.5t-17.32-78.65q0-46.74,17.32-79.75t46.75-50.61q29.43-17.6,65.18-17.6,23.1,0,45.93,10.45a112,112,0,0,1,38.22,28.05V481.72h69.86V759.48h-69.86V712.73q-12.11,22.56-35.2,38.78T1751.57,767.73Zm17.6-69.85a65.91,65.91,0,0,0,34.93-9.9q16.22-9.9,26.68-28.05t9.89-42.9V577.42a125.43,125.43,0,0,0-32.17-25.29,78,78,0,0,0-37.68-9.35q-22,0-37.67,11.27a76.81,76.81,0,0,0-24.48,29.42,88.3,88.3,0,0,0-8.8,39.06,82,82,0,0,0,8.8,37.67,69.62,69.62,0,0,0,24.48,27.5Q1748.82,697.9,1769.17,697.88Z"/><path class="cls-1" d="M2122.84,767.73q-31.35,0-58-11.55a144.51,144.51,0,0,1-77-78.65,147.9,147.9,0,0,1,30.53-158.14,149.28,149.28,0,0,1,46.47-32.72q26.67-12.09,58-12.1t50.88,9.9q19.52,9.9,31.07,19.25v64.35a146.6,146.6,0,0,0-32.17-17.59q-17.88-7.15-43.73-7.16a75.57,75.57,0,0,0-38.78,10.45,78.51,78.51,0,0,0-28.32,28.05q-10.45,17.61-10.45,40.16t9.9,40.15A72.09,72.09,0,0,0,2089,689.9a79.1,79.1,0,0,0,39.88,10.18q25.84,0,43.73-7.15a161.93,161.93,0,0,0,32.17-17v63.8q-11.55,9.9-31.07,19T2122.84,767.73Z"/><path class="cls-1" d="M2372,767.73a116.86,116.86,0,0,1-61.33-17.05q-28.34-17-45.65-49.5t-17.32-78.65q0-46.74,17.32-79.75t46.75-50.61q29.43-17.6,65.18-17.6,23.1,0,45.93,10.45a112.05,112.05,0,0,1,38.22,28.05V481.72H2531V759.48H2461.1V712.73q-12.1,22.56-35.2,38.78T2372,767.73Zm17.6-69.85a65.85,65.85,0,0,0,34.92-9.9q16.23-9.9,26.69-28.05t9.89-42.9V577.42a125.43,125.43,0,0,0-32.17-25.29,78,78,0,0,0-37.68-9.35q-22,0-37.68,11.27a76.79,76.79,0,0,0-24.47,29.42,88.3,88.3,0,0,0-8.8,39.06,82,82,0,0,0,8.8,37.67,69.6,69.6,0,0,0,24.47,27.5Q2369.25,697.9,2389.6,697.88Z"/><path class="cls-1" d="M2616.76,759.48V481.72h69.85V759.48Zm69.85-155.11V534q14.29-24.75,33.83-41.25t44.27-16.5q15.39,0,27,4.95v78.66a68.85,68.85,0,0,0-17.33-7.43,74,74,0,0,0-19.53-2.48q-23.66,0-39.88,15.68T2686.61,604.37Z"/><path class="cls-1" d="M2960.52,767.73q-24.73,0-44.82-11a80.41,80.41,0,0,1-31.63-31.07q-11.55-20.08-11.55-47.58V540h-46.2V504.27q26.94-9.34,44.27-34.65t30.53-63.25h41.25v75.35H3026V540h-83.61V659.93q0,18.71,9.63,29.42t28.33,10.73q16.5,0,28.59-5a167.34,167.34,0,0,0,21.46-10.45v59.4q-9.91,10.45-27.78,17T2960.52,767.73Z"/></svg>