<svg width="1039" height="649" viewBox="0 0 1039 649" fill="none" xmlns="http://www.w3.org/2000/svg">
<mask id="mask0_1178_10142" style="mask-type:alpha" maskUnits="userSpaceOnUse" x="0" y="0" width="1039" height="649">
<rect width="1039" height="649" fill="#2F306A"/>
</mask>
<g mask="url(#mask0_1178_10142)">
<path d="M307.709 630.677C326.433 630.718 345.015 627.306 362.597 620.599C380.151 613.942 396.01 603.193 408.962 589.173C410.608 599.753 415.988 607.859 425.105 613.491C434.221 619.123 444.297 622.047 455.332 622.263V544.074C444.63 544.301 434.174 547.457 425.015 553.226C415.856 559.002 410.505 567.268 408.962 578.024C395.527 564.438 379.66 553.732 362.263 546.512C344.913 539.292 326.393 535.607 307.709 535.659C287.668 535.607 267.779 539.293 248.986 546.545C230.155 553.806 214.773 566.013 202.842 583.168C214.671 600.326 230.026 612.534 248.905 619.791C267.727 627.038 287.642 630.725 307.709 630.677Z" fill="#EDEEF7" fill-opacity="0.03"/>
<path d="M590.283 630.677C609.007 630.718 627.59 627.306 645.171 620.599C662.725 613.942 678.584 603.193 691.537 589.173C693.182 599.753 698.563 607.859 707.679 613.491C716.795 619.123 726.871 622.047 737.907 622.263V544.074C727.205 544.301 716.748 547.457 707.589 553.226C698.43 559.002 693.08 567.268 691.537 578.024C678.101 564.438 662.234 553.732 644.837 546.512C627.487 539.292 608.967 535.607 590.283 535.659C570.242 535.607 550.353 539.293 531.56 546.545C512.729 553.806 497.348 566.013 485.416 583.168C497.245 600.326 512.6 612.534 531.479 619.791C550.302 627.038 570.216 630.725 590.283 630.677Z" fill="#EDEEF7" fill-opacity="0.03"/>
<path d="M872.857 630.677C891.581 630.718 910.164 627.306 927.745 620.599C945.299 613.942 961.159 603.193 974.111 589.173C975.756 599.753 981.137 607.859 990.253 613.491C999.37 619.123 1009.45 622.047 1020.48 622.263V544.074C1009.78 544.301 999.323 547.457 990.163 553.226C981.005 559.002 975.654 567.268 974.111 578.024C960.675 564.438 944.808 553.732 927.411 546.512C910.061 539.292 891.542 535.607 872.857 535.659C852.816 535.607 832.928 539.293 814.135 546.545C795.303 553.806 779.922 566.013 767.99 583.168C779.82 600.326 795.174 612.534 814.053 619.791C832.876 627.038 852.79 630.725 872.857 630.677Z" fill="#EDEEF7" fill-opacity="0.03"/>
<path d="M25.1309 630.677C43.8546 630.718 62.4373 627.306 80.0188 620.599C97.5727 613.942 113.432 603.193 126.384 589.173C128.029 599.753 133.41 607.859 142.527 613.491C151.643 619.123 161.719 622.047 172.754 622.263V544.074C162.052 544.301 151.596 547.457 142.436 553.226C133.278 559.002 127.927 567.268 126.384 578.024C112.948 564.438 97.0819 553.732 79.6849 546.512C62.3349 539.292 43.815 535.607 25.1309 535.659C5.08941 535.607 -14.799 539.293 -33.5919 546.545C-52.4232 553.806 -67.8047 566.013 -79.7363 583.168C-67.907 600.326 -52.5525 612.534 -33.6731 619.791C-14.8507 627.038 5.06343 630.725 25.1309 630.677Z" fill="#EDEEF7" fill-opacity="0.03"/>
<path d="M307.709 396.327C326.433 396.367 345.015 392.955 362.597 386.249C380.151 379.592 396.01 368.842 408.962 354.822C410.608 365.403 415.988 373.509 425.105 379.14C434.221 384.772 444.297 387.696 455.332 387.912V309.723C444.63 309.95 434.174 313.107 425.015 318.876C415.856 324.651 410.505 332.917 408.962 343.673C395.527 330.087 379.66 319.381 362.263 312.162C344.913 304.941 326.393 301.257 307.709 301.309C287.668 301.256 267.779 304.943 248.986 312.195C230.155 319.455 214.773 331.663 202.842 348.818C214.671 365.976 230.026 378.183 248.905 385.441C267.727 392.687 287.642 396.374 307.709 396.327Z" fill="#EDEEF7" fill-opacity="0.03"/>
<path d="M590.283 396.327C609.007 396.367 627.59 392.955 645.171 386.249C662.725 379.592 678.584 368.842 691.537 354.822C693.182 365.403 698.563 373.509 707.679 379.14C716.795 384.772 726.871 387.696 737.907 387.912V309.723C727.205 309.95 716.748 313.107 707.589 318.876C698.43 324.651 693.08 332.917 691.537 343.673C678.101 330.087 662.234 319.381 644.837 312.162C627.487 304.941 608.967 301.257 590.283 301.309C570.242 301.256 550.353 304.943 531.56 312.195C512.729 319.455 497.348 331.663 485.416 348.818C497.245 365.976 512.6 378.183 531.479 385.441C550.302 392.687 570.216 396.374 590.283 396.327Z" fill="#EDEEF7" fill-opacity="0.03"/>
<path d="M872.857 396.327C891.581 396.367 910.164 392.955 927.745 386.249C945.299 379.592 961.159 368.842 974.111 354.822C975.756 365.403 981.137 373.509 990.253 379.14C999.37 384.772 1009.45 387.696 1020.48 387.912V309.723C1009.78 309.95 999.323 313.107 990.163 318.876C981.005 324.651 975.654 332.917 974.111 343.673C960.675 330.087 944.808 319.381 927.411 312.162C910.061 304.941 891.542 301.257 872.857 301.309C852.816 301.256 832.928 304.943 814.135 312.195C795.303 319.455 779.922 331.663 767.99 348.818C779.82 365.976 795.174 378.183 814.053 385.441C832.876 392.687 852.79 396.374 872.857 396.327Z" fill="#EDEEF7" fill-opacity="0.03"/>
<path d="M25.1309 396.327C43.8546 396.367 62.4373 392.955 80.0188 386.249C97.5727 379.592 113.432 368.842 126.384 354.822C128.029 365.403 133.41 373.509 142.527 379.14C151.643 384.772 161.719 387.696 172.754 387.912V309.723C162.052 309.95 151.596 313.107 142.436 318.876C133.278 324.651 127.927 332.917 126.384 343.673C112.948 330.087 97.0819 319.381 79.6849 312.162C62.3349 304.941 43.815 301.257 25.1309 301.309C5.08941 301.256 -14.799 304.943 -33.5919 312.195C-52.4232 319.455 -67.8047 331.663 -79.7363 348.818C-67.907 365.976 -52.5525 378.183 -33.6731 385.441C-14.8507 392.687 5.06343 396.374 25.1309 396.327Z" fill="#EDEEF7" fill-opacity="0.03"/>
<path d="M307.709 161.976C326.433 162.016 345.015 158.605 362.597 151.898C380.151 145.241 396.01 134.491 408.962 120.471C410.608 131.052 415.988 139.158 425.105 144.79C434.221 150.421 444.297 153.345 455.332 153.561V75.3727C444.63 75.5996 434.174 78.7561 425.015 84.5249C415.856 90.3007 410.505 98.5665 408.962 109.322C395.527 95.7368 379.66 85.0305 362.263 77.8111C344.913 70.5905 326.393 66.9062 307.709 66.9581C287.668 66.9054 267.779 70.5923 248.986 77.844C230.155 85.1044 214.773 97.3121 202.842 114.467C214.671 131.625 230.026 143.833 248.905 151.09C267.727 158.337 287.642 162.023 307.709 161.976Z" fill="#EDEEF7" fill-opacity="0.03"/>
<path d="M590.283 161.976C609.007 162.016 627.59 158.605 645.171 151.898C662.725 145.241 678.584 134.491 691.537 120.471C693.182 131.052 698.563 139.158 707.679 144.79C716.795 150.421 726.871 153.345 737.907 153.561V75.3727C727.205 75.5996 716.748 78.7561 707.589 84.5249C698.43 90.3007 693.08 98.5665 691.537 109.322C678.101 95.7368 662.234 85.0305 644.837 77.8111C627.487 70.5905 608.967 66.9062 590.283 66.9581C570.242 66.9054 550.353 70.5923 531.56 77.844C512.729 85.1044 497.348 97.3121 485.416 114.467C497.245 131.625 512.6 143.833 531.479 151.09C550.302 158.337 570.216 162.023 590.283 161.976Z" fill="#EDEEF7" fill-opacity="0.03"/>
<path d="M872.857 161.976C891.581 162.016 910.164 158.605 927.745 151.898C945.299 145.241 961.159 134.491 974.111 120.471C975.756 131.052 981.137 139.158 990.253 144.79C999.37 150.421 1009.45 153.345 1020.48 153.561V75.3727C1009.78 75.5996 999.323 78.7561 990.163 84.5249C981.005 90.3007 975.654 98.5665 974.111 109.322C960.675 95.7368 944.808 85.0305 927.411 77.8111C910.061 70.5905 891.542 66.9062 872.857 66.9581C852.816 66.9054 832.928 70.5923 814.135 77.844C795.303 85.1044 779.922 97.3121 767.99 114.467C779.82 131.625 795.174 143.833 814.053 151.09C832.876 158.337 852.79 162.023 872.857 161.976Z" fill="#EDEEF7" fill-opacity="0.03"/>
<path d="M25.1309 161.976C43.8546 162.016 62.4373 158.605 80.0188 151.898C97.5727 145.241 113.432 134.491 126.384 120.471C128.029 131.052 133.41 139.158 142.527 144.79C151.643 150.421 161.719 153.345 172.754 153.561V75.3727C162.052 75.5996 151.596 78.7561 142.436 84.5249C133.278 90.3007 127.927 98.5665 126.384 109.322C112.948 95.7368 97.0819 85.0305 79.6849 77.8111C62.3349 70.5905 43.815 66.9062 25.1309 66.9581C5.08941 66.9054 -14.799 70.5923 -33.5919 77.844C-52.4232 85.1044 -67.8047 97.3121 -79.7363 114.467C-67.907 131.625 -52.5525 143.833 -33.6731 151.09C-14.8507 158.337 5.06343 162.023 25.1309 161.976Z" fill="#EDEEF7" fill-opacity="0.03"/>
<path d="M400.031 513.502C418.755 513.542 437.338 510.13 454.919 503.424C472.473 496.767 488.333 486.017 501.285 471.997C502.93 482.578 508.311 490.684 517.427 496.316C526.544 501.947 536.619 504.871 547.655 505.087V426.899C536.953 427.125 526.496 430.282 517.337 436.051C508.178 441.827 502.828 450.092 501.285 460.848C487.849 447.263 471.982 436.556 454.585 429.337C437.235 422.116 418.715 418.432 400.031 418.484C379.99 418.431 360.101 422.118 341.309 429.37C322.477 436.63 307.096 448.838 295.164 465.993C306.993 483.151 322.348 495.359 341.227 502.616C360.05 509.863 379.964 513.549 400.031 513.502Z" fill="#EDEEF7" fill-opacity="0.03"/>
<path d="M682.609 513.502C701.333 513.542 719.916 510.13 737.497 503.424C755.051 496.767 770.911 486.017 783.863 471.997C785.508 482.578 790.889 490.684 800.005 496.316C809.122 501.947 819.198 504.871 830.233 505.087V426.899C819.531 427.125 809.074 430.282 799.915 436.051C790.756 441.827 785.406 450.092 783.863 460.848C770.427 447.263 754.56 436.556 737.163 429.337C719.813 422.116 701.293 418.432 682.609 418.484C662.568 418.431 642.68 422.118 623.887 429.37C605.055 436.63 589.674 448.838 577.742 465.993C589.572 483.151 604.926 495.359 623.805 502.616C642.628 509.863 662.542 513.549 682.609 513.502Z" fill="#EDEEF7" fill-opacity="0.03"/>
<path d="M965.188 513.502C983.911 513.542 1002.49 510.13 1020.08 503.424C1037.63 496.767 1053.49 486.017 1066.44 471.997C1068.09 482.578 1073.47 490.684 1082.58 496.316C1091.7 501.947 1101.78 504.871 1112.81 505.087V426.899C1102.11 427.125 1091.65 430.282 1082.49 436.051C1073.33 441.827 1067.98 450.092 1066.44 460.848C1053.01 447.263 1037.14 436.556 1019.74 429.337C1002.39 422.116 983.872 418.432 965.188 418.484C945.146 418.431 925.258 422.118 906.465 429.37C887.633 436.63 872.252 448.838 860.32 465.993C872.15 483.151 887.504 495.359 906.384 502.616C925.206 509.863 945.12 513.549 965.188 513.502Z" fill="#EDEEF7" fill-opacity="0.03"/>
<path d="M117.457 513.502C136.181 513.542 154.763 510.13 172.345 503.424C189.899 496.767 205.758 486.017 218.71 471.997C220.356 482.578 225.736 490.684 234.853 496.316C243.969 501.947 254.045 504.871 265.081 505.087V426.899C254.378 427.125 243.922 430.282 234.763 436.051C225.604 441.827 220.253 450.092 218.71 460.848C205.275 447.263 189.408 436.556 172.011 429.337C154.661 422.116 136.141 418.432 117.457 418.484C97.4156 418.431 77.5272 422.118 58.7343 429.37C39.903 436.63 24.5215 448.838 12.5898 465.993C24.4192 483.151 39.7736 495.359 58.6531 502.616C77.4754 509.863 97.3896 513.549 117.457 513.502Z" fill="#EDEEF7" fill-opacity="0.03"/>
<path d="M400.031 279.151C418.755 279.192 437.338 275.78 454.919 269.074C472.473 262.416 488.333 251.667 501.285 237.647C502.93 248.227 508.311 256.333 517.427 261.965C526.544 267.597 536.619 270.521 547.655 270.737V192.548C536.953 192.775 526.496 195.931 517.337 201.7C508.178 207.476 502.828 215.742 501.285 226.498C487.849 212.912 471.982 202.206 454.585 194.986C437.235 187.766 418.715 184.081 400.031 184.133C379.99 184.081 360.101 187.768 341.309 195.019C322.477 202.28 307.096 214.487 295.164 231.642C306.993 248.8 322.348 261.008 341.227 268.265C360.05 275.512 379.964 279.199 400.031 279.151Z" fill="#EDEEF7" fill-opacity="0.03"/>
<path d="M682.609 279.151C701.333 279.192 719.916 275.78 737.497 269.074C755.051 262.416 770.911 251.667 783.863 237.647C785.508 248.227 790.889 256.333 800.005 261.965C809.122 267.597 819.198 270.521 830.233 270.737V192.548C819.531 192.775 809.074 195.931 799.915 201.7C790.756 207.476 785.406 215.742 783.863 226.498C770.427 212.912 754.56 202.206 737.163 194.986C719.813 187.766 701.293 184.081 682.609 184.133C662.568 184.081 642.68 187.768 623.887 195.019C605.055 202.28 589.674 214.487 577.742 231.642C589.572 248.8 604.926 261.008 623.805 268.265C642.628 275.512 662.542 279.199 682.609 279.151Z" fill="#EDEEF7" fill-opacity="0.03"/>
<path d="M965.188 279.151C983.911 279.192 1002.49 275.78 1020.08 269.074C1037.63 262.416 1053.49 251.667 1066.44 237.647C1068.09 248.227 1073.47 256.333 1082.58 261.965C1091.7 267.597 1101.78 270.521 1112.81 270.737V192.548C1102.11 192.775 1091.65 195.931 1082.49 201.7C1073.33 207.476 1067.98 215.742 1066.44 226.498C1053.01 212.912 1037.14 202.206 1019.74 194.986C1002.39 187.766 983.872 184.081 965.188 184.133C945.146 184.081 925.258 187.768 906.465 195.019C887.633 202.28 872.252 214.487 860.32 231.642C872.15 248.8 887.504 261.008 906.384 268.265C925.206 275.512 945.12 279.199 965.188 279.151Z" fill="#EDEEF7" fill-opacity="0.03"/>
<path d="M117.457 279.151C136.181 279.192 154.763 275.78 172.345 269.074C189.899 262.416 205.758 251.667 218.71 237.647C220.356 248.227 225.736 256.333 234.853 261.965C243.969 267.597 254.045 270.521 265.081 270.737V192.548C254.378 192.775 243.922 195.931 234.763 201.7C225.604 207.476 220.253 215.742 218.71 226.498C205.275 212.912 189.408 202.206 172.011 194.986C154.661 187.766 136.141 184.081 117.457 184.133C97.4156 184.081 77.5272 187.768 58.7343 195.019C39.903 202.28 24.5215 214.487 12.5898 231.642C24.4192 248.8 39.7736 261.008 58.6531 268.265C77.4754 275.512 97.3896 279.199 117.457 279.151Z" fill="#EDEEF7" fill-opacity="0.03"/>
<path d="M400.031 44.8008C418.755 44.8412 437.338 41.4293 454.919 34.723C472.473 28.0658 488.333 17.3162 501.285 3.29618C502.93 13.8767 508.311 21.9828 517.427 27.6145C526.544 33.2462 536.619 36.17 547.655 36.3862V-41.8026C536.953 -41.5757 526.496 -38.4192 517.337 -32.6504C508.178 -26.8746 502.828 -18.6088 501.285 -7.85283C487.849 -21.4385 471.982 -32.1448 454.585 -39.3642C437.235 -46.5847 418.715 -50.2691 400.031 -50.2172C379.99 -50.2699 360.101 -46.583 341.309 -39.3313C322.477 -32.0709 307.096 -19.8632 295.164 -2.70822C306.993 14.4499 322.348 26.6576 341.227 33.9149C360.05 41.1615 379.964 44.8481 400.031 44.8008Z" fill="#EDEEF7" fill-opacity="0.03"/>
<path d="M682.609 44.8008C701.333 44.8412 719.916 41.4293 737.497 34.723C755.051 28.0658 770.911 17.3162 783.863 3.29618C785.508 13.8767 790.889 21.9828 800.005 27.6145C809.122 33.2462 819.198 36.17 830.233 36.3862V-41.8026C819.531 -41.5757 809.074 -38.4192 799.915 -32.6504C790.756 -26.8746 785.406 -18.6088 783.863 -7.85283C770.427 -21.4385 754.56 -32.1448 737.163 -39.3642C719.813 -46.5847 701.293 -50.2691 682.609 -50.2172C662.568 -50.2699 642.68 -46.583 623.887 -39.3313C605.055 -32.0709 589.674 -19.8632 577.742 -2.70822C589.572 14.4499 604.926 26.6576 623.805 33.9149C642.628 41.1615 662.542 44.8481 682.609 44.8008Z" fill="#EDEEF7" fill-opacity="0.03"/>
<path d="M965.188 44.8008C983.911 44.8412 1002.49 41.4293 1020.08 34.723C1037.63 28.0658 1053.49 17.3162 1066.44 3.29618C1068.09 13.8767 1073.47 21.9828 1082.58 27.6145C1091.7 33.2462 1101.78 36.17 1112.81 36.3862V-41.8026C1102.11 -41.5757 1091.65 -38.4192 1082.49 -32.6504C1073.33 -26.8746 1067.98 -18.6088 1066.44 -7.85283C1053.01 -21.4385 1037.14 -32.1448 1019.74 -39.3642C1002.39 -46.5847 983.872 -50.2691 965.188 -50.2172C945.146 -50.2699 925.258 -46.583 906.465 -39.3313C887.633 -32.0709 872.252 -19.8632 860.32 -2.70822C872.15 14.4499 887.504 26.6576 906.384 33.9149C925.206 41.1615 945.12 44.8481 965.188 44.8008Z" fill="#EDEEF7" fill-opacity="0.03"/>
<path d="M117.457 44.8008C136.181 44.8412 154.763 41.4293 172.345 34.723C189.899 28.0658 205.758 17.3162 218.71 3.29618C220.356 13.8767 225.736 21.9828 234.853 27.6145C243.969 33.2462 254.045 36.17 265.081 36.3862V-41.8026C254.378 -41.5757 243.922 -38.4192 234.763 -32.6504C225.604 -26.8746 220.253 -18.6088 218.71 -7.85283C205.275 -21.4385 189.408 -32.1448 172.011 -39.3642C154.661 -46.5847 136.141 -50.2691 117.457 -50.2172C97.4156 -50.2699 77.5272 -46.583 58.7343 -39.3313C39.903 -32.0709 24.5215 -19.8632 12.5898 -2.70822C24.4192 14.4499 39.7736 26.6576 58.6531 33.9149C77.4754 41.1615 97.3896 44.8481 117.457 44.8008Z" fill="#EDEEF7" fill-opacity="0.03"/>
</g>
</svg>
