<svg width="1440" height="900" viewBox="0 0 1440 900" fill="none" xmlns="http://www.w3.org/2000/svg">
<mask id="mask0_1142_10445" style="mask-type:alpha" maskUnits="userSpaceOnUse" x="0" y="0" width="1440" height="900">
<rect width="1440" height="900" fill="#2F306A"/>
</mask>
<g mask="url(#mask0_1142_10445)">
<path d="M438.713 899.539C465.408 899.597 491.902 894.731 516.969 885.165C541.996 875.67 564.608 860.338 583.074 840.341C585.42 855.432 593.091 866.994 606.089 875.026C619.087 883.059 633.452 887.229 649.186 887.538V776.016C633.927 776.34 619.02 780.842 605.96 789.07C592.903 797.308 585.274 809.098 583.074 824.439C563.918 805.062 541.296 789.791 516.493 779.494C491.756 769.195 465.352 763.94 438.713 764.014C410.139 763.939 381.783 769.198 354.989 779.541C328.141 789.897 306.211 807.309 289.199 831.777C306.065 856.25 327.956 873.662 354.874 884.013C381.709 894.349 410.102 899.607 438.713 899.539Z" fill="#2F306A" fill-opacity="0.03"/>
<path d="M841.592 899.539C868.287 899.597 894.781 894.731 919.848 885.165C944.875 875.67 967.487 860.338 985.953 840.341C988.299 855.432 995.97 866.994 1008.97 875.026C1021.97 883.059 1036.33 887.229 1052.06 887.538V776.016C1036.81 776.34 1021.9 780.842 1008.84 789.07C995.782 797.308 988.153 809.098 985.953 824.439C966.797 805.062 944.175 789.791 919.372 779.494C894.635 769.195 868.23 763.94 841.592 764.014C813.018 763.939 784.662 769.198 757.868 779.541C731.02 789.897 709.09 807.309 692.078 831.777C708.944 856.25 730.835 873.662 757.752 884.013C784.588 894.349 812.981 899.607 841.592 899.539Z" fill="#2F306A" fill-opacity="0.03"/>
<path d="M1244.47 899.539C1271.17 899.597 1297.66 894.731 1322.73 885.165C1347.75 875.67 1370.37 860.338 1388.83 840.341C1391.18 855.432 1398.85 866.994 1411.85 875.026C1424.84 883.059 1439.21 887.229 1454.94 887.538V776.016C1439.69 776.34 1424.78 780.842 1411.72 789.07C1398.66 797.308 1391.03 809.098 1388.83 824.439C1369.68 805.062 1347.05 789.791 1322.25 779.494C1297.51 769.195 1271.11 763.94 1244.47 764.014C1215.9 763.939 1187.54 769.198 1160.75 779.541C1133.9 789.897 1111.97 807.309 1094.96 831.777C1111.82 856.25 1133.71 873.662 1160.63 884.013C1187.47 894.349 1215.86 899.607 1244.47 899.539Z" fill="#2F306A" fill-opacity="0.03"/>
<path d="M35.83 899.539C62.5252 899.597 89.0194 894.731 114.086 885.165C139.113 875.67 161.725 860.338 180.191 840.341C182.537 855.432 190.209 866.994 203.206 875.026C216.204 883.059 230.57 887.229 246.303 887.538V776.016C231.045 776.34 216.137 780.842 203.078 789.07C190.02 797.308 182.391 809.098 180.191 824.439C161.035 805.062 138.414 789.791 113.61 779.494C88.8734 769.195 62.4688 763.94 35.83 764.014C7.25608 763.939 -21.0997 769.198 -47.8935 779.541C-74.7421 789.897 -96.6722 807.309 -113.684 831.777C-96.818 856.25 -74.9265 873.662 -48.0093 884.013C-21.1734 894.349 7.21904 899.607 35.83 899.539Z" fill="#2F306A" fill-opacity="0.03"/>
<path d="M438.713 565.283C465.408 565.341 491.902 560.475 516.969 550.909C541.996 541.414 564.608 526.082 583.074 506.085C585.42 521.176 593.091 532.738 606.089 540.771C619.087 548.803 633.452 552.973 649.186 553.282V441.76C633.927 442.084 619.02 446.586 605.96 454.814C592.903 463.052 585.274 474.842 583.074 490.183C563.918 470.806 541.296 455.535 516.493 445.238C491.756 434.94 465.352 429.685 438.713 429.759C410.139 429.684 381.783 434.942 354.989 445.285C328.141 455.641 306.211 473.053 289.199 497.521C306.065 521.994 327.956 539.406 354.874 549.757C381.709 560.093 410.102 565.351 438.713 565.283Z" fill="#2F306A" fill-opacity="0.03"/>
<path d="M841.592 565.283C868.287 565.341 894.781 560.475 919.848 550.909C944.875 541.414 967.487 526.082 985.953 506.085C988.299 521.176 995.97 532.738 1008.97 540.771C1021.97 548.803 1036.33 552.973 1052.06 553.282V441.76C1036.81 442.084 1021.9 446.586 1008.84 454.814C995.782 463.052 988.153 474.842 985.953 490.183C966.797 470.806 944.175 455.535 919.372 445.238C894.635 434.94 868.23 429.685 841.592 429.759C813.018 429.684 784.662 434.942 757.868 445.285C731.02 455.641 709.09 473.053 692.078 497.521C708.944 521.994 730.835 539.406 757.752 549.757C784.588 560.093 812.981 565.351 841.592 565.283Z" fill="#2F306A" fill-opacity="0.03"/>
<path d="M1244.47 565.283C1271.17 565.341 1297.66 560.475 1322.73 550.909C1347.75 541.414 1370.37 526.082 1388.83 506.085C1391.18 521.176 1398.85 532.738 1411.85 540.771C1424.84 548.803 1439.21 552.973 1454.94 553.282V441.76C1439.69 442.084 1424.78 446.586 1411.72 454.814C1398.66 463.052 1391.03 474.842 1388.83 490.183C1369.68 470.806 1347.05 455.535 1322.25 445.238C1297.51 434.94 1271.11 429.685 1244.47 429.759C1215.9 429.684 1187.54 434.942 1160.75 445.285C1133.9 455.641 1111.97 473.053 1094.96 497.521C1111.82 521.994 1133.71 539.406 1160.63 549.757C1187.47 560.093 1215.86 565.351 1244.47 565.283Z" fill="#2F306A" fill-opacity="0.03"/>
<path d="M35.83 565.283C62.5252 565.341 89.0194 560.475 114.086 550.909C139.113 541.414 161.725 526.082 180.191 506.085C182.537 521.176 190.209 532.738 203.206 540.771C216.204 548.803 230.57 552.973 246.303 553.282V441.76C231.045 442.084 216.137 446.586 203.078 454.814C190.02 463.052 182.391 474.842 180.191 490.183C161.035 470.806 138.414 455.535 113.61 445.238C88.8734 434.94 62.4688 429.685 35.83 429.759C7.25608 429.684 -21.0997 434.942 -47.8935 445.285C-74.7421 455.641 -96.6722 473.053 -113.684 497.521C-96.818 521.994 -74.9265 539.406 -48.0093 549.757C-21.1734 560.093 7.21904 565.351 35.83 565.283Z" fill="#2F306A" fill-opacity="0.03"/>
<path d="M438.713 231.028C465.408 231.085 491.902 226.219 516.969 216.654C541.996 207.158 564.608 191.826 583.074 171.829C585.42 186.92 593.091 198.482 606.089 206.515C619.087 214.547 633.452 218.718 649.186 219.026V107.505C633.927 107.828 619.02 112.33 605.96 120.559C592.903 128.796 585.274 140.586 583.074 155.927C563.918 136.55 541.296 121.28 516.493 110.982C491.756 100.684 465.352 95.4287 438.713 95.5027C410.139 95.4277 381.783 100.686 354.989 111.029C328.141 121.385 306.211 138.797 289.199 163.265C306.065 187.738 327.956 205.15 354.874 215.501C381.709 225.837 410.102 231.095 438.713 231.028Z" fill="#2F306A" fill-opacity="0.03"/>
<path d="M841.592 231.028C868.287 231.085 894.781 226.219 919.848 216.654C944.875 207.158 967.487 191.826 985.953 171.829C988.299 186.92 995.97 198.482 1008.97 206.515C1021.97 214.547 1036.33 218.718 1052.06 219.026V107.505C1036.81 107.828 1021.9 112.33 1008.84 120.559C995.782 128.796 988.153 140.586 985.953 155.927C966.797 136.55 944.175 121.28 919.372 110.982C894.635 100.684 868.23 95.4287 841.592 95.5027C813.018 95.4277 784.662 100.686 757.868 111.029C731.02 121.385 709.09 138.797 692.078 163.265C708.944 187.738 730.835 205.15 757.752 215.501C784.588 225.837 812.981 231.095 841.592 231.028Z" fill="#2F306A" fill-opacity="0.03"/>
<path d="M1244.47 231.028C1271.17 231.085 1297.66 226.219 1322.73 216.654C1347.75 207.158 1370.37 191.826 1388.83 171.829C1391.18 186.92 1398.85 198.482 1411.85 206.515C1424.84 214.547 1439.21 218.718 1454.94 219.026V107.505C1439.69 107.828 1424.78 112.33 1411.72 120.559C1398.66 128.796 1391.03 140.586 1388.83 155.927C1369.68 136.55 1347.05 121.28 1322.25 110.982C1297.51 100.684 1271.11 95.4287 1244.47 95.5027C1215.9 95.4277 1187.54 100.686 1160.75 111.029C1133.9 121.385 1111.97 138.797 1094.96 163.265C1111.82 187.738 1133.71 205.15 1160.63 215.501C1187.47 225.837 1215.86 231.095 1244.47 231.028Z" fill="#2F306A" fill-opacity="0.03"/>
<path d="M35.83 231.028C62.5252 231.085 89.0194 226.219 114.086 216.654C139.113 207.158 161.725 191.826 180.191 171.829C182.537 186.92 190.209 198.482 203.206 206.515C216.204 214.547 230.57 218.718 246.303 219.026V107.505C231.045 107.828 216.137 112.33 203.078 120.559C190.02 128.796 182.391 140.586 180.191 155.927C161.035 136.55 138.414 121.28 113.61 110.982C88.8734 100.684 62.4688 95.4287 35.83 95.5027C7.25608 95.4277 -21.0997 100.686 -47.8935 111.029C-74.7421 121.385 -96.6722 138.797 -113.684 163.265C-96.818 187.738 -74.9265 205.15 -48.0093 215.501C-21.1734 225.837 7.21904 231.095 35.83 231.028Z" fill="#2F306A" fill-opacity="0.03"/>
<path d="M570.342 732.411C597.037 732.469 623.531 727.603 648.598 718.037C673.625 708.542 696.237 693.21 714.703 673.213C717.049 688.304 724.72 699.866 737.718 707.898C750.716 715.931 765.081 720.101 780.815 720.41V608.888C765.556 609.212 750.648 613.714 737.589 621.942C724.532 630.18 716.903 641.97 714.703 657.311C695.547 637.934 672.925 622.663 648.122 612.366C623.385 602.068 596.98 596.813 570.342 596.887C541.768 596.811 513.412 602.07 486.618 612.413C459.77 622.769 437.84 640.181 420.828 664.649C437.694 689.122 459.585 706.534 486.502 716.885C513.338 727.221 541.731 732.479 570.342 732.411Z" fill="#2F306A" fill-opacity="0.03"/>
<path d="M973.225 732.411C999.92 732.469 1026.41 727.603 1051.48 718.037C1076.51 708.542 1099.12 693.21 1117.59 673.213C1119.93 688.304 1127.6 699.866 1140.6 707.898C1153.6 715.931 1167.96 720.101 1183.7 720.41V608.888C1168.44 609.212 1153.53 613.714 1140.47 621.942C1127.41 630.18 1119.79 641.97 1117.59 657.311C1098.43 637.934 1075.81 622.663 1051 612.366C1026.27 602.068 999.863 596.813 973.225 596.887C944.651 596.811 916.295 602.07 889.501 612.413C862.652 622.769 840.722 640.181 823.711 664.649C840.577 689.122 862.468 706.534 889.385 716.885C916.221 727.221 944.614 732.479 973.225 732.411Z" fill="#2F306A" fill-opacity="0.03"/>
<path d="M1376.11 732.411C1402.8 732.469 1429.3 727.603 1454.36 718.037C1479.39 708.542 1502 693.21 1520.47 673.213C1522.81 688.304 1530.49 699.866 1543.48 707.898C1556.48 715.931 1570.85 720.101 1586.58 720.41V608.888C1571.32 609.212 1556.41 613.714 1543.36 621.942C1530.3 630.18 1522.67 641.97 1520.47 657.311C1501.31 637.934 1478.69 622.663 1453.89 612.366C1429.15 602.068 1402.75 596.813 1376.11 596.887C1347.53 596.811 1319.18 602.07 1292.38 612.413C1265.54 622.769 1243.61 640.181 1226.59 664.649C1243.46 689.122 1265.35 706.534 1292.27 716.885C1319.1 727.221 1347.5 732.479 1376.11 732.411Z" fill="#2F306A" fill-opacity="0.03"/>
<path d="M167.463 732.411C194.158 732.469 220.652 727.603 245.719 718.037C270.746 708.542 293.358 693.21 311.824 673.213C314.17 688.304 321.841 699.866 334.839 707.898C347.837 715.931 362.202 720.101 377.936 720.41V608.888C362.677 609.212 347.77 613.714 334.71 621.942C321.653 630.18 314.024 641.97 311.824 657.311C292.668 637.934 270.046 622.663 245.243 612.366C220.506 602.068 194.102 596.813 167.463 596.887C138.889 596.811 110.533 602.07 83.7393 612.413C56.8907 622.769 34.9607 640.181 17.9492 664.649C34.8148 689.122 56.7063 706.534 83.6236 716.885C110.459 727.221 138.852 732.479 167.463 732.411Z" fill="#2F306A" fill-opacity="0.03"/>
<path d="M570.342 398.156C597.037 398.213 623.531 393.347 648.598 383.782C673.625 374.286 696.237 358.954 714.703 338.957C717.049 354.048 724.72 365.61 737.718 373.643C750.716 381.675 765.081 385.845 780.815 386.154V274.633C765.556 274.956 750.648 279.458 737.589 287.686C724.532 295.924 716.903 307.714 714.703 323.055C695.547 303.678 672.925 288.407 648.122 278.11C623.385 267.812 596.98 262.557 570.342 262.631C541.768 262.556 513.412 267.814 486.618 278.157C459.77 288.513 437.84 305.925 420.828 330.393C437.694 354.866 459.585 372.278 486.502 382.629C513.338 392.965 541.731 398.223 570.342 398.156Z" fill="#2F306A" fill-opacity="0.03"/>
<path d="M973.225 398.156C999.92 398.213 1026.41 393.347 1051.48 383.782C1076.51 374.286 1099.12 358.954 1117.59 338.957C1119.93 354.048 1127.6 365.61 1140.6 373.643C1153.6 381.675 1167.96 385.845 1183.7 386.154V274.633C1168.44 274.956 1153.53 279.458 1140.47 287.686C1127.41 295.924 1119.79 307.714 1117.59 323.055C1098.43 303.678 1075.81 288.407 1051 278.11C1026.27 267.812 999.863 262.557 973.225 262.631C944.651 262.556 916.295 267.814 889.501 278.157C862.652 288.513 840.722 305.925 823.711 330.393C840.577 354.866 862.468 372.278 889.385 382.629C916.221 392.965 944.614 398.223 973.225 398.156Z" fill="#2F306A" fill-opacity="0.03"/>
<path d="M1376.11 398.156C1402.8 398.213 1429.3 393.347 1454.36 383.782C1479.39 374.286 1502 358.954 1520.47 338.957C1522.81 354.048 1530.49 365.61 1543.48 373.643C1556.48 381.675 1570.85 385.845 1586.58 386.154V274.633C1571.32 274.956 1556.41 279.458 1543.36 287.686C1530.3 295.924 1522.67 307.714 1520.47 323.055C1501.31 303.678 1478.69 288.407 1453.89 278.11C1429.15 267.812 1402.75 262.557 1376.11 262.631C1347.53 262.556 1319.18 267.814 1292.38 278.157C1265.54 288.513 1243.61 305.925 1226.59 330.393C1243.46 354.866 1265.35 372.278 1292.27 382.629C1319.1 392.965 1347.5 398.223 1376.11 398.156Z" fill="#2F306A" fill-opacity="0.03"/>
<path d="M167.463 398.156C194.158 398.213 220.652 393.347 245.719 383.782C270.746 374.286 293.358 358.954 311.824 338.957C314.17 354.048 321.841 365.61 334.839 373.643C347.837 381.675 362.202 385.845 377.936 386.154V274.633C362.677 274.956 347.77 279.458 334.71 287.686C321.653 295.924 314.024 307.714 311.824 323.055C292.668 303.678 270.046 288.407 245.243 278.11C220.506 267.812 194.102 262.557 167.463 262.631C138.889 262.556 110.533 267.814 83.7393 278.157C56.8907 288.513 34.9607 305.925 17.9492 330.393C34.8148 354.866 56.7063 372.278 83.6236 382.629C110.459 392.965 138.852 398.223 167.463 398.156Z" fill="#2F306A" fill-opacity="0.03"/>
<path d="M570.342 63.8992C597.037 63.9568 623.531 59.0904 648.598 49.5252C673.625 40.03 696.237 24.6977 714.703 4.7009C717.049 19.792 724.72 31.3538 737.718 39.3863C750.716 47.4188 765.081 51.5891 780.815 51.8974V-59.6238C765.556 -59.3002 750.648 -54.798 737.589 -46.5699C724.532 -38.3319 716.903 -26.5423 714.703 -11.201C695.547 -30.5784 672.925 -45.8489 648.122 -56.1459C623.385 -66.4447 596.98 -71.6997 570.342 -71.6257C541.768 -71.7008 513.412 -66.4421 486.618 -56.099C459.77 -45.7434 437.84 -28.3315 420.828 -3.86323C437.694 20.6095 459.585 38.0215 486.502 48.3726C513.338 58.7085 541.731 63.9666 570.342 63.8992Z" fill="#2F306A" fill-opacity="0.03"/>
<path d="M973.225 63.8992C999.92 63.9568 1026.41 59.0904 1051.48 49.5252C1076.51 40.03 1099.12 24.6977 1117.59 4.7009C1119.93 19.792 1127.6 31.3538 1140.6 39.3863C1153.6 47.4188 1167.96 51.5891 1183.7 51.8974V-59.6238C1168.44 -59.3002 1153.53 -54.798 1140.47 -46.5699C1127.41 -38.3319 1119.79 -26.5423 1117.59 -11.201C1098.43 -30.5784 1075.81 -45.8489 1051 -56.1459C1026.27 -66.4447 999.863 -71.6997 973.225 -71.6257C944.651 -71.7008 916.295 -66.4421 889.501 -56.099C862.652 -45.7434 840.722 -28.3315 823.711 -3.86323C840.577 20.6095 862.468 38.0215 889.385 48.3726C916.221 58.7085 944.614 63.9666 973.225 63.8992Z" fill="#2F306A" fill-opacity="0.03"/>
<path d="M1376.11 63.8992C1402.8 63.9568 1429.3 59.0904 1454.36 49.5252C1479.39 40.03 1502 24.6977 1520.47 4.7009C1522.81 19.792 1530.49 31.3538 1543.48 39.3863C1556.48 47.4188 1570.85 51.5891 1586.58 51.8974V-59.6238C1571.32 -59.3002 1556.41 -54.798 1543.36 -46.5699C1530.3 -38.3319 1522.67 -26.5423 1520.47 -11.201C1501.31 -30.5784 1478.69 -45.8489 1453.89 -56.1459C1429.15 -66.4447 1402.75 -71.6997 1376.11 -71.6257C1347.53 -71.7008 1319.18 -66.4421 1292.38 -56.099C1265.54 -45.7434 1243.61 -28.3315 1226.59 -3.86323C1243.46 20.6095 1265.35 38.0215 1292.27 48.3726C1319.1 58.7085 1347.5 63.9666 1376.11 63.8992Z" fill="#2F306A" fill-opacity="0.03"/>
<path d="M167.463 63.8992C194.158 63.9568 220.652 59.0904 245.719 49.5252C270.746 40.03 293.358 24.6977 311.824 4.7009C314.17 19.792 321.841 31.3538 334.839 39.3863C347.837 47.4188 362.202 51.5891 377.936 51.8974V-59.6238C362.677 -59.3002 347.77 -54.798 334.71 -46.5699C321.653 -38.3319 314.024 -26.5423 311.824 -11.201C292.668 -30.5784 270.046 -45.8489 245.243 -56.1459C220.506 -66.4447 194.102 -71.6997 167.463 -71.6257C138.889 -71.7008 110.533 -66.4421 83.7393 -56.099C56.8907 -45.7434 34.9607 -28.3315 17.9492 -3.86323C34.8148 20.6095 56.7063 38.0215 83.6236 48.3726C110.459 58.7085 138.852 63.9666 167.463 63.8992Z" fill="#2F306A" fill-opacity="0.03"/>
</g>
</svg>
