<svg width="1440" height="900" viewBox="0 0 1440 900" fill="none" xmlns="http://www.w3.org/2000/svg">
<g clip-path="url(#clip0_1142_10408)">
<g clip-path="url(#clip1_1142_10408)">
<path d="M815.526 216.983C815.688 213.399 815.209 209.891 815.05 206.352C814.181 202.726 813.005 199.181 811.534 195.755C810.135 193.161 808.427 190.748 806.446 188.569C802.268 195.528 795.35 199.046 788.628 202.911C773.391 211.704 756.867 213.58 739.697 212.676C738.546 212.584 737.407 212.388 736.293 212.089C734.649 211.706 733.509 210.795 733.836 208.896C734.164 206.997 735.508 206.558 737.215 206.738C744.293 207.443 751.426 207.381 758.492 206.552C775.053 204.885 790.668 198.02 803.108 186.938C804.15 186.018 805.149 185.263 806.226 186.619C807.303 187.975 807.904 187.051 808.492 186.124C810.791 182.538 813.272 179.055 814.527 174.918C814.98 164.52 814.19 154.221 810.563 144.432C806.935 134.643 799.945 129.156 789.219 128.806C788.359 128.707 787.488 128.867 786.719 129.266C785.95 129.665 785.316 130.284 784.9 131.045C781.205 136.631 776.665 141.607 771.443 145.796C770.086 146.89 770.194 147.422 771.101 148.692C774.82 153.815 773.829 158.654 768.481 162.071C766.013 163.712 763.066 164.476 760.114 164.24C758.261 164.078 756.39 163.941 754.488 163.813C753.831 163.689 753.15 163.805 752.57 164.14C751.99 164.474 751.548 165.005 751.324 165.637C749.57 170.217 747.14 174.509 744.114 178.367C736.882 188.254 728.779 197.32 717.692 203.116C716.972 203.492 716.277 203.8 716.195 204.771C715.742 209.217 713.638 213.08 711.894 217.075C709.232 223.182 706.769 229.452 702.509 234.655C697.104 241.217 690.818 246.685 681.866 246.955C674.738 247.222 667.655 245.727 661.244 242.601C659.681 241.832 658.286 240.663 656.321 240.824C655.295 240.904 654.719 239.949 654.351 238.943C653.767 237.287 653.564 235.239 652.569 234.069C650.225 231.138 647.673 228.086 643.692 227.129C634.844 224.976 626.042 225.785 617.38 228.174C614.599 229.137 612.172 230.918 610.415 233.283C605.088 239.387 605.237 246.792 604.544 254.037C605.179 254.318 605.511 253.961 605.852 253.72C615.412 246.947 626.475 244.429 637.747 242.276C639.395 241.89 641.105 241.85 642.769 242.157C643.71 242.319 644.47 242.949 644.411 243.953C644.352 244.956 643.536 245.229 642.745 245.35C642.23 245.446 641.692 245.511 641.169 245.649C629.788 248.769 618.18 251.307 608.34 258.546C603.439 262.183 603.044 262.657 604.983 268.6C605.638 270.641 606.615 272.563 607.877 274.295C609.62 276.665 611.338 279.016 613.254 281.288C619.689 289.006 626.304 296.512 634.852 302.139C648.116 310.905 662.966 314.778 678.508 316.529C687.031 317.688 695.705 316.194 703.355 312.248C708.06 309.748 712.284 306.651 714.452 301.515C714.743 300.93 714.871 300.277 714.823 299.626C714.775 298.975 714.552 298.348 714.178 297.813C710.779 291.966 707.744 285.913 705.091 279.69C703.678 276.71 702.784 273.51 702.447 270.228C702.382 269.203 702.268 267.799 703.576 267.568C704.884 267.336 705.024 268.588 705.384 269.478C705.554 269.893 705.695 270.317 705.871 270.704C710.038 279.963 714.95 288.868 720.559 297.329C720.81 297.902 721.19 298.409 721.67 298.809C722.151 299.209 722.717 299.491 723.326 299.633C733.1 300.79 743.083 301.811 752.743 299.251C766.6 295.574 775.221 285.569 781.555 273.287C782.674 270.844 783.249 268.186 783.24 265.499C783.298 264.253 782.875 263.566 781.409 263.556C774.472 263.46 767.898 261.427 761.501 259.026C751.17 255.147 741.68 249.443 731.648 244.902C730.231 244.156 728.926 243.215 727.77 242.107C726.991 241.416 726.182 240.406 727.036 239.34C727.889 238.273 728.906 238.905 729.723 239.375C734.074 241.823 738.856 243.261 743.408 245.288C753.44 249.743 763.07 255.214 774.085 257.441C782.842 259.207 791.14 260.252 797.486 252.04C797.673 251.85 797.875 251.674 798.089 251.516C808.218 242.186 814.903 231.177 815.526 216.983ZM681.535 298.224C676.218 298.236 670.874 298.571 666.057 297.754C661.335 296.298 656.859 295.898 652.678 294.278C641.014 289.784 630.706 283.454 623.718 272.658C622.718 271.291 621.955 269.765 621.462 268.144C621.271 267.681 621.259 267.163 621.427 266.691C621.595 266.219 621.932 265.827 622.372 265.589C623.384 265.092 624.04 265.748 624.632 266.449C625.047 266.935 625.45 267.404 625.805 267.908C633.335 278.697 643.733 285.5 656.034 289.604C664.239 292.307 672.878 293.443 681.503 292.952C683.342 292.869 685.399 292.838 685.453 295.331C685.508 297.824 683.541 298.242 681.535 298.224ZM726.735 282.25C726.838 281.902 727.072 281.607 727.387 281.427C727.702 281.248 728.074 281.197 728.426 281.286C741.066 283.179 750.926 277.143 760.46 270.108C761.316 269.448 762.271 268.928 763.29 268.569C763.829 268.333 764.432 268.286 765.001 268.436C765.57 268.585 766.072 268.923 766.425 269.395C766.811 269.848 767.002 270.436 766.955 271.03C766.909 271.624 766.629 272.175 766.178 272.564C756.108 280.477 745.557 287.293 731.889 285.908C730.277 285.766 728.733 285.194 727.416 284.252C727.092 284.046 726.847 283.735 726.724 283.371C726.6 283.007 726.604 282.612 726.735 282.25ZM725.756 293.301C726.12 293.423 726.47 293.584 726.799 293.78C726.327 293.786 725.855 293.766 725.385 293.722C725.143 293.675 724.907 293.601 724.682 293.501C724.707 293.396 724.726 293.289 724.737 293.182C725.093 293.197 725.447 293.244 725.796 293.322L725.756 293.301ZM785.418 244.764C783.911 246.146 782.169 248.4 780 246.271C777.831 244.141 779.896 242.328 781.357 240.796C786.731 235.242 791.65 229.438 793.715 221.758C794.97 217.036 796.143 212.3 797.371 207.573C797.402 207.393 797.433 207.212 797.464 207.032C797.897 205.679 798.101 203.831 799.937 204.176C801.773 204.521 801.294 206.308 801.189 207.574C801.084 210.866 800.72 214.144 800.098 217.378C798.954 228.314 793.663 237.35 785.512 244.795L785.418 244.764Z" fill="#2F306A" fill-opacity="0.15"/>
<path d="M784.922 121.742C783.28 116.659 781.16 111.744 778.59 107.063C776.269 102.503 772.673 98.7197 768.242 96.1725C758.989 91.3234 749.562 87.2434 738.668 87.6208C733.087 87.8435 727.268 86.9688 721.862 87.5786C712.434 88.6488 702.936 88.9638 693.459 88.5205C685.626 88.1695 677.827 88.281 670.379 85.1988C666.392 83.5268 662.25 82.0991 658.189 80.5284C653.53 78.7119 648.958 76.7963 645.843 72.5483C645.467 72.0399 644.93 71.6737 644.32 71.5089C643.709 71.3442 643.061 71.3905 642.48 71.6404C641.93 71.8595 641.486 72.3681 640.751 72.0845C635.266 70.0115 629.353 69.3491 623.914 67.0983C615.955 63.7567 608.639 59.0843 600.387 56.3632C594.076 54.4852 588.041 51.7796 582.439 48.3166C575.921 44.1717 569.02 40.6641 561.832 37.8419C548.094 32.2005 535.013 25.0735 522.821 16.5873C520.519 14.9774 518.635 14.9952 517.696 16.6459C516.461 18.8454 517.929 20.0833 519.511 21.2408C524.067 24.6524 528.58 28.1424 533.136 31.5539C540.26 37.1704 547.889 42.1121 555.926 46.3156C562.072 49.3447 568.05 52.6875 573.956 56.1177C583.605 61.806 593.868 66.3297 603.769 71.5476L606.277 72.5366L608.566 73.5592C607.469 73.9696 606.768 73.8203 606.228 73.0705C604.875 72.6518 603.258 72.7728 602.029 71.8044C592.376 69.1129 582.684 66.5715 573.092 63.6907C565.72 61.4922 558.247 59.5475 551.291 56.0932C549.979 55.4389 548.514 56.8278 548.757 58.2257C548.866 58.7544 549.107 59.2466 549.458 59.6565C549.808 60.0663 550.257 60.3804 550.761 60.5695C553.179 61.6713 555.601 62.831 558.105 63.6766C572.414 68.7835 587.276 72.0019 601.86 76.1715C603.282 76.2211 604.678 76.5638 605.961 77.1782C604.75 77.6144 603.424 77.6083 602.217 77.1608C596.123 76.6385 590.025 76.1439 583.963 75.5987C572.124 74.5143 560.28 73.5432 548.371 73.4459C545.883 73.2865 543.386 73.4907 540.957 74.052C539.967 74.3381 539.119 74.8771 539.184 76.0729C539.248 77.2687 540.145 77.5232 541.051 77.6366C542.186 77.8322 543.363 77.8638 544.499 77.8883C562.263 78.4096 579.962 79.719 597.664 81.2574C599.308 80.8128 600.915 81.4896 602.536 81.512C602.935 81.3344 603.371 81.2527 603.808 81.2735C604.245 81.2942 604.67 81.4168 605.051 81.6316C604.784 81.889 604.456 82.0752 604.098 82.1731C603.74 82.271 603.364 82.2775 603.003 82.1919L600.813 82.3284C585.121 84.3716 569.684 88.0489 554.751 93.3008C553.477 93.6679 552.268 94.2352 551.17 94.9816C550.762 95.257 550.45 95.6525 550.276 96.1135C550.102 96.5745 550.075 97.0781 550.2 97.5547C550.321 98.0366 550.605 98.4618 551.002 98.759C551.4 99.0563 551.887 99.2074 552.383 99.1872C553.813 99.2761 555.244 99.0344 556.566 98.4808C568.588 93.8852 581.014 90.4312 593.681 88.1642C602.28 86.3981 611.011 85.3489 619.783 85.0273L619.866 85.0416C620.272 84.8708 620.71 84.7898 621.151 84.8041C621.591 84.8184 622.023 84.9277 622.417 85.1244C622.138 85.3947 621.796 85.5903 621.422 85.693C621.048 85.7957 620.655 85.8023 620.278 85.7121C612.916 87.3718 605.466 88.6134 597.965 89.4308C592.34 89.7037 586.874 91.3927 582.072 94.3418C578.171 96.9666 573.885 98.3546 569.858 100.472C566.959 101.999 563.968 103.396 561.076 104.968C559.845 105.693 558.695 106.547 557.644 107.516C557.397 107.674 557.183 107.881 557.017 108.123C556.851 108.365 556.734 108.638 556.675 108.927C556.616 109.215 556.616 109.512 556.674 109.8C556.732 110.088 556.847 110.362 557.012 110.604C557.32 111.105 557.805 111.47 558.37 111.625C558.936 111.781 559.539 111.716 560.059 111.444C561.548 110.825 563.002 110.122 564.412 109.339C577.441 102.193 590.97 96.5322 605.895 94.8372C607.725 94.6387 609.483 95.1844 611.355 94.822C625.31 92.146 639.038 92.6854 652.505 97.7185C665.971 102.752 677.758 109.594 687.402 120.105C691.512 124.802 694.794 130.165 697.107 135.966C697.656 137.245 697.686 138.478 696.317 139.227C696.007 139.409 695.664 139.529 695.308 139.577C694.951 139.626 694.589 139.603 694.242 139.51C693.894 139.417 693.569 139.255 693.285 139.035C693 138.815 692.762 138.54 692.585 138.227C692.219 137.621 691.9 136.989 691.629 136.335C688.41 130.213 685.162 124.258 679.779 119.691C664.685 106.826 647.662 98.4538 627.544 97.4554C622.629 97.2315 617.704 97.4673 612.832 98.1595C616.708 100.469 620.506 102.494 624.045 104.86C629.012 108.199 633.856 111.918 636.338 117.527C639.054 123.739 640.892 130.301 641.797 137.023C643.422 149.216 647.947 160.839 654.992 170.913C662.228 181.145 672.154 189.17 683.667 194.097C690.126 196.966 697.371 197.258 704.002 199.457C708.705 201.025 712.689 199.899 716.841 197.388C723.205 193.533 727.829 187.864 733.005 182.718C738.42 177.343 742.097 170.726 745.53 163.953C747.048 160.931 749.418 158.671 753.159 158.545C755.111 158.472 757.066 158.599 758.993 158.922C760.265 159.162 761.572 159.136 762.834 158.845C764.096 158.554 765.283 158.005 766.323 157.231C768.66 155.493 768.985 154.022 767.58 151.51C766.883 150.263 766.075 149.081 765.362 147.845C765.113 147.499 764.946 147.1 764.873 146.68C764.801 146.259 764.825 145.828 764.943 145.418C765.062 145.008 765.272 144.63 765.558 144.313C765.844 143.997 766.199 143.749 766.594 143.59C768.57 142.391 770.406 140.975 772.067 139.366C776.213 135.728 779.786 131.534 783.768 127.695C785.985 125.579 785.661 123.982 784.922 121.742ZM569.316 48.1527C570.482 47.7542 570.917 47.9576 571.336 48.5009C570.512 48.9013 570.278 48.1901 569.316 48.1527ZM606.717 81.8901C606.411 81.1809 607.114 81.4019 607.442 81.4013C607.687 81.459 607.92 81.5571 608.133 81.6917C607.625 82.0752 606.844 82.1405 606.717 81.8901ZM623.339 85.3119C623.965 84.8738 624.702 84.6213 625.464 84.5836C626.227 84.5459 626.985 84.7245 627.65 85.0988L623.339 85.3119ZM632.765 81.2988C633.49 80.5673 634.115 81.0746 634.907 81.4395C633.895 82.3499 633.275 82.1431 632.765 81.2988ZM693.889 190.592L693.937 190.315L697.396 190.911C697.374 191.002 697.358 191.095 697.349 191.188L693.889 190.592ZM711.284 187.053C709.042 187.908 706.732 187.424 703.692 186.958C694.372 184.152 684.371 181.172 675.443 175.351C670.444 171.93 666.385 167.304 663.641 161.898C661.579 158.074 659.505 154.234 657.603 150.31C654.373 143.822 653.109 136.529 653.966 129.329C654.026 128.619 654.185 127.921 654.438 127.255C654.775 126.457 655.125 125.504 656.278 125.674C657.431 125.844 657.506 126.813 657.508 127.713C658.006 134.578 659.068 141.313 662.423 147.472C664.598 151.387 666.912 155.154 668.965 159.119C673.758 168.509 682.239 173.04 691.583 176.692C694.718 177.932 697.932 178.957 701.123 180.035C704.116 181.179 707.302 181.728 710.505 181.652C711.946 181.558 713.489 181.867 713.767 183.642C713.848 184.417 713.639 185.195 713.18 185.825C712.721 186.455 712.046 186.893 711.284 187.053ZM740.198 112.72C739.715 115.129 738.373 117.28 736.422 118.769C734.471 120.259 732.045 120.986 729.598 120.813C725.94 120.625 722.679 119.62 720.778 115.938C719.62 113.726 720.55 111.803 720.6 110.027C722.115 102.809 727.244 100.496 734.107 102.921C740.97 105.345 741.109 108.424 740.198 112.72Z" fill="#2F306A" fill-opacity="0.15"/>
<path d="M618.227 201.515C618.374 203.37 618.692 205.207 619.176 207.003C619.277 207.42 619.463 207.812 619.724 208.154C619.984 208.495 620.311 208.779 620.687 208.987C621.062 209.195 621.476 209.323 621.903 209.363C622.33 209.403 622.761 209.353 623.168 209.218C624.97 208.686 625.261 207.081 624.806 205.504C623.335 200.397 624.61 195.479 625.492 190.449C625.716 189.146 626.209 188.518 627.632 189.106C629.73 189.847 631.913 190.319 634.13 190.511C635.832 190.804 636.405 191.117 635.567 193C634.054 196.407 632.939 199.983 631.637 203.484C631.447 203.983 631.296 204.496 631.187 205.019C630.758 207.015 630.471 209.178 632.918 209.942C635.365 210.707 636.352 208.536 636.756 206.607C637.693 202.244 639.361 198.107 640.648 193.861C640.757 193.097 641.162 192.407 641.776 191.941C642.39 191.474 643.163 191.27 643.927 191.372C646.163 191.33 648.399 191.406 650.627 191.599C648.246 196.241 645.939 200.697 643.673 205.159C643.203 206.006 642.807 206.893 642.49 207.81C642.254 208.354 642.244 208.969 642.462 209.521C642.68 210.072 643.107 210.515 643.65 210.75C644.167 211.029 644.765 211.12 645.341 211.005C645.917 210.891 646.435 210.579 646.807 210.124C647.902 208.715 648.778 207.148 649.404 205.476C651.113 201.674 652.814 197.842 654.418 193.994C655.013 192.526 655.781 192.202 657.275 192.631C659.665 193.314 662.135 193.697 664.527 194.366C666.184 194.837 666.917 195.549 665.323 197.272C661.666 201.408 658.413 205.885 655.609 210.642C654.586 212.278 653.324 214.145 655.304 215.885C656.703 217.111 658.366 216.141 660.017 213.343C662.747 208.661 665.593 204.056 668.634 199.556C669.468 198.272 670.097 198.01 671.355 198.812C672.613 199.614 673.88 200.118 675.088 200.882C678.35 202.872 678.896 204.665 676.732 207.874C674.569 211.084 672.01 214.111 669.648 217.23C666.298 221.619 662.939 226.065 659.652 230.422C658.765 231.597 658.056 231.989 657.107 230.554C656.811 230.118 656.322 229.82 655.994 229.406C650.129 222.101 642.355 219.919 633.457 220.369C628.661 220.451 623.884 221.02 619.201 222.065C617.033 222.596 614.961 223.462 613.059 224.632C610.031 226.494 610.052 226.454 608.234 223.529C604.871 218.239 601.48 213.116 598.571 207.59C595.935 202.383 596.206 197.091 597.726 191.744C598.336 189.608 602.759 187.344 605.032 187.551C606.084 187.646 605.856 188.307 605.832 188.859C605.746 191.342 605.602 193.829 605.486 196.321C605.38 199.179 605.896 202.024 606.998 204.661C607.763 206.505 608.997 207.86 611.093 207.022C613.19 206.185 613.274 204.458 612.554 202.764C610.657 198.312 611.271 193.679 611.154 189.063C611.13 187.631 611.517 186.956 613.158 187.11C614.927 187.226 616.702 187.251 618.474 187.184C621.24 187.176 621.38 187.357 620.387 190.055C620.328 190.401 620.104 190.705 619.961 191.038C619.048 191.708 620.123 194.234 617.602 193.486C618.985 193.724 619.173 194.37 618.961 195.604C618.412 197.525 618.165 199.519 618.227 201.515Z" fill="#2F306A" fill-opacity="0.15"/>
<path d="M729.622 111.582C728.44 113.563 726.006 113.957 723.921 113.74C721.835 113.523 723.741 111.311 722.841 110.499C723.07 109.195 723.645 107.975 724.505 106.968C725.365 105.962 726.48 105.205 727.731 104.777C728.413 104.623 729.551 104.305 729.544 105.089C729.566 107.277 730.843 109.623 729.622 111.582Z" fill="#2F306A" fill-opacity="0.15"/>
</g>
<g clip-path="url(#clip2_1142_10408)">
<path d="M1375.41 208.358C1372.95 202.28 1369.97 196.43 1368.78 189.903C1367.21 181.333 1364.72 173.01 1362.89 164.523C1361.37 157.202 1357.2 150.709 1351.16 146.295C1349.19 144.775 1347.29 143.143 1345.3 141.618C1335.27 133.995 1323.73 133.494 1311.88 134.661C1310.67 134.846 1309.48 135.226 1308.39 135.785C1302.88 138.26 1297.54 141.082 1292.39 144.233C1289.58 145.884 1286.82 147.586 1284.01 149.222C1282.29 150.306 1281.2 150.115 1280.54 147.728C1279.79 144.503 1279.61 141.173 1279.99 137.882L1278.78 138.643C1275.34 140.614 1271.9 143 1267.73 142.534C1261.45 141.751 1256.2 139.346 1253.44 132.995C1251.62 129.452 1250.53 125.574 1250.25 121.595C1250.23 120.01 1250.76 118.481 1252.58 118.334C1254.41 118.187 1254.42 119.772 1254.83 121.11C1255.88 124.75 1257.38 128.243 1259.3 131.51C1261.95 136.126 1269.74 138.015 1274.98 134.169C1275.35 133.953 1275.65 133.649 1275.87 133.286C1276.08 132.922 1276.2 132.511 1276.22 132.089C1276.03 129.355 1275.45 126.662 1274.5 124.093C1274.23 125.088 1273.89 126.066 1273.49 127.019C1273.05 127.994 1272.36 128.843 1271.5 129.486C1270.65 130.128 1269.64 130.544 1268.58 130.695C1266.3 131.024 1265.04 129.471 1263.98 127.73C1262.83 125.946 1261.84 124.059 1261.03 122.093C1259.97 119.299 1259.69 116.649 1262.14 114.365C1257.43 111.658 1252.42 111.494 1247.21 111.477C1247.41 110.118 1247.51 108.919 1247.77 107.769C1248.85 102.184 1248.93 96.4553 1247.99 90.8517C1247.01 84.8137 1244.25 79.2117 1240.05 74.7668C1235.85 70.3218 1230.42 67.2374 1224.44 65.9104C1220.65 65.1949 1216.79 64.8791 1212.94 64.9681C1206.11 65.0935 1199.18 65.4528 1192.4 64.1468C1187.47 63.2108 1182.39 63.3611 1177.52 64.5871C1171.02 66.3439 1164.15 66.1293 1157.78 63.9705C1150.71 61.418 1143.4 59.6476 1136.21 57.4908C1127.26 54.764 1119.55 49.5345 1111.46 45.0054C1110.54 44.4782 1109.16 43.6308 1110.04 42.1538C1110.91 40.6768 1112.06 41.6519 1113.03 41.9588C1118.8 43.7166 1124.4 45.976 1129.77 48.711C1132.61 50.2761 1135.68 51.4024 1138.87 52.0516C1145.6 53.3848 1152.23 55.222 1158.68 57.5476C1163.32 59.3139 1168.36 59.7555 1173.24 58.8228C1174.32 58.6005 1175.05 58.3657 1175.13 56.9942C1175.81 50.2419 1175.67 43.4353 1174.72 36.7214C1173.95 31.2931 1171.49 26.2484 1167.7 22.293C1159.74 14.3461 1150.91 9.51036 1139.18 12.4907C1134.34 13.4564 1129.4 13.7616 1124.49 13.3979C1120.31 13.0026 1116.09 13.5628 1112.16 15.0361C1100.19 20.5117 1087.4 20.2202 1074.74 20.6799C1073.16 20.6367 1071.61 20.2516 1070.2 19.5512C1068.75 18.9582 1067.31 18.0849 1065.98 19.7684C1065.32 20.4389 1064.87 21.2929 1064.71 22.218C1064.54 23.143 1064.66 24.0957 1065.05 24.9504C1065.93 26.7812 1066.93 28.5603 1067.83 30.3816C1072.1 38.9856 1076.89 47.3845 1078.08 57.1808C1078.73 61.1123 1079.91 64.9362 1081.59 68.5491C1083.03 72.063 1084.02 75.7415 1084.56 79.5019C1086.38 92.0486 1088.27 104.587 1090.05 117.138C1090.95 123.296 1092.07 129.408 1095.46 134.769C1098.85 140.13 1103.86 141.619 1109.56 138.786C1110.73 138.219 1111.85 137.557 1112.92 136.807C1117.59 133.292 1122.54 130.159 1127.72 127.437C1129.32 126.636 1129.69 125.561 1129.11 123.85C1127.37 118.496 1125.77 113.086 1124.04 107.722C1122.48 102.86 1119.49 98.6297 1117.74 93.8416C1112.56 79.567 1105.83 66.1689 1095.76 54.6268C1094.88 53.5934 1092.47 52.5166 1094.07 50.8783C1095.66 49.2399 1096.91 51.3444 1098.08 52.1726C1107.82 59.0365 1112.72 69.6724 1118.38 79.513C1121.84 85.5202 1123.61 92.3317 1126.71 98.5672C1131.78 108.156 1134.97 118.623 1136.13 129.414C1136.65 135.752 1138.11 141.976 1140.45 147.883C1143.45 155.588 1147.37 162.712 1155.07 166.755C1166.17 172.626 1177.81 175.077 1190.32 171.562C1191.83 171.153 1192.23 171.55 1192.51 172.964C1193.17 176.609 1194.19 180.177 1195.57 183.614C1196.09 184.797 1196.34 185.536 1198.11 184.964C1202.99 183.324 1208.27 187.718 1208.26 192.925C1208.23 196.596 1208.23 196.596 1211.91 196.529C1212.84 196.506 1213.77 196.378 1214.7 196.443C1216.02 196.571 1216.66 196.211 1216.26 194.784C1214.77 188.806 1212.17 183.659 1206.23 180.935C1204.46 180.103 1202.62 179.447 1200.9 178.538C1200.57 178.428 1200.26 178.251 1200 178.017C1199.73 177.784 1199.52 177.499 1199.37 177.181C1199.22 176.863 1199.13 176.517 1199.12 176.164C1199.11 175.812 1199.17 175.461 1199.29 175.132C1199.94 173.654 1201.35 173.828 1202.76 173.948C1215.82 175.766 1221.97 186.951 1222.73 196.959C1222.72 197.676 1222.9 198.381 1223.25 199.006C1223.6 199.631 1224.1 200.155 1224.71 200.527C1226.05 201.443 1227.9 201.803 1228.57 203.521C1231.92 211.691 1232.95 220.635 1231.54 229.368C1229.71 240.45 1229.21 251.705 1230.02 262.897C1230.98 277.955 1237.39 290.534 1247.27 301.457C1253.33 308.107 1261.65 311.504 1269.34 315.675C1276.25 319.387 1284.07 321.093 1291.91 320.601C1294.67 320.47 1297.47 320.502 1300.24 320.45C1309.09 320.236 1317.93 320.072 1327.06 320.563C1323.58 316.918 1319.14 314.324 1314.24 313.075C1305.35 310.31 1296.21 307.874 1288.1 303.044C1283.88 300.559 1279.42 298.473 1275.03 296.26C1271.45 294.515 1268.24 292.097 1265.58 289.136C1261.9 284.985 1259.56 280.026 1256.97 275.244C1250.28 263.033 1246.26 249.533 1245.19 235.639C1244.62 227.756 1245.85 219.721 1243.51 211.932C1243.37 211.582 1243.37 211.193 1243.51 210.841C1243.64 210.49 1243.91 210.203 1244.25 210.038C1245.19 209.567 1245.68 210.163 1246.04 210.811C1246.64 211.751 1247.14 212.746 1247.55 213.783C1249.04 218.554 1249.72 223.546 1249.57 228.549C1249.56 234.386 1250.22 240.203 1251.53 245.888C1254.26 257.332 1258.64 268.314 1264.54 278.487C1267.47 283.513 1270.78 288.148 1276.18 290.817C1288.86 297.091 1301.02 304.456 1315.05 307.738C1322.15 309.188 1328.44 313.212 1332.73 319.034C1333.11 319.491 1333.59 319.858 1334.14 320.108C1334.68 320.358 1335.28 320.486 1335.87 320.481C1341.91 321.505 1347.95 322.489 1353.88 324.057C1363.31 326.48 1373.16 326.539 1383.05 328.898C1381.75 327.154 1380.15 325.662 1378.31 324.497C1369.48 318.13 1359.13 314.91 1349.18 311.009C1329.84 303.738 1312.12 292.741 1297.04 278.641C1289.74 271.928 1283.31 264.346 1277.86 256.065C1276.6 254.243 1275.56 252.276 1274.76 250.204C1271.34 239.75 1268.89 228.999 1267.45 218.09C1266.65 211.017 1263.11 204.548 1257.58 200.07C1255.84 198.53 1254.52 196.576 1253.73 194.389C1253.47 193.738 1253.31 192.853 1254.04 192.348C1254.77 191.842 1255.43 192.349 1256 192.849C1257.87 194.499 1259.71 196.184 1261.61 197.791C1265.03 200.51 1267.73 204.016 1269.49 208.01C1271.91 213.901 1272.41 220.212 1273.51 226.438C1275.88 239.956 1279.32 252.982 1288.81 263.586C1300.28 276.689 1313.86 287.784 1329 296.414C1340.49 302.859 1352.97 307.081 1365.05 312.166C1374.57 316.165 1383.58 320.655 1389.31 329.74C1389.91 329.351 1390.38 328.791 1390.66 328.132C1390.94 327.473 1391.01 326.747 1390.87 326.048C1390.53 319.911 1388.72 313.949 1385.59 308.666C1379.61 297.865 1371.67 288.268 1362.18 280.361C1352.52 272.74 1342.34 265.792 1331.72 259.564C1316.67 250.654 1304.48 238.652 1293.95 224.87C1287.36 216.249 1283.46 206.196 1279.42 196.317C1277.86 192.763 1276.56 189.106 1275.5 185.373C1275.28 184.527 1275.22 183.664 1276.23 183.194C1277.23 182.724 1277.78 183.45 1278.17 184.231C1279.17 186.32 1280.13 188.399 1281.14 190.488C1286.32 201.111 1290.65 212.172 1297.92 221.704C1307.08 233.946 1318.31 244.489 1331.12 252.857C1338.24 257.468 1345.29 262.319 1352.54 266.751C1368.36 276.411 1380.32 289.664 1389.76 305.297C1394.06 311.963 1396.28 319.765 1396.13 327.709C1396.05 328.149 1396.06 328.601 1396.16 329.036C1396.26 329.471 1396.45 329.88 1396.72 330.239C1396.98 330.597 1397.32 330.897 1397.71 331.119C1398.1 331.342 1398.53 331.482 1398.97 331.532C1405.14 333.435 1411.59 334.68 1417.11 338.34C1417.59 338.665 1418.06 339.04 1418.58 338.525C1419.09 338.009 1418.99 337.215 1418.7 336.495C1417.08 331.526 1415.76 326.46 1414.76 321.327C1412.43 311.983 1408.92 303.317 1401.06 297.242C1394.69 292.338 1388.3 287.492 1382.25 282.195C1367.27 269.112 1354.17 254.018 1343.34 237.341C1334.56 223.81 1323.26 212.467 1311.57 201.514C1305.1 195.455 1298.02 190.082 1291.63 183.888C1290.89 183.143 1289.45 182.373 1290.41 181.222C1291.36 180.072 1292.5 181.2 1293.31 181.842C1305.39 189.643 1316.56 198.764 1326.62 209.036C1336.61 219.201 1345.53 230.372 1353.21 242.372C1357.18 248.501 1361.68 254.274 1366.64 259.629C1374.24 267.947 1382.55 275.587 1390.79 283.289C1398.2 290.161 1405.96 296.11 1416.39 297.418C1419.81 297.736 1423.08 298.993 1425.82 301.051C1426.23 301.4 1426.65 301.955 1427.16 301.257C1427.66 300.56 1427.13 300.351 1426.73 299.89C1425.09 298.024 1423.57 296.061 1422.17 294.011C1418.98 289.098 1414.26 285.371 1408.74 283.404C1396.5 278.798 1387.66 270.049 1380.15 259.991C1370.46 247.103 1363.89 232.532 1358.68 217.248C1354.94 206.47 1349.17 196.511 1341.69 187.903C1336.56 181.859 1329.61 178.561 1323.03 174.651C1316.34 170.754 1308.6 169.054 1300.88 169.793C1298.41 169.99 1295.91 170.254 1293.39 170.337C1292.41 170.374 1291.16 170.366 1291.01 168.995C1290.85 167.623 1291.99 167.618 1292.89 167.343C1297.41 165.944 1302.13 165.267 1306.86 165.337C1320.66 165.621 1331.88 172.405 1341.66 180.914C1352.2 190.079 1358.92 202.227 1363.56 215.505C1368.19 228.783 1373.54 241.589 1381.63 253.182C1389.15 263.924 1397.78 273.412 1410.42 278.336C1414.97 279.915 1419.66 281.105 1424.41 281.893C1426.52 282.323 1428.32 281.413 1430.58 280.296C1423.98 275.879 1418.68 270.466 1412.88 265.638C1402.67 257.459 1394.19 247.338 1387.93 235.857C1383.29 226.909 1379.12 217.731 1375.41 208.358ZM1188.93 154.403C1186.89 156.158 1184.5 157.461 1181.92 158.228C1179.34 158.994 1176.62 159.205 1173.96 158.848C1167.99 158.096 1163.49 154.754 1159.73 150.443C1154.22 143.83 1149.77 136.404 1146.54 128.427C1146.33 127.913 1146.19 127.376 1146.11 126.828C1145.95 125.968 1145.99 125.063 1146.81 124.604C1147.64 124.145 1148.55 124.593 1149.22 125.346C1151.17 127.907 1152.96 130.583 1154.58 133.359L1155.63 135.006C1158.89 139.823 1161.84 144.829 1166.46 148.598C1172.37 153.453 1177.99 153.882 1184.57 149.907L1185.52 149.308C1187.16 148.414 1188.87 147.752 1190.21 149.608C1191.56 151.464 1190.43 153.142 1188.92 154.388L1188.93 154.403ZM1238.22 185.709C1234.76 187.897 1230.85 186.177 1227.82 181.282C1225.47 177.568 1226.01 175.439 1229.87 173.043C1233.92 170.475 1237.76 171.421 1240.27 175.541C1242.58 179.402 1241.78 183.479 1238.19 185.704L1238.22 185.709ZM1194.75 82.7693C1191.55 82.5444 1188.39 81.8294 1185.41 80.649C1184.91 80.5034 1184.48 80.1914 1184.19 79.7656C1183.9 79.3397 1183.76 78.8258 1183.8 78.3101C1183.86 78.0577 1183.97 77.8188 1184.12 77.6071C1184.27 77.3954 1184.46 77.215 1184.67 77.0763C1184.89 76.9376 1185.14 76.8433 1185.39 76.7987C1185.65 76.7542 1185.91 76.7602 1186.16 76.8166C1196.11 77.6706 1206.21 77.4892 1215.6 81.8451C1222.29 84.9307 1226.75 88.061 1229.78 92.8528C1232.36 98.1259 1233.7 103.918 1233.71 109.792C1233.77 111.531 1233.24 113.212 1231.15 113.506C1229.06 113.8 1228.2 112.166 1227.74 110.547C1227.09 107.663 1226.65 104.734 1226.21 101.806C1225.33 96.0674 1221.89 92.2508 1216.87 89.512C1210.01 85.853 1202.5 83.5629 1194.75 82.7693ZM1264.81 157.974C1264.72 158.833 1264.4 159.654 1263.88 160.352C1263.37 161.051 1262.68 161.602 1261.89 161.951C1261.1 162.3 1260.22 162.434 1259.36 162.34C1258.5 162.246 1257.68 161.926 1256.99 161.414C1254.98 160.021 1253.56 157.931 1253 155.548C1252.7 154.482 1252.75 153.345 1253.15 152.309C1253.55 151.273 1254.28 150.392 1255.21 149.797C1256.15 149.202 1257.26 148.926 1258.37 149.009C1259.47 149.093 1260.52 149.531 1261.36 150.259C1262.25 150.933 1262.98 151.794 1263.5 152.782C1264.06 153.513 1264.47 154.35 1264.69 155.242C1264.91 156.135 1264.96 157.064 1264.81 157.974Z" fill="#2F306A" fill-opacity="0.15"/>
</g>
<g clip-path="url(#clip3_1142_10408)">
<path d="M404.8 776.793C398.464 771.166 391.587 766.402 382.592 766.371C377.556 766.465 372.537 765.757 367.725 764.275C356.288 760.579 344.627 757.613 332.813 755.395C307.52 750.506 281.917 747.379 256.19 746.038C228.196 744.434 200.193 743.884 172.179 744.388C143.433 744.928 114.904 747.595 86.3444 750.416C68.8653 752.127 52.1435 757.23 35.3445 761.639C22.61 764.969 12.3636 772.831 1.83909 780.292C0.927271 780.94 -0.108182 781.834 0.293636 783.021C0.695453 784.208 2.21 783.776 3.22999 783.776C10.7873 783.776 18.3754 783.252 25.8554 784.778C33.2797 786.065 40.5021 788.32 47.3372 791.484C47.7095 791.607 48.0487 791.814 48.3285 792.088C48.6082 792.363 48.8213 792.697 48.9511 793.066C49.081 793.436 49.1242 793.83 49.0775 794.218C49.0308 794.607 48.8954 794.979 48.6817 795.308C47.8008 796.849 46.4254 796.371 45.0036 795.77C30.909 789.789 16.0727 787.738 0 787.492C4.86817 791.931 10.3236 793.658 14.8827 796.834C30.909 807.841 49.1454 812.358 67.6599 816.428C69.6226 816.859 70.7508 816.428 71.5853 814.531C73.1217 810.947 74.2568 807.203 74.9698 803.37C75.7316 798.548 75.9236 793.653 75.5417 788.787C75.3717 786.736 76.0362 784.763 78.5398 784.455C79.5857 784.284 80.657 784.529 81.5238 785.137C82.3906 785.745 82.9838 786.668 83.1762 787.707C83.4629 788.929 83.5722 790.185 83.5007 791.438C83.4544 800.734 81.9089 809.722 76.7317 818.031C79.1889 818.478 81.2289 818.879 83.2844 819.218C118.057 825.014 153.123 827.296 188.375 828.159C219.191 828.921 250.025 827.948 280.731 825.246C303.619 823.226 326.384 820.451 348.731 815.025C362.408 811.71 375.498 807.116 386.981 798.653C393.317 794.028 398.278 787.862 404.831 783.422C407.412 781.618 406.948 778.704 404.8 776.793ZM65.3417 771.197C63.7962 776.623 57.7535 780.585 49.1608 780.57C46.2708 780.431 42.3299 778.427 38.6981 775.729C37.4704 774.772 36.6573 773.381 36.4263 771.844C36.3287 771.36 36.3714 770.857 36.5493 770.396C36.7271 769.935 37.0329 769.533 37.4308 769.239C38.6208 768.329 39.1154 769.64 39.7645 770.21C43.9063 773.864 48.419 776.377 54.1835 774.588C55.8243 774.179 57.3013 773.281 58.4181 772.014C59.2835 770.935 61.0762 769.609 59.0053 768.252C57.7226 767.435 56.0844 766.711 54.7708 768.853C52.7154 772.322 49.5472 772.692 46.0545 771.166C45.2663 770.875 44.5818 770.359 44.0869 769.681C43.592 769.004 43.3088 768.196 43.2726 767.358C43.222 766.451 43.434 765.549 43.8834 764.759C44.3328 763.969 45.0007 763.325 45.8072 762.903C49.5626 760.729 60.2262 761.284 63.5335 763.997C64.5516 764.858 65.2736 766.016 65.598 767.307C65.9223 768.598 65.8327 769.959 65.3417 771.197ZM151.887 780.693C148.472 782.882 147.807 785.41 148.209 789.342C149.43 801.32 146.88 803.771 134.856 803.432C126.495 803.185 119.726 798.807 112.818 794.922C110.653 793.643 108.558 792.248 106.543 790.744C104.998 789.619 103.762 788.154 105.137 786.12C106.513 784.085 107.965 785.056 109.495 786.12C114.966 789.727 120.313 793.519 126.495 796.063C130.452 797.803 134.782 798.523 139.091 798.16C141.192 797.959 142.954 797.497 143.155 794.907C143.341 792.563 143.31 790.714 140.42 789.742C135.021 787.837 129.445 786.474 123.775 785.672C122.523 785.518 120.514 786.12 120.592 783.992C120.669 781.865 122.771 782.373 124.177 782.266C129.509 782.143 134.821 782.968 139.863 784.701C140.543 784.886 141.687 786.243 142.305 784.701C143.089 783.107 143.57 781.382 143.727 779.614C143.727 778.751 142.042 779.151 141.115 779.09C134.964 778.784 128.797 778.98 122.678 779.676C121.132 779.845 118.629 780.554 118.366 778.442C118.103 776.33 120.545 776.654 122.091 776.299C127.45 775.067 132.943 774.502 138.442 774.619C141.301 775.251 144.762 774.249 148.255 775.559C150.604 776.423 150.032 773.74 149.801 772.476C149.352 770.426 147.56 769.902 145.659 769.547C135.15 767.574 125.46 770.765 115.816 774.172C113.485 775.064 111.209 776.094 109.001 777.255C108.104 777.702 107.162 778.427 106.42 777.394C105.925 776.685 106.42 775.852 107.023 775.143C107.554 774.496 108.173 773.925 108.862 773.447C120.885 766.464 133.682 762.656 147.73 764.552C149.427 764.717 151.028 765.412 152.305 766.539C153.582 767.666 154.469 769.167 154.839 770.827C155.766 774.696 155.38 778.442 151.872 780.693H151.887ZM373.597 786.443C362.12 786.762 350.637 787.111 339.149 787.492C309.477 788.463 279.804 789.634 250.131 790.421C223.859 791.114 197.462 792.178 171.112 791.469C169.08 791.432 167.094 790.852 165.363 789.789C170.448 787.553 175.146 787.769 179.643 787.445C193.042 786.474 206.472 785.904 219.902 785.472C249.019 784.516 278.15 783.93 307.267 782.836C326.863 782.142 346.459 781.418 366.071 781.294C368.436 781.294 370.816 780.893 373.18 780.786C375.545 780.678 377.817 780.786 377.817 783.622C377.894 786.15 375.653 786.382 373.582 786.443H373.597Z" fill="#2F306A" fill-opacity="0.15"/>
<path d="M396.779 797.497C399.677 794.155 403.021 791.224 406.717 788.787C413.377 784.439 413.826 777.718 408.046 772.276C405.48 769.871 402.281 768.407 398.773 766.218C401.74 765.231 404.136 764.398 406.5 763.643C416.87 760.329 425.463 754.239 433.252 746.886C436.319 744.231 439.836 742.143 443.637 740.719C444.32 740.343 445.101 740.18 445.878 740.251C446.655 740.323 447.393 740.625 447.996 741.12C448.534 741.597 448.888 742.245 448.998 742.954C449.108 743.663 448.967 744.389 448.598 745.005C444.286 752.713 443.205 761.685 439.156 769.517C437.301 773.124 435.725 776.886 432.974 779.969C432.587 780.307 432.274 780.722 432.054 781.186C431.835 781.651 431.713 782.155 431.697 782.668C431.681 783.182 431.771 783.693 431.962 784.17C432.152 784.647 432.439 785.08 432.804 785.441C438.12 792.363 440.686 800.457 442.37 808.859C442.737 810.371 442.852 811.934 442.71 813.483C442.355 816.274 439.248 817.6 437.425 815.534C431.243 808.55 422.14 806.577 414.66 801.813C409.452 798.299 404.012 794.26 396.779 797.497Z" fill="#2F306A" fill-opacity="0.15"/>
<path d="M153.385 736.218C160.077 732.765 166.769 729.327 173.476 725.843C174.311 725.396 175.408 724.825 175.022 723.669C174.62 722.127 173.152 722.636 172.194 722.775C168.376 723.315 165.208 725.519 161.978 727.4C156.909 730.344 152.118 733.72 147.095 736.757C142.691 739.409 137.73 738.299 132.939 738.546C142.366 734.044 150.526 727.246 160.757 724.286C162.875 723.669 166.661 722.405 165.394 719.584C164.204 716.994 161.221 719.584 159.104 720.185C147.003 723.916 137.035 731.3 127.051 738.684C123.512 741.321 118.675 740.103 113.791 741.845C121.682 733.675 130.985 726.99 141.254 722.112C153.849 716.054 165.981 708.962 180.029 706.526C184.155 705.817 188.344 705.447 192.532 705.077C194.294 704.923 196.272 704.754 197.168 706.943C198.064 709.132 197.06 710.704 195.623 712.215C190.445 717.888 185.747 724.024 179.905 729.08C178.715 730.113 177.974 731.115 178.36 732.641C179.349 735.848 178.221 736.449 174.975 736.372C169.118 736.249 163.23 736.865 157.357 737.174C156.09 737.204 154.328 738.438 153.385 736.218Z" fill="#2F306A" fill-opacity="0.15"/>
<path d="M310.157 827.065C314.345 825.123 317.451 825.523 319.198 829.84C319.489 830.481 319.969 831.018 320.573 831.382C321.454 831.967 322.428 832.923 323.556 831.906C323.771 831.722 323.944 831.494 324.063 831.237C324.181 830.98 324.242 830.701 324.242 830.418C324.242 830.135 324.181 829.856 324.063 829.599C323.944 829.342 323.771 829.114 323.556 828.93C320.202 825.308 322.443 824.999 325.781 824.891C329.969 824.768 334.142 824.29 338.33 824.028C339.876 823.936 341.622 823.781 342.086 825.786C342.549 827.79 341.236 828.869 339.536 829.485C331.53 832.784 323.556 836.161 315.535 839.429C309.926 841.592 304.487 844.169 299.261 847.137C296.897 848.54 295.104 848.216 292.786 846.69C287.809 843.437 286.017 837.918 282.617 833.571C281.952 832.723 282.215 832.029 283.328 831.767C284.138 831.606 284.934 831.38 285.708 831.089C290.56 828.977 294.687 829.331 297.577 834.326C297.97 834.908 298.449 835.428 298.998 835.868C300.142 836.885 301.61 837.502 302.738 836.315C303.867 835.128 302.738 834.033 301.749 833.231C300.007 831.9 298.448 830.345 297.113 828.607C301.749 827.528 306.169 825.523 308.828 831.089C309.106 831.674 309.786 832.091 310.28 832.63C311.161 833.509 312.212 833.941 313.263 833.108C314.314 832.276 313.526 831.089 312.877 830.241C312.228 829.393 311.208 828.329 310.157 827.065Z" fill="#2F306A" fill-opacity="0.15"/>
<path d="M320.744 746.377C323.016 745.776 325.287 745.144 327.575 744.604C329.12 744.265 330.418 743.741 329.986 741.906C329.553 740.072 327.899 740.21 326.555 740.534C320.064 742.076 313.557 743.694 307.128 745.514C305.706 745.914 304.455 746.469 303.249 745.514C302.353 744.789 300.529 745.02 300.637 743.278C300.746 741.536 302.075 740.981 303.419 740.519C314.237 736.696 325.658 735.185 337.11 734.352C338.23 734.269 339.356 734.357 340.448 734.614C341.353 734.79 342.183 735.237 342.826 735.895C343.47 736.553 343.896 737.392 344.049 738.299C344.182 739.143 344.026 740.007 343.605 740.751C343.184 741.496 342.524 742.076 341.731 742.399C339.216 743.608 336.987 745.337 335.194 747.471C333.556 749.383 331.315 748.936 329.321 748.473C326.462 747.826 323.634 747.04 320.744 746.377Z" fill="#2F306A" fill-opacity="0.15"/>
<path d="M130.744 829.871C134.098 829.871 137.467 829.871 140.821 829.871C142.722 829.871 144.082 831.012 143.463 832.738C142.057 836.638 142.119 840.94 139.847 844.593C138.796 846.289 137.374 847.168 135.674 846.536C127.854 843.668 119.478 841.911 113.482 835.374C112.174 834.11 111.243 832.509 110.793 830.749C110.499 829.377 109.773 827.913 111.442 827.034C112.12 826.638 112.925 826.515 113.692 826.689C114.458 826.864 115.129 827.324 115.568 827.975C118.406 831.279 121.634 834.229 125.181 836.762C127.29 838.402 129.851 839.36 132.522 839.506C133.712 839.506 134.994 839.598 135.396 838.38C135.891 836.839 134.747 836.037 133.495 835.621C130.279 834.68 127.305 833.055 124.779 830.857C126.371 828.452 128.658 829.871 130.744 829.871Z" fill="#2F306A" fill-opacity="0.15"/>
</g>
<path d="M1380.06 686.698C1376.9 686.268 1373.76 685.515 1370.57 685.345C1365.34 685.154 1360.31 683.358 1356.14 680.202C1354.18 678.6 1351.76 677.677 1349.22 677.574C1346.69 677.47 1344.2 678.191 1342.11 679.628C1339.48 681.272 1336.99 683.134 1334.67 685.194C1329.97 689.312 1326.76 694.516 1323.54 699.675C1323.39 700.038 1323.17 700.364 1322.88 700.631C1322.59 700.897 1322.25 701.098 1321.88 701.218C1321.51 701.338 1321.11 701.375 1320.72 701.326C1320.33 701.277 1319.96 701.143 1319.63 700.934C1317.19 699.752 1314.56 699.03 1311.86 698.805C1303.73 698.83 1295.64 697.716 1287.83 695.494C1287.17 695.283 1286.48 695.209 1285.79 695.276C1279.94 695.933 1274.07 696.543 1268.22 697.372C1265.33 697.608 1262.47 698.096 1259.67 698.831C1255.39 700.229 1251.01 701.301 1246.58 702.037C1240.39 703.207 1234.45 705.446 1229.04 708.654C1220.52 713.329 1213.28 719.884 1204.69 724.383C1193.12 730.431 1186.12 740.602 1181.99 752.11C1178.84 760.922 1174.98 769.78 1174.07 779.275C1174.05 779.933 1173.79 780.563 1173.36 781.058C1172.92 781.553 1172.33 781.884 1171.68 781.995C1171.1 782.155 1170.51 782.284 1169.92 782.383C1164.75 783.611 1159.38 783.685 1154.18 782.598C1147.61 780.87 1144.04 784.326 1144.63 790.949C1144.73 792.149 1144.72 793.36 1144.91 794.54C1145.26 796.479 1145.08 798.476 1144.39 800.323C1143.71 802.171 1142.54 803.801 1141.01 805.045C1138.37 807.502 1136 810.249 1132.54 811.679C1132.22 811.77 1131.93 811.926 1131.67 812.136C1131.41 812.346 1131.2 812.605 1131.05 812.899C1130.9 813.193 1130.81 813.515 1130.78 813.845C1130.76 814.175 1130.8 814.506 1130.91 814.819C1131.12 815.394 1131.54 815.867 1132.09 816.137C1132.64 816.407 1133.27 816.453 1133.85 816.266C1141.36 815.008 1147.25 811.5 1150.3 804.235C1151.94 800.396 1152.73 796.25 1152.61 792.079C1158.91 793.566 1163.31 792.896 1174.68 788.435C1174.87 788.881 1175.02 789.341 1175.14 789.811C1175.83 794.77 1177.59 799.521 1180.29 803.734C1181.42 805.282 1180.17 805.349 1179.31 805.714C1174.26 808.21 1168.76 807.788 1163.39 808.178C1159.57 808.465 1159.1 808.919 1159.21 812.754C1159.65 822.833 1156.93 832.8 1151.41 841.259C1150.44 842.745 1149.12 844.26 1150.81 845.745C1152.51 847.229 1154.02 845.863 1155.35 844.65C1163.54 836.947 1168.74 828.017 1166.78 816.215C1175.45 815.369 1175.45 815.384 1184.84 810.198C1185.16 809.966 1185.55 809.845 1185.95 809.855C1186.34 809.865 1186.72 810.006 1187.03 810.255C1188.44 811.246 1189.9 812.212 1191.32 813.17C1189.29 816.174 1187.45 818.917 1184.25 820.354C1181.74 821.61 1179.42 823.192 1177.33 825.057C1173.08 828.536 1172.96 828.721 1176.44 832.848C1177.66 834.185 1178.56 835.776 1179.09 837.506C1179.62 839.236 1179.75 841.062 1179.49 842.851C1179.13 845.408 1178.68 847.986 1178.37 850.564C1178.21 851.775 1178.36 853.093 1179.79 853.539C1180.08 853.656 1180.38 853.714 1180.69 853.71C1181 853.706 1181.3 853.639 1181.58 853.515C1181.87 853.39 1182.12 853.21 1182.33 852.985C1182.54 852.761 1182.7 852.496 1182.81 852.206C1185.42 845.386 1188.61 838.55 1184.53 831.173C1184.33 830.958 1184.19 830.7 1184.1 830.418C1184.02 830.136 1184.01 829.839 1184.06 829.551C1184.12 829.262 1184.24 828.991 1184.42 828.757C1184.59 828.524 1184.82 828.335 1185.09 828.207C1187.75 826.428 1190.2 824.346 1192.84 822.525C1195.01 821.045 1196.31 817.677 1198.34 817.42C1200.61 817.125 1203.21 819.523 1205.91 819.722C1208.07 819.928 1207.84 820.885 1207.28 822.421C1205.68 827.048 1202.14 830.275 1199.15 833.89C1198.81 834.187 1198.54 834.549 1198.34 834.954C1198.15 835.36 1198.03 835.8 1198.01 836.249C1197.99 836.698 1198.06 837.148 1198.21 837.57C1198.37 837.993 1198.6 838.38 1198.91 838.709C1200.74 840.958 1202.55 843.244 1204.56 845.407C1211.09 852.212 1219.37 853.26 1228.18 852.222C1228.49 852.232 1228.79 852.178 1229.07 852.064C1229.36 851.951 1229.62 851.78 1229.83 851.563C1230.05 851.345 1230.21 851.086 1230.32 850.801C1230.43 850.516 1230.48 850.211 1230.47 849.906C1230.41 848.331 1229.43 847.848 1228.04 847.852C1227.15 847.842 1226.24 847.851 1225.35 847.89C1217.86 848.238 1211.25 846.521 1206.21 840.483C1204.92 838.957 1204.52 838.219 1206.46 836.917C1208.89 835.475 1210.88 833.374 1212.17 830.856C1213.46 828.339 1214.02 825.508 1213.77 822.689C1213.62 820.754 1214.47 820.725 1216.05 820.757C1223.31 820.855 1230.6 821.804 1237.82 821.133C1245.89 820.115 1253.88 818.513 1261.72 816.339C1271.53 813.935 1281.23 811.032 1289.76 805.387C1297.62 800.204 1306.22 795.878 1312.58 788.659C1317.39 783.262 1321.6 777.441 1326.02 771.396C1328.92 778.018 1335.31 779.071 1340.96 780.811C1343.23 781.532 1343.56 782.144 1343.28 784.127C1342.57 789.899 1341.01 795.535 1338.67 800.858C1338.09 802.144 1337.43 803.704 1339.2 804.505C1340.97 805.307 1341.86 804.172 1342.56 802.779C1346.13 795.574 1348.07 787.678 1348.26 779.645C1348.4 778.082 1347.98 776.521 1347.08 775.235C1346.18 773.95 1344.85 773.022 1343.34 772.613C1338.84 771.179 1334.68 768.855 1331.1 765.78C1330.29 765.038 1329.75 764.775 1330.39 763.49C1331.68 760.902 1332.65 758.226 1333.76 755.486C1334.07 754.719 1333.99 753.704 1335.22 753.481C1341.92 752.29 1348.01 748.808 1352.43 743.632C1355.34 749.995 1362.28 754.391 1367.72 753.746C1370.11 753.458 1371.6 751.428 1373.86 750.899C1374.68 750.718 1374.67 749.593 1374.4 748.761C1374.3 748.326 1374.05 747.938 1373.7 747.659C1373.35 747.379 1372.92 747.224 1372.47 747.217C1368.43 747.125 1364.97 745.155 1361.42 743.665C1358.7 742.517 1356.01 740.76 1355.95 737.183C1355.93 735.932 1355.75 734.907 1354.53 734.542C1353.99 734.423 1353.42 734.458 1352.9 734.644C1352.38 734.829 1351.92 735.157 1351.57 735.59C1349.02 737.997 1346.44 740.362 1343.76 742.637C1341.8 744.545 1339.27 745.752 1336.56 746.068C1337.44 741.952 1338.09 737.788 1338.5 733.597C1338.53 732.669 1339.39 732.417 1340.14 732.076C1342.39 731.06 1344.41 729.609 1346.1 727.806C1347.78 726.002 1349.09 723.884 1349.95 721.572C1350.77 719.453 1351.79 717.399 1352.92 714.912C1353.32 715.679 1353.47 715.996 1353.66 716.336C1355.79 720.061 1357.71 723.958 1361.21 726.696C1366.67 730.927 1374.84 730.267 1378.57 725.25C1379.46 724.085 1380.14 722.808 1379.31 721.37C1378.57 720.168 1377.34 720.217 1376.09 720.491C1375.33 720.658 1374.01 720.95 1373.83 720.689C1372.14 718.105 1369.11 718.726 1366.87 717.569C1362.43 715.456 1358.49 712.404 1355.35 708.624C1352.99 705.664 1351.98 706.032 1349.47 708.794C1345.28 713.388 1342.14 718.877 1337.42 723.366C1336.88 722.384 1336.42 721.358 1336.06 720.298C1334.98 716.352 1333.11 712.663 1330.58 709.449C1329.27 707.719 1329.31 706.663 1330.92 705.227C1335.02 701.368 1338.71 697.108 1341.96 692.513C1344.07 689.665 1346.25 686.8 1348.53 683.93C1353.41 694.198 1363.08 698.88 1372.27 695.375C1375.29 694.039 1378.22 692.491 1381.02 690.744C1381.49 690.541 1381.87 690.173 1382.08 689.709C1382.3 689.246 1382.33 688.72 1382.18 688.231C1381.81 687.107 1381.07 686.793 1380.06 686.698ZM1248.11 801.453C1248.04 802.059 1247.77 802.624 1247.34 803.058C1246.91 803.493 1246.35 803.771 1245.74 803.85C1244.74 804.079 1243.7 803.936 1242.8 803.449C1236.29 799.803 1229.37 800.678 1222.52 801.902C1217.06 802.838 1211.47 802.496 1206.17 800.903C1200.42 799.246 1197.55 795.034 1196.62 789.283C1195.67 786 1195.68 782.515 1196.64 779.236C1196.93 778.235 1196.95 777.581 1195.8 777.071C1190.84 775.147 1189.65 770.819 1189.09 766.192C1188.2 758.793 1189.39 751.827 1193.99 745.712C1194.53 744.989 1195.12 743.62 1196.28 744.334C1197.44 745.047 1196.42 746.099 1196.05 746.91C1193.24 753.293 1192.58 760.413 1194.16 767.201C1194.39 768.533 1195.02 769.763 1195.97 770.729C1196.92 771.694 1198.13 772.35 1199.46 772.609C1203.99 773.867 1204.27 774.725 1202.44 778.895C1201.48 781.006 1201.04 783.318 1201.17 785.633C1201.29 787.948 1201.98 790.198 1203.16 792.192C1203.71 793.093 1204.44 793.873 1205.3 794.483C1206.17 795.093 1207.14 795.521 1208.18 795.74C1213.73 797.211 1219.56 797.284 1225.16 795.951C1232.39 794.557 1239.88 795.567 1246.48 798.825C1247.01 799.007 1247.47 799.368 1247.76 799.847C1248.06 800.327 1248.18 800.894 1248.11 801.453ZM1319.11 750.377C1318.01 754.371 1315.82 757.977 1312.77 760.785C1307.03 766.15 1303.27 772.936 1299.12 779.428C1298.5 780.569 1298.02 781.779 1297.69 783.033C1297.24 784.323 1296.56 785.155 1295.03 784.921C1294.43 784.826 1293.89 784.52 1293.5 784.06C1293.1 783.599 1292.89 783.013 1292.89 782.408C1292.82 780.483 1293.39 778.59 1294.5 777.016C1298.93 770.113 1302.9 762.882 1309.09 757.228C1312.48 754.156 1314.55 749.897 1314.88 745.337C1315.43 739.371 1311.38 735.623 1305.42 736.589C1304.74 736.739 1304.04 736.893 1303.38 737.041C1302.82 737.269 1302.22 737.334 1301.63 737.227C1301.04 737.12 1300.5 736.846 1300.06 736.437C1299.67 735.976 1299.43 735.408 1299.38 734.809C1299.32 734.209 1299.44 733.606 1299.73 733.078C1300.7 730.259 1301.66 727.409 1302.72 724.57C1305.65 716.173 1303.2 710.357 1295.01 706.857C1293.54 706.229 1292.02 705.706 1290.52 705.115C1290.03 704.999 1289.6 704.7 1289.32 704.277C1289.04 703.854 1288.93 703.341 1289.02 702.841C1289.28 701.561 1290.3 701.416 1291.38 701.574C1304.72 703.397 1311.62 711.202 1307.83 725.621C1307.33 727.43 1306.57 729.17 1305.95 730.802C1306.2 731.001 1306.26 731.082 1306.34 731.095C1318.16 732.636 1322.28 738.829 1319.11 750.377Z" fill="#2F306A" fill-opacity="0.15"/>
<path d="M1325.86 626.005C1324.66 621.217 1324.23 617.595 1322.71 614.275C1317.72 603.319 1308.72 596.201 1299.01 589.78C1297.17 588.741 1295.14 588.077 1293.04 587.824C1279.21 585.283 1266.14 588.53 1253.28 593.131C1246.44 595.739 1239.47 597.983 1232.39 599.852C1230.91 600.344 1229.33 600.491 1227.78 600.282C1226.23 600.073 1224.75 599.514 1223.45 598.647C1222.18 597.705 1220.84 597.333 1219.68 598.589C1218.53 599.844 1219.36 601.011 1220.05 602.145C1222.03 605.395 1224.14 608.566 1225.96 611.963C1229 618.056 1232.43 623.949 1236.22 629.606C1244.4 640.891 1253.43 643.142 1265.11 640.564C1273.64 638.683 1280.99 640.398 1288.26 644.054C1290.01 644.883 1291.37 646.352 1292.06 648.156C1292.33 648.7 1292.39 649.326 1292.23 649.913C1292.06 650.499 1291.68 651.002 1291.17 651.324C1290.94 651.486 1290.67 651.6 1290.4 651.657C1290.12 651.715 1289.84 651.715 1289.56 651.659C1289.28 651.602 1289.02 651.489 1288.79 651.328C1288.56 651.166 1288.36 650.959 1288.22 650.719C1285.25 646.512 1280.58 645.684 1276.1 644.845C1270.55 643.617 1264.73 644.403 1259.7 647.064C1253.87 650.401 1248.27 654.512 1248.8 662.575C1248.86 662.848 1248.61 663.142 1248.55 663.441C1248 665.866 1249.15 666.74 1251.45 666.725C1260.67 666.647 1268.98 669.849 1276.79 674.242C1282.24 677.298 1287.48 678.048 1293.14 675.546C1298.79 673.043 1304.4 670.359 1310.04 667.766C1310.67 667.467 1311.42 666.795 1311.98 667.21C1314.15 668.654 1315.1 666.919 1315.93 665.639C1324.39 653.193 1330.12 640.156 1325.86 626.005ZM1319.44 631.758C1321.23 638.47 1320.76 645.586 1318.1 652.007C1317.88 652.564 1317.62 653.104 1317.33 653.624C1316.72 654.68 1315.83 655.367 1314.61 654.716C1313.38 654.065 1313.71 653.024 1314.19 652.092C1316.1 648.328 1317.04 644.144 1316.91 639.925C1316.44 625.81 1309.71 614.968 1299.34 606.006C1295.87 603.13 1292 600.773 1287.85 599.008C1286.81 598.555 1285.19 598.118 1285.74 596.647C1286.29 595.175 1288 595.704 1289.15 596.164C1302.52 601.508 1311.55 611.145 1317.25 624.202C1317.77 625.387 1318.23 626.603 1318.61 627.842C1318.93 629.105 1319.14 630.394 1319.44 631.758Z" fill="#2F306A" fill-opacity="0.15"/>
<path d="M1169.42 675.971C1169.03 674.613 1168.78 673.063 1167.06 672.917C1165.35 672.772 1164.81 674.256 1164.16 675.544C1162.33 680.136 1159.49 684.259 1155.86 687.607C1151.33 691.386 1149.32 696.308 1148.17 701.836C1146.91 707.881 1145.1 713.794 1144.31 719.943C1144.12 721.428 1143.49 722.823 1141.71 722.597C1139.92 722.371 1139.72 721.176 1139.91 719.69C1140.13 717.814 1140.33 715.911 1140.53 714.023C1141.58 704.354 1143.6 694.886 1149.45 686.938C1152.83 681.986 1155.5 676.585 1157.37 670.893C1161.15 661.402 1161.84 650.967 1159.35 641.065C1158.53 638.291 1158.11 635.415 1157.04 632.679C1154.27 625.506 1149.2 619.935 1144.42 614.142C1143.41 612.936 1142.54 611.602 1140.72 612.497C1138.89 613.392 1139.65 614.847 1139.94 616.195C1140.72 620.677 1141.11 625.088 1138.77 629.368C1135.65 635.442 1131.57 640.98 1126.7 645.774C1123.47 648.649 1120.66 651.975 1118.38 655.649C1114.82 661.73 1111 667.619 1106.92 673.317C1104.1 677.358 1102.49 682.123 1102.29 687.046C1102.03 692.189 1102.95 697.228 1103.26 702.323C1104.42 724.403 1121.47 744.68 1143.77 750.484C1145.81 751.092 1147.95 751.254 1150.05 750.96C1152.16 750.666 1154.18 749.922 1155.97 748.779C1160.18 745.696 1163.96 742.068 1167.21 737.99C1171.76 732.799 1174.97 726.568 1176.54 719.848C1178.11 713.129 1178 706.128 1176.21 699.464C1174.24 691.542 1171.7 683.826 1169.42 675.971ZM1122.26 666.168C1121.8 667.175 1121.28 668.132 1120.83 669.136C1113.52 686.015 1112.6 702.948 1120.31 719.931C1122.02 723.825 1124.8 727.151 1128.34 729.517C1129.38 730.193 1130.53 731.053 1129.69 732.397C1128.86 733.74 1127.44 733.227 1126.3 732.477C1119.86 728.211 1116.59 721.703 1114.24 714.659C1113.79 713.024 1113.42 711.366 1113.15 709.69C1110.22 695.689 1111.33 682.115 1117.95 669.215C1118.65 667.658 1119.62 666.235 1120.81 665.01C1121.33 664.497 1121.72 663.22 1122.57 663.827C1123.42 664.434 1122.6 665.394 1122.26 666.168Z" fill="#2F306A" fill-opacity="0.15"/>
<path d="M1315.41 682.753C1316.08 685.788 1316.13 688.928 1315.56 691.984C1315.54 692.277 1315.47 692.565 1315.35 692.831C1315.22 693.097 1315.04 693.335 1314.82 693.532C1314.61 693.728 1314.35 693.879 1314.07 693.975C1313.79 694.071 1313.5 694.11 1313.2 694.091C1311.71 694.253 1310.21 694.335 1308.71 694.336C1303.62 693.869 1298.57 693.267 1293.5 692.925C1291.41 692.751 1290.84 691.733 1290.94 689.835C1291.19 686.646 1291.76 683.491 1292.65 680.418C1292.77 679.99 1292.99 679.598 1293.3 679.28C1293.6 678.961 1293.99 678.727 1294.41 678.6C1299.07 676.747 1303.73 674.956 1308.26 672.844C1308.52 672.666 1308.82 672.547 1309.13 672.495C1309.44 672.444 1309.76 672.461 1310.06 672.545C1310.37 672.629 1310.65 672.779 1310.89 672.984C1311.13 673.189 1311.32 673.443 1311.45 673.73C1313.32 676.465 1314.67 679.525 1315.41 682.753Z" fill="#2F306A" fill-opacity="0.15"/>
<path d="M1178.03 749.471C1175.8 756.001 1174.21 762.738 1170.95 768.89C1170.13 770.437 1169.41 770.929 1167.77 770.481C1162.27 769.009 1156.94 761.86 1157.23 756.173C1157.24 755.578 1157.4 754.996 1157.7 754.48C1160.35 750.705 1163.32 747.173 1166.59 743.924C1166.83 743.706 1167.08 743.511 1167.35 743.343C1171.18 743.849 1174.82 745.275 1177.96 747.501C1178.7 748.101 1178.23 748.856 1178.03 749.471Z" fill="#2F306A" fill-opacity="0.15"/>
<path d="M1212.24 707.832C1212.35 708.316 1212.46 708.821 1212.58 709.347C1213.84 715.423 1213.15 716.624 1207.49 719.175C1206.47 719.621 1205.97 719.51 1205.75 718.495C1204.95 714.144 1202.48 710.334 1201.74 705.97C1201.34 704.307 1201.46 702.561 1202.09 700.969C1202.4 700.157 1202.95 699.452 1203.65 698.939C1204.36 698.426 1205.19 698.126 1206.06 698.074C1208 697.901 1208.98 699.02 1209.79 700.525C1211.01 702.806 1211.84 705.276 1212.24 707.832Z" fill="#2F306A" fill-opacity="0.15"/>
<path d="M1251.63 697.173C1251.65 697.362 1251.64 697.553 1251.58 697.735C1251.53 697.917 1251.43 698.085 1251.31 698.229C1250.03 699.655 1244.16 699.091 1243.18 697.449C1241.31 694.367 1239.33 691.339 1237.62 688.19C1235.76 684.788 1236.88 682.508 1240.76 681.715C1241.76 681.48 1242.81 681.541 1243.78 681.892C1244.75 682.243 1245.59 682.868 1246.21 683.69C1249.52 687.534 1250.02 692.604 1251.63 697.173Z" fill="#2F306A" fill-opacity="0.15"/>
<path d="M902.754 789.069C902.884 778.33 900.223 767.742 895.032 758.345C870.128 741.971 842.349 740.825 813.929 743.015C808.901 743.623 803.841 743.944 798.776 743.975C795.287 745.433 791.839 747 788.285 748.316C784.732 749.631 783.334 752.241 782.347 755.813C780.047 764.221 784.976 769.433 790.424 773.456C807.171 785.948 825.172 796.658 844.137 805.415C844.899 789.428 851.69 776.08 861.483 763.948C862.889 762.236 864.399 760.612 866.004 759.086C867.206 757.923 868.81 757.251 870.156 758.661C871.742 760.301 869.405 760.631 868.869 761.568C861.521 774.399 852.544 786.549 851.898 802.189C851.757 803.479 851.545 804.759 851.262 806.024C851.242 806.728 851.478 807.414 851.927 807.955C852.376 808.496 853.007 808.854 853.701 808.963C856.506 809.691 859.152 810.76 861.935 811.441C873.183 814.184 883.743 813.048 893.299 806.224C896.17 804.371 898.537 801.834 900.187 798.839C901.837 795.845 902.719 792.488 902.754 789.069ZM841.279 771.644C838.736 772.336 837.975 770.042 837.468 768.156C837.132 766.673 836.439 765.294 835.45 764.14C834.462 762.986 833.206 762.09 831.793 761.532C831.045 761.105 830.165 760.971 829.324 761.156C828.482 761.342 827.739 761.833 827.239 762.535C825.431 764.837 824.252 767.569 823.818 770.465C823.427 774.15 825.371 775.922 828.986 775.203C830.5 774.897 831.956 774.142 833.477 773.882C834.242 773.653 835.064 773.718 835.783 774.065C836.502 774.412 837.066 775.015 837.364 775.757C838.106 777.549 837.205 778.748 835.851 779.769C831.746 782.824 824.275 783.153 820.691 780.42C817.106 777.687 815.686 771.695 817.58 766.442C818.474 763.85 819.714 761.389 821.264 759.128C823.739 755.583 826.986 753.909 831.108 754.9C838.041 756.049 842.293 760.313 842.979 766.77C843.198 768.623 843.655 770.984 841.207 771.633L841.279 771.644ZM880.941 782.729C878.436 782.402 877.027 779.869 877.544 776.746C877.76 775.184 878.586 773.771 879.841 772.817C881.096 771.863 882.678 771.447 884.239 771.659C887.428 772.276 887.94 774.485 887.457 777.217C886.779 780.606 883.805 783.102 880.941 782.729Z" fill="#2F306A" fill-opacity="0.15"/>
<path d="M779.782 774.476C771.46 782.413 763.216 790.407 754.048 797.355C750.088 800.332 746.071 800.208 741.852 799.538C738.763 799.026 736.311 794.225 736.933 791.091C737.126 789.922 737.926 789.688 738.813 789.454C744.962 787.748 750.587 784.696 756.655 782.42C758.386 781.77 759.828 780.925 759.267 778.752C758.705 776.578 756.912 776.457 755.232 776.618C752.978 776.801 751.081 778.098 749.072 779.01C745.246 780.647 741.653 782.381 737.704 784.231C737.584 783.898 737.495 783.554 737.435 783.205C737.686 779.306 736.63 774.473 738.557 771.76C740.484 769.047 745.828 770.518 749.633 769.889C751.303 769.609 753.006 769.569 754.696 769.439C755.095 769.472 755.496 769.422 755.875 769.292C756.254 769.161 756.601 768.953 756.895 768.681C757.19 768.409 757.424 768.078 757.584 767.71C757.743 767.342 757.825 766.945 757.823 766.544C757.943 764.499 756.54 763.871 754.848 763.664C750.361 763.11 745.982 764.201 741.658 764.964C738.718 765.488 737.994 764.562 738.04 761.991C738.096 758.119 738.068 754.232 738.072 750.058C744.66 752.849 750.885 755.448 757.07 758.114C759.199 759.038 761.325 759.449 762.445 757.012C763.701 754.291 761.671 752.856 759.502 751.998C753.318 749.508 747.162 747.023 740.818 744.961C738.391 744.163 738.186 743.192 738.699 741.065C739.795 737.101 742.686 734.665 746.829 735.351C758.377 737.251 768.073 742.915 776.506 750.905C777.138 751.453 777.564 752.201 777.715 753.025C777.866 753.848 777.731 754.699 777.335 755.437C776.274 757.99 775.906 760.778 776.269 763.519C776.632 766.26 777.712 768.856 779.4 771.043C780.16 772.019 781.553 772.792 779.782 774.476Z" fill="#2F306A" fill-opacity="0.15"/>
<path d="M894.111 750.487C888.382 745.334 881.629 743.277 874.598 741.57C868.112 740.011 868.122 739.954 870.35 733.922C870.819 732.682 871.324 731.315 869.831 730.438C869.531 730.22 869.187 730.071 868.824 730C868.461 729.928 868.086 729.937 867.727 730.025C867.367 730.113 867.031 730.279 866.741 730.51C866.451 730.741 866.215 731.032 866.049 731.364C865.281 732.255 864.709 733.298 864.372 734.426C863.689 738.546 861.288 738.822 857.968 737.759C857.33 737.609 856.684 737.502 856.032 737.438C850.792 736.57 850.793 736.57 852.398 731.562C852.848 730.172 853.269 728.689 851.555 727.819C849.842 726.949 848.594 728.031 847.577 729.313C847.259 729.705 847.058 730.18 846.999 730.682C846.861 736.109 843.383 736.616 839.157 736.077L837.99 735.971C832.027 735.496 832.013 735.494 832.27 729.618C832.402 727.941 832.128 726.504 830.146 726.102C828.165 725.7 827.262 727.089 826.829 728.731C826.588 729.343 826.48 729.999 826.51 730.656C827.417 735.86 824.388 736.75 820.234 736.486C819.727 736.478 819.222 736.548 818.737 736.692C816.327 737.289 814.72 736.92 814.887 733.886C814.987 732.042 814.064 730.82 812.118 730.907C811.751 730.934 811.395 731.045 811.078 731.231C810.76 731.417 810.489 731.674 810.286 731.981C810.082 732.288 809.952 732.638 809.904 733.003C809.857 733.368 809.893 733.74 810.011 734.089C810.853 737.832 808.775 738.366 805.91 738.536C804.22 738.589 802.539 738.8 800.89 739.169C798.226 739.797 798.139 738.552 798.416 736.444C799.103 731.592 801.959 728.477 806.062 726.227C828.167 717.922 850.745 718.676 873.515 723.123C884.202 728.63 893.81 741.179 894.111 750.487Z" fill="#2F306A" fill-opacity="0.15"/>
</g>
<defs>
<clipPath id="clip0_1142_10408">
<rect width="1440" height="900" fill="white"/>
</clipPath>
<clipPath id="clip1_1142_10408">
<rect width="328.136" height="270.037" fill="white" transform="translate(517.752 15) rotate(9.78)"/>
</clipPath>
<clipPath id="clip2_1142_10408">
<rect width="324" height="458" fill="white" transform="translate(987.645 69.1357) rotate(-32.33)"/>
</clipPath>
<clipPath id="clip3_1142_10408">
<rect width="449" height="143" fill="white" transform="translate(0 705)"/>
</clipPath>
</defs>
</svg>
