<svg width="107" height="35" viewBox="0 0 107 35" fill="none" xmlns="http://www.w3.org/2000/svg">
<g id="Ornament" clip-path="url(#clip0_562_7009)">
<path id="Vector" d="M0.243797 9.5847C-0.11689 8.53774 -0.129349 8.07826 0.566345 7.67922C4.00786 5.7056 7.51474 3.81856 10.8053 1.62353C12.8496 0.259939 14.3371 0.437905 16.3156 1.749C19.6085 3.93117 23.1402 5.76886 26.7961 7.88149C31.1314 5.3688 35.5768 2.79143 40.1011 0.168863C42.5111 1.54079 44.8165 2.82723 47.0946 4.15886C48.9202 5.2256 50.7233 6.33092 52.5135 7.454C53.1586 7.85855 53.7049 7.85889 54.3574 7.46161C57.516 5.53771 60.6875 3.63295 63.8714 1.74866C64.7263 1.24291 65.6406 0.833825 66.6445 0.320391C71.3656 2.30862 75.4155 5.58637 80.1514 7.85718C82.4263 6.52973 84.6993 5.20164 86.9745 3.87628C88.8024 2.81159 90.6439 1.76779 92.4573 0.679483C93.1829 0.244304 93.832 0.321798 94.5117 0.727798C98.1996 2.9315 101.894 5.12616 105.577 7.33823C106.071 7.63543 106.515 8.01499 106.95 8.33265C106.652 9.33616 106.184 9.47692 105.424 9.02162C103.158 7.6632 100.874 6.33229 98.5999 4.9854C96.8416 3.94403 95.088 2.89464 93.313 1.8373C89.8202 3.95202 86.5091 6.13522 83.026 8.01328C79.8162 9.74391 80.4461 10.0321 77.1286 8.0094C73.7435 5.94542 70.2981 3.9753 66.7083 1.8637C62.352 4.447 57.9331 7.0671 53.4391 9.73242C49.0412 7.14147 44.6122 4.5318 40.1042 1.87587C35.6573 4.49216 31.2185 7.10396 26.7506 9.73242C22.3597 7.12272 18.0455 4.55858 13.599 1.91586C9.09989 4.16232 4.95413 7.21794 0.243797 9.5847Z" fill="#3BC1CB"/>
<path id="Vector_2" d="M13.495 12.8406C14.5596 13.4288 15.7237 14.0367 16.8517 14.7027C19.7536 16.4163 22.6367 18.1595 25.5316 19.8835C26.3829 20.3903 27.114 20.4716 28.0933 19.8595C31.5099 17.7246 35.0211 15.7354 38.5046 13.7041C39.0163 13.4058 39.5727 13.1803 40.1855 12.8837C42.1839 14.0072 44.2103 15.1184 46.2082 16.2769C48.3233 17.5035 50.4256 18.7528 52.5045 20.0378C53.2453 20.4959 53.7947 20.3642 54.5095 19.9387C58.314 17.6749 62.1567 15.4708 65.9885 13.2504C66.2137 13.1201 66.4616 13.0266 66.7927 12.8719C69.0729 14.1625 71.3781 15.4517 73.6671 16.7681C75.3848 17.7562 77.1019 18.7486 78.7806 19.798C79.739 20.3972 80.5626 20.3878 81.5378 19.791C85.0863 17.6179 88.6716 15.5021 92.2528 13.3804C92.641 13.1503 93.0928 13.0228 93.5308 12.841C97.6233 15.2355 101.672 17.5977 105.71 19.978C106.102 20.2092 106.51 20.5001 106.747 20.8647C106.906 21.1098 106.777 21.5338 106.777 22.1991C101.861 19.9714 97.8696 16.7715 93.2656 14.4969C88.8482 17.1212 84.4305 19.7458 80.0028 22.3764C75.5477 19.7271 71.1814 17.1303 66.6694 14.4472C62.3049 17.0656 57.8993 19.709 53.4138 22.4004C49.0128 19.7705 44.6523 17.1643 40.1065 14.4476C35.7759 17.0319 31.3644 19.6645 26.7895 22.3948C22.4799 19.8129 18.1221 17.2025 13.6001 14.4934C9.14344 16.776 4.92258 19.6989 0.362045 22.1686C-0.00370026 20.8585 0.0815048 20.6138 0.98848 20.05C2.05381 19.3875 3.11487 18.717 4.20432 18.0948C7.2439 16.3593 10.2971 14.6471 13.495 12.8406Z" fill="#3BC1CB"/>
<path id="Vector_3" d="M66.7104 27.095C62.2837 29.7266 57.9135 32.3245 53.4292 34.9901C49.0017 32.352 44.5855 29.7204 40.1118 27.0544C35.726 29.6749 31.3623 32.2821 26.8282 34.9912C22.442 32.3965 18.011 29.7757 13.5116 27.1138C11.2568 28.4211 9.0557 29.7426 6.81026 30.9867C4.64652 32.1858 2.73142 33.8445 0.278206 34.6415C-0.371574 33.4625 0.410103 33.0159 1.04432 32.6151C2.21548 31.8747 3.4454 31.2226 4.64847 30.5309C7.2297 29.0468 9.80743 27.557 12.3918 26.0791C12.789 25.8517 13.2155 25.6723 13.5933 25.4881C17.6651 27.8657 21.6588 30.1994 25.6547 32.5292C26.4582 32.9978 27.1426 33.0221 28.0437 32.4785C32.0051 30.0881 36.0407 27.8149 40.1398 25.4475C44.0564 27.7523 47.9866 30.0544 51.9032 32.3773C52.9031 32.9703 53.6926 33.0311 54.8109 32.336C58.4566 30.068 62.2285 27.9925 65.9548 25.8479C66.1813 25.7175 66.4326 25.6285 66.7268 25.4958C68.7312 26.6154 70.7621 27.72 72.7622 28.8757C74.8795 30.0996 76.989 31.3391 79.057 32.6404C79.9041 33.1737 80.5938 32.8855 81.2909 32.4899C82.4981 31.8045 83.6649 31.0516 84.8655 30.354C87.6113 28.7583 90.3671 27.1795 93.2544 25.5156C93.7891 25.7669 94.4685 26.0283 95.0888 26.387C98.582 28.4086 102.067 30.443 105.538 32.5018C106.034 32.7962 106.468 33.2157 106.857 33.6419C106.957 33.7524 106.832 34.1379 106.709 34.3367C106.636 34.4552 106.327 34.5473 106.188 34.4938C105.57 34.2574 104.939 34.0204 104.376 33.6822C101.373 31.8772 98.391 30.0367 95.3953 28.2198C94.7731 27.8427 94.1215 27.5125 93.3959 27.1121C91.4073 28.2741 89.4063 29.4322 87.4165 30.6088C85.3682 31.8198 83.3098 33.0165 81.2977 34.2832C80.325 34.8953 79.5611 34.7952 78.5963 34.1942C74.8956 31.8883 71.1358 29.6728 67.3952 27.428C67.1738 27.2952 66.9287 27.2004 66.7104 27.095Z" fill="#3BC1CB"/>
</g>
<defs>
<clipPath id="clip0_562_7009">
<rect width="107" height="35" fill="white" transform="matrix(-1 0 0 -1 107 35)"/>
</clipPath>
</defs>
</svg>
